<svg xmlns="http://www.w3.org/2000/svg" width="1554" height="462" viewBox="0 0 1554 462" version="1.1">
  <path d="M 766.500 1.401 C 753.241 5.622, 743.105 14.384, 737.215 26.720 L 733.500 34.500 733.500 231 L 733.500 427.500 737.215 435.280 C 742.155 445.625, 749.375 452.845, 759.720 457.785 L 767.500 461.500 1143.500 461.500 L 1519.500 461.500 1527.280 457.785 C 1537.625 452.845, 1544.845 445.625, 1549.785 435.280 L 1553.500 427.500 1553.500 231 L 1553.500 34.500 1549.785 26.720 C 1544.845 16.375, 1537.625 9.155, 1527.280 4.215 L 1519.500 0.500 1145 0.314 C 844.129 0.165, 769.714 0.379, 766.500 1.401 M 1301.246 223.250 L 1301.500 352.500 1320.928 352.500 L 1340.356 352.500 1344.500 342.559 C 1346.779 337.092, 1349.200 332.433, 1349.880 332.207 C 1350.560 331.980, 1353.916 334.483, 1357.338 337.769 C 1364.053 344.217, 1372.122 349.726, 1378.500 352.217 C 1389.268 356.421, 1410.974 357.020, 1423 353.443 C 1441.539 347.929, 1456.981 333.408, 1465.260 313.704 C 1478.182 282.948, 1478.058 232.406, 1464.989 203.363 C 1456.863 185.302, 1442.472 171.843, 1425.043 166.003 C 1416.145 163.021, 1400.007 162.261, 1390.172 164.361 C 1376.348 167.312, 1363.776 175.084, 1355.852 185.580 C 1351.891 190.825, 1348.942 192.876, 1350.573 189.250 C 1351.006 188.287, 1351.549 166.463, 1351.778 140.750 L 1352.197 94 1326.595 94 L 1300.992 94 1301.246 223.250 M 823 230.500 L 823 352 849 352 L 875 352 875 299.500 L 875 247 922.500 247 L 970 247 970 299.500 L 970 352 996 352 L 1022 352 1022 230.500 L 1022 109 996 109 L 970 109 970 156.500 L 970 204 922.500 204 L 875 204 875 156.500 L 875 109 849 109 L 823 109 823 230.500 M 1077.225 235.750 L 1077.538 305.500 1080.093 313.662 C 1086.391 333.776, 1100.080 346.823, 1121 352.648 C 1125.968 354.031, 1131.154 354.463, 1143 354.479 C 1156.501 354.497, 1159.462 354.198, 1165.957 352.158 C 1180.752 347.512, 1192.980 339.622, 1198.018 331.471 C 1201.940 325.124, 1202.665 326.194, 1208.202 346.500 L 1209.565 351.500 1229.283 351.771 L 1249 352.042 1249 259.021 L 1249 166 1223.500 166 L 1198 166 1198 212.394 C 1198 237.911, 1197.527 263.448, 1196.950 269.144 C 1194.546 292.842, 1188.938 303.951, 1176.217 310.214 C 1169.960 313.294, 1168.896 313.498, 1159.024 313.499 C 1149.291 313.500, 1148.108 313.283, 1143.292 310.614 C 1137.158 307.215, 1133.643 302.530, 1130.697 293.832 C 1128.615 287.681, 1128.544 285.761, 1128.220 226.750 L 1127.887 166 1102.399 166 L 1076.911 166 1077.225 235.750 M 1378 205.326 C 1365.001 208.353, 1358.222 215.906, 1354.304 231.729 C 1351.928 241.326, 1351.990 272.319, 1354.408 283.368 C 1359.263 305.555, 1368.600 314.176, 1388 314.386 C 1395.621 314.468, 1397.050 314.174, 1401.819 311.542 C 1408.431 307.894, 1412.462 303.373, 1416.169 295.453 C 1426.099 274.232, 1424.534 234.263, 1413.122 217.677 C 1405.485 206.577, 1392.395 201.974, 1378 205.326" stroke="none" fill="#9c1c84" fill-rule="evenodd"/>
  <path d="M 1301.246 223.250 L 1301.500 352.500 1320.928 352.500 L 1340.356 352.500 1344.500 342.559 C 1346.779 337.092, 1349.200 332.433, 1349.880 332.207 C 1350.560 331.980, 1353.916 334.483, 1357.338 337.769 C 1364.053 344.217, 1372.122 349.726, 1378.500 352.217 C 1389.268 356.421, 1410.974 357.020, 1423 353.443 C 1441.539 347.929, 1456.981 333.408, 1465.260 313.704 C 1478.182 282.948, 1478.058 232.406, 1464.989 203.363 C 1456.863 185.302, 1442.472 171.843, 1425.043 166.003 C 1416.145 163.021, 1400.007 162.261, 1390.172 164.361 C 1376.348 167.312, 1363.776 175.084, 1355.852 185.580 C 1351.891 190.825, 1348.942 192.876, 1350.573 189.250 C 1351.006 188.287, 1351.549 166.463, 1351.778 140.750 L 1352.197 94 1326.595 94 L 1300.992 94 1301.246 223.250 M 270 225 L 270 354 295.500 354 L 321 354 321 225 L 321 96 295.500 96 L 270 96 270 225 M 137.500 107.717 C 129.378 108.847, 117.563 112.565, 109.089 116.657 C 91.685 125.061, 79.286 140.686, 75.382 159.135 C 73.196 169.464, 73.941 189.067, 76.864 198.123 C 81.162 211.438, 93.401 226.216, 108.094 235.832 C 111.617 238.138, 125.525 245.636, 139 252.495 C 172.436 269.515, 178.387 274.979, 178.295 288.581 C 178.201 302.527, 169.239 310.898, 152.102 313.046 C 143.600 314.112, 129.301 313.041, 118.453 310.525 C 111.676 308.954, 90.864 301.647, 79.645 296.900 C 75.875 295.305, 72.388 294, 71.895 294 C 71.393 294, 71 304.685, 71 318.359 L 71 342.717 78.852 345.820 C 100.952 354.553, 118.521 357.466, 144.500 356.704 C 155.819 356.372, 165.284 355.553, 170 354.499 C 207.697 346.072, 229.040 321.318, 228.983 286.090 C 228.950 266.440, 224.122 253.473, 212.085 240.709 C 203.364 231.461, 191.948 224.082, 166.776 211.421 C 136.523 196.204, 130.828 192.374, 126.740 184.500 C 124.444 180.076, 123.993 170.557, 125.854 165.802 C 127.822 160.777, 133.882 155.190, 139.828 152.919 C 144.392 151.176, 147.552 150.764, 156 150.808 C 168.988 150.875, 178.587 152.817, 194.870 158.671 C 201.817 161.168, 208.540 163.277, 209.810 163.356 C 211.893 163.486, 212.857 161.725, 219.594 145.500 C 223.704 135.600, 227.297 126.600, 227.578 125.500 C 228.023 123.758, 226.696 122.963, 217.294 119.337 C 193.142 110.022, 177.512 106.933, 155.619 107.150 C 147.304 107.232, 139.150 107.487, 137.500 107.717 M 823 230.500 L 823 352 849 352 L 875 352 875 299.500 L 875 247 922.500 247 L 970 247 970 299.500 L 970 352 996 352 L 1022 352 1022 230.500 L 1022 109 996 109 L 970 109 970 156.500 L 970 204 922.500 204 L 875 204 875 156.500 L 875 109 849 109 L 823 109 823 230.500 M 612.874 147.670 L 605.493 167.340 591.747 175.761 L 578 184.182 578 195.091 L 578 206 589.945 206 L 601.890 206 602.235 260.750 C 602.615 321.133, 602.448 319.430, 609.251 332.281 C 613.431 340.177, 623.225 349.192, 630.633 351.964 C 642.605 356.443, 648.455 357.237, 665.500 356.696 C 681.252 356.196, 696.278 353.564, 704.327 349.897 L 707 348.679 707 329.232 C 707 311.120, 706.880 309.833, 705.250 310.465 C 698.641 313.028, 685.403 315.337, 677 315.393 C 666.302 315.465, 660.924 313.511, 657.123 308.173 C 653.420 302.972, 653.050 297.833, 653.024 251.250 L 653 206 679 206 L 705 206 705 187 L 705 168 679 168 L 653 168 653 148 L 653 128 636.627 128 L 620.254 128 612.874 147.670 M 1077.225 235.750 L 1077.538 305.500 1080.093 313.662 C 1086.391 333.776, 1100.080 346.823, 1121 352.648 C 1125.968 354.031, 1131.154 354.463, 1143 354.479 C 1156.501 354.497, 1159.462 354.198, 1165.957 352.158 C 1180.752 347.512, 1192.980 339.622, 1198.018 331.471 C 1201.940 325.124, 1202.665 326.194, 1208.202 346.500 L 1209.565 351.500 1229.283 351.771 L 1249 352.042 1249 259.021 L 1249 166 1223.500 166 L 1198 166 1198 212.394 C 1198 237.911, 1197.527 263.448, 1196.950 269.144 C 1194.546 292.842, 1188.938 303.951, 1176.217 310.214 C 1169.960 313.294, 1168.896 313.498, 1159.024 313.499 C 1149.291 313.500, 1148.108 313.283, 1143.292 310.614 C 1137.158 307.215, 1133.643 302.530, 1130.697 293.832 C 1128.615 287.681, 1128.544 285.761, 1128.220 226.750 L 1127.887 166 1102.399 166 L 1076.911 166 1077.225 235.750 M 372 235.042 C 372 310.597, 372.057 311.324, 379.128 325.846 C 386.082 340.127, 396.723 348.767, 414 354.159 C 420.550 356.204, 423.526 356.500, 437.500 356.500 C 455.528 356.500, 461.390 355.357, 473.684 349.444 C 481.091 345.881, 491.446 337.272, 493.948 332.597 C 495.833 329.076, 497.725 329.331, 498.786 333.250 C 499.271 335.038, 500.745 340.438, 502.064 345.250 L 504.461 354 524.231 354 L 544 354 544 261 L 544 168 518.500 168 L 493 168 492.984 212.250 C 492.967 260.231, 492.102 276.405, 488.932 288 C 483.767 306.892, 472.988 315.365, 454 315.458 C 443.183 315.511, 437.418 313.418, 432.267 307.566 C 427.568 302.227, 425.244 295.886, 423.990 284.981 C 423.454 280.316, 423.012 252.088, 423.008 222.250 L 423 168 397.500 168 L 372 168 372 235.042 M 1378 205.326 C 1365.001 208.353, 1358.222 215.906, 1354.304 231.729 C 1351.928 241.326, 1351.990 272.319, 1354.408 283.368 C 1359.263 305.555, 1368.600 314.176, 1388 314.386 C 1395.621 314.468, 1397.050 314.174, 1401.819 311.542 C 1408.431 307.894, 1412.462 303.373, 1416.169 295.453 C 1426.099 274.232, 1424.534 234.263, 1413.122 217.677 C 1405.485 206.577, 1392.395 201.974, 1378 205.326" stroke="none" fill="#fbfbfb" fill-rule="evenodd"/>
</svg>
