<svg xmlns="http://www.w3.org/2000/svg" xmlns:xlink="http://www.w3.org/1999/xlink" width="400" zoomAndPan="magnify" viewBox="0 0 300 299.999988" height="400" preserveAspectRatio="xMidYMid meet" version="1.0"><defs><g/><clipPath id="5d7e467dcd"><path d="M 93 64.734375 L 186 64.734375 L 186 122 L 93 122 Z M 93 64.734375 " clip-rule="nonzero"/></clipPath><clipPath id="5dabcfc661"><path d="M 92.699219 64.734375 L 186 64.734375 L 186 122 L 92.699219 122 Z M 92.699219 64.734375 " clip-rule="nonzero"/></clipPath><clipPath id="6d6b0b49e4"><path d="M 100 101 L 207.449219 101 L 207.449219 185 L 100 185 Z M 100 101 " clip-rule="nonzero"/></clipPath><clipPath id="55da86452a"><path d="M 149 176 L 192 176 L 192 189.234375 L 149 189.234375 Z M 149 176 " clip-rule="nonzero"/></clipPath></defs><g clip-path="url(#5d7e467dcd)"><path fill="#f8f9fd" d="M 185.492188 75.945312 L 98.871094 121.636719 L 93.046875 110.601562 L 179.667969 64.910156 L 185.492188 75.945312 " fill-opacity="1" fill-rule="nonzero"/></g><g clip-path="url(#5dabcfc661)"><path fill="#adb0c6" d="M 185.492188 75.945312 L 185.425781 75.816406 L 98.929688 121.441406 L 93.234375 110.660156 L 179.609375 65.101562 L 185.367188 76.007812 L 185.492188 75.945312 L 185.425781 75.816406 L 185.492188 75.945312 L 185.617188 75.878906 L 179.726562 64.71875 L 92.855469 110.542969 L 98.8125 121.824219 L 185.683594 76.003906 L 185.617188 75.878906 L 185.492188 75.945312 " fill-opacity="1" fill-rule="nonzero"/></g><path fill="#191716" d="M 106.671875 116.804688 L 99.183594 120.753906 L 99.839844 108.039062 L 107.328125 104.089844 L 106.671875 116.804688 " fill-opacity="1" fill-rule="nonzero"/><path fill="#191716" d="M 121.082031 109.203125 L 113.597656 113.152344 L 114.253906 100.4375 L 121.742188 96.488281 L 121.082031 109.203125 " fill-opacity="1" fill-rule="nonzero"/><path fill="#191716" d="M 135.496094 101.601562 L 128.007812 105.550781 L 128.667969 92.832031 L 136.152344 88.882812 L 135.496094 101.601562 " fill-opacity="1" fill-rule="nonzero"/><path fill="#191716" d="M 149.910156 93.996094 L 142.421875 97.945312 L 143.082031 85.230469 L 150.566406 81.28125 L 149.910156 93.996094 " fill-opacity="1" fill-rule="nonzero"/><path fill="#191716" d="M 164.320312 86.394531 L 156.835938 90.34375 L 157.492188 77.628906 L 164.980469 73.679688 L 164.320312 86.394531 " fill-opacity="1" fill-rule="nonzero"/><path fill="#191716" d="M 178.738281 78.792969 L 171.25 82.738281 L 171.90625 70.023438 L 179.394531 66.074219 L 178.738281 78.792969 " fill-opacity="1" fill-rule="nonzero"/><path fill="#191716" d="M 95.121094 112.597656 L 99.855469 130.488281 C 99.855469 130.488281 100.539062 131.839844 101.839844 131.6875 L 120.457031 126.765625 C 120.457031 126.765625 121.605469 125.316406 119.605469 123.546875 L 98.648438 111.664062 C 98.648438 111.664062 95.761719 109.75 95.121094 112.597656 " fill-opacity="1" fill-rule="nonzero"/><path fill="#161413" d="M 95.121094 112.597656 L 94.984375 112.632812 L 99.722656 130.539062 L 99.726562 130.554688 C 99.734375 130.5625 99.890625 130.875 100.207031 131.195312 C 100.519531 131.511719 101 131.839844 101.632812 131.839844 C 101.707031 131.839844 101.78125 131.835938 101.855469 131.828125 L 101.863281 131.824219 L 120.539062 126.890625 L 120.566406 126.855469 C 120.578125 126.839844 120.925781 126.398438 120.925781 125.695312 C 120.925781 125.082031 120.652344 124.28125 119.699219 123.441406 L 119.683594 123.429688 L 98.714844 111.542969 L 98.648438 111.664062 L 98.726562 111.546875 C 98.714844 111.542969 97.757812 110.898438 96.765625 110.894531 C 96.398438 110.890625 96.015625 110.988281 95.695312 111.253906 C 95.375 111.515625 95.121094 111.9375 94.980469 112.566406 L 94.972656 112.601562 L 94.984375 112.632812 L 95.121094 112.597656 L 95.257812 112.628906 C 95.390625 112.042969 95.613281 111.683594 95.875 111.46875 C 96.136719 111.253906 96.441406 111.175781 96.765625 111.175781 C 97.199219 111.175781 97.65625 111.324219 97.996094 111.476562 C 98.171875 111.554688 98.3125 111.632812 98.414062 111.6875 C 98.464844 111.71875 98.503906 111.742188 98.53125 111.757812 L 98.570312 111.78125 L 98.574219 111.785156 L 119.535156 123.667969 L 119.605469 123.546875 L 119.511719 123.652344 C 120.417969 124.457031 120.640625 125.167969 120.644531 125.695312 C 120.644531 126 120.566406 126.25 120.492188 126.421875 C 120.453125 126.503906 120.414062 126.574219 120.386719 126.617188 L 120.347656 126.675781 L 120.347656 126.679688 L 120.457031 126.765625 L 120.421875 126.628906 L 101.800781 131.550781 L 101.839844 131.6875 L 101.824219 131.546875 C 101.757812 131.554688 101.695312 131.558594 101.632812 131.558594 C 101.101562 131.558594 100.691406 131.28125 100.40625 130.996094 C 100.265625 130.851562 100.160156 130.707031 100.085938 130.601562 C 100.050781 130.546875 100.023438 130.503906 100.007812 130.472656 L 99.984375 130.4375 L 99.980469 130.425781 L 99.855469 130.488281 L 99.992188 130.453125 L 95.257812 112.5625 L 95.121094 112.597656 L 95.257812 112.628906 L 95.121094 112.597656 " fill-opacity="1" fill-rule="nonzero"/><path fill="#999697" d="M 118.578125 124.726562 C 118.726562 125.292969 118.386719 125.878906 117.820312 126.03125 C 117.25 126.179688 116.664062 125.839844 116.515625 125.273438 C 116.367188 124.703125 116.707031 124.121094 117.273438 123.96875 C 117.839844 123.820312 118.425781 124.160156 118.578125 124.726562 " fill-opacity="1" fill-rule="nonzero"/><path fill="#515d65" d="M 118.578125 124.726562 L 118.441406 124.765625 C 118.460938 124.839844 118.46875 124.921875 118.46875 124.996094 C 118.46875 125.40625 118.195312 125.785156 117.785156 125.890625 C 117.703125 125.914062 117.625 125.921875 117.546875 125.921875 C 117.136719 125.921875 116.761719 125.648438 116.652344 125.234375 C 116.632812 125.15625 116.621094 125.078125 116.621094 124.996094 C 116.621094 124.589844 116.894531 124.214844 117.308594 124.105469 C 117.390625 124.085938 117.46875 124.074219 117.546875 124.074219 C 117.953125 124.074219 118.328125 124.347656 118.441406 124.765625 L 118.578125 124.726562 L 118.710938 124.691406 C 118.570312 124.148438 118.078125 123.792969 117.546875 123.792969 C 117.445312 123.792969 117.339844 123.808594 117.238281 123.835938 C 116.695312 123.976562 116.339844 124.464844 116.339844 124.996094 C 116.339844 125.101562 116.351562 125.203125 116.378906 125.308594 C 116.523438 125.847656 117.007812 126.207031 117.546875 126.207031 C 117.648438 126.207031 117.753906 126.191406 117.855469 126.164062 C 118.394531 126.023438 118.753906 125.53125 118.753906 124.996094 C 118.753906 124.898438 118.738281 124.796875 118.710938 124.691406 L 118.578125 124.726562 " fill-opacity="1" fill-rule="nonzero"/><path fill="#999697" d="M 103 128.84375 C 103.152344 129.414062 102.8125 129.992188 102.246094 130.144531 C 101.675781 130.296875 101.09375 129.957031 100.941406 129.386719 C 100.792969 128.820312 101.132812 128.238281 101.699219 128.085938 C 102.269531 127.9375 102.851562 128.273438 103 128.84375 " fill-opacity="1" fill-rule="nonzero"/><path fill="#515d65" d="M 103 128.84375 L 102.863281 128.878906 C 102.886719 128.960938 102.894531 129.039062 102.894531 129.117188 C 102.894531 129.523438 102.621094 129.898438 102.207031 130.007812 C 102.128906 130.03125 102.050781 130.039062 101.972656 130.039062 C 101.5625 130.039062 101.1875 129.765625 101.078125 129.351562 C 101.058594 129.273438 101.050781 129.195312 101.050781 129.117188 C 101.050781 128.707031 101.324219 128.332031 101.734375 128.222656 C 101.816406 128.203125 101.894531 128.195312 101.972656 128.195312 C 102.378906 128.195312 102.753906 128.464844 102.863281 128.878906 L 103.136719 128.808594 C 102.996094 128.265625 102.507812 127.910156 101.972656 127.910156 C 101.871094 127.910156 101.765625 127.921875 101.664062 127.949219 C 101.125 128.09375 100.765625 128.582031 100.765625 129.117188 C 100.765625 129.21875 100.78125 129.320312 100.804688 129.425781 C 100.949219 129.964844 101.4375 130.324219 101.972656 130.324219 C 102.074219 130.324219 102.175781 130.308594 102.28125 130.28125 C 102.820312 130.136719 103.175781 129.652344 103.175781 129.117188 C 103.175781 129.015625 103.164062 128.910156 103.136719 128.808594 L 103 128.84375 " fill-opacity="1" fill-rule="nonzero"/><path fill="#999697" d="M 99.023438 113.816406 C 99.175781 114.382812 98.835938 114.964844 98.269531 115.117188 C 97.699219 115.265625 97.117188 114.925781 96.96875 114.359375 C 96.816406 113.792969 97.15625 113.207031 97.722656 113.058594 C 98.292969 112.90625 98.875 113.246094 99.023438 113.816406 " fill-opacity="1" fill-rule="nonzero"/><path fill="#515d65" d="M 99.023438 113.816406 L 98.886719 113.851562 C 98.910156 113.929688 98.917969 114.007812 98.917969 114.085938 C 98.917969 114.496094 98.644531 114.871094 98.230469 114.980469 C 98.152344 115 98.074219 115.011719 97.996094 115.011719 C 97.585938 115.011719 97.210938 114.738281 97.105469 114.324219 C 97.082031 114.242188 97.070312 114.164062 97.070312 114.085938 C 97.070312 113.675781 97.347656 113.304688 97.757812 113.195312 C 97.839844 113.171875 97.917969 113.164062 97.996094 113.164062 C 98.40625 113.164062 98.777344 113.4375 98.886719 113.851562 L 99.023438 113.816406 L 99.160156 113.777344 C 99.019531 113.238281 98.53125 112.882812 97.996094 112.882812 C 97.894531 112.882812 97.789062 112.894531 97.6875 112.921875 C 97.148438 113.0625 96.789062 113.550781 96.789062 114.085938 C 96.789062 114.1875 96.804688 114.292969 96.832031 114.394531 C 96.972656 114.933594 97.460938 115.292969 97.996094 115.292969 C 98.097656 115.292969 98.199219 115.277344 98.304688 115.253906 C 98.84375 115.109375 99.203125 114.621094 99.199219 114.085938 C 99.199219 113.988281 99.1875 113.882812 99.160156 113.777344 L 99.023438 113.816406 " fill-opacity="1" fill-rule="nonzero"/><path fill="#181719" d="M 206.84375 158.242188 C 207.25 159.777344 206.335938 161.351562 204.800781 161.753906 L 118.78125 184.496094 C 117.246094 184.902344 115.671875 183.984375 115.265625 182.449219 L 100.824219 127.867188 C 100.417969 126.332031 101.332031 124.757812 102.867188 124.351562 L 188.886719 101.613281 C 190.421875 101.207031 191.996094 102.121094 192.402344 103.65625 L 206.84375 158.242188 " fill-opacity="1" fill-rule="nonzero"/><g clip-path="url(#6d6b0b49e4)"><path fill="#131211" d="M 206.84375 158.242188 L 206.707031 158.277344 C 206.769531 158.511719 206.800781 158.746094 206.800781 158.976562 C 206.800781 160.1875 205.988281 161.296875 204.765625 161.617188 L 118.746094 184.359375 C 118.511719 184.417969 118.277344 184.449219 118.042969 184.449219 C 116.835938 184.449219 115.726562 183.636719 115.402344 182.414062 L 100.960938 127.828125 C 100.898438 127.59375 100.867188 127.359375 100.867188 127.128906 C 100.867188 125.921875 101.675781 124.8125 102.902344 124.488281 L 188.921875 101.75 C 189.15625 101.6875 189.390625 101.65625 189.621094 101.65625 C 190.832031 101.65625 191.941406 102.46875 192.265625 103.691406 L 206.707031 158.277344 L 206.980469 158.207031 L 192.539062 103.621094 C 192.179688 102.269531 190.957031 101.375 189.621094 101.375 C 189.367188 101.375 189.105469 101.410156 188.847656 101.476562 L 102.832031 124.214844 C 101.476562 124.574219 100.585938 125.792969 100.585938 127.128906 C 100.585938 127.382812 100.617188 127.644531 100.6875 127.902344 L 115.128906 182.484375 C 115.488281 183.835938 116.707031 184.730469 118.042969 184.730469 C 118.300781 184.730469 118.558594 184.699219 118.816406 184.628906 L 204.835938 161.890625 C 206.1875 161.535156 207.082031 160.3125 207.082031 158.976562 C 207.082031 158.722656 207.050781 158.464844 206.980469 158.207031 L 206.84375 158.242188 " fill-opacity="1" fill-rule="nonzero"/></g><path fill="#f8f9fd" d="M 195.339844 108.488281 L 100.652344 133.519531 L 97.460938 121.457031 L 192.152344 96.425781 L 195.339844 108.488281 " fill-opacity="1" fill-rule="nonzero"/><path fill="#adb0c6" d="M 195.339844 108.488281 L 195.304688 108.351562 L 100.753906 133.34375 L 97.636719 121.558594 L 192.050781 96.597656 L 195.207031 108.523438 L 195.339844 108.488281 L 195.304688 108.351562 L 195.339844 108.488281 L 195.476562 108.449219 L 192.25 96.253906 L 97.289062 121.355469 L 100.554688 133.691406 L 195.515625 108.585938 L 195.476562 108.449219 L 195.339844 108.488281 " fill-opacity="1" fill-rule="nonzero"/><path fill="#191716" d="M 109.339844 130.566406 L 101.15625 132.730469 L 104.660156 120.488281 L 112.84375 118.324219 L 109.339844 130.566406 " fill-opacity="1" fill-rule="nonzero"/><path fill="#191716" d="M 125.09375 126.402344 L 116.914062 128.5625 L 120.417969 116.324219 L 128.601562 114.160156 L 125.09375 126.402344 " fill-opacity="1" fill-rule="nonzero"/><path fill="#191716" d="M 140.851562 122.238281 L 132.667969 124.398438 L 136.171875 112.160156 L 144.351562 109.992188 L 140.851562 122.238281 " fill-opacity="1" fill-rule="nonzero"/><path fill="#191716" d="M 156.605469 118.070312 L 148.425781 120.234375 L 151.929688 107.992188 L 160.109375 105.832031 L 156.605469 118.070312 " fill-opacity="1" fill-rule="nonzero"/><path fill="#191716" d="M 172.363281 113.90625 L 164.179688 116.070312 L 167.683594 103.828125 L 175.863281 101.664062 L 172.363281 113.90625 " fill-opacity="1" fill-rule="nonzero"/><path fill="#191716" d="M 188.117188 109.742188 L 179.933594 111.902344 L 183.4375 99.664062 L 191.621094 97.5 L 188.117188 109.742188 " fill-opacity="1" fill-rule="nonzero"/><path fill="#ffffff" d="M 110.148438 140.648438 L 190.164062 119.496094 L 189.949219 118.675781 L 109.929688 139.832031 " fill-opacity="1" fill-rule="nonzero"/><path fill="#ffffff" d="M 114.835938 158.363281 L 194.851562 137.210938 L 194.636719 136.390625 L 114.617188 157.542969 " fill-opacity="1" fill-rule="nonzero"/><path fill="#ffffff" d="M 118.574219 172.496094 L 198.59375 151.34375 L 198.375 150.527344 L 118.359375 171.679688 " fill-opacity="1" fill-rule="nonzero"/><path fill="#ffffff" d="M 132.753906 153.1875 L 136.492188 167.324219 L 137.3125 167.105469 L 133.574219 152.972656 " fill-opacity="1" fill-rule="nonzero"/><path fill="#ffffff" d="M 174.285156 142.207031 L 178.023438 156.34375 L 178.84375 156.128906 L 175.105469 141.992188 " fill-opacity="1" fill-rule="nonzero"/><g clip-path="url(#55da86452a)"><path fill="#c62436" d="M 191.160156 183.011719 C 191.160156 179.582031 181.820312 176.804688 170.300781 176.804688 C 158.78125 176.804688 149.441406 179.582031 149.441406 183.011719 C 149.441406 186.4375 158.78125 189.214844 170.300781 189.214844 C 181.820312 189.214844 191.160156 186.4375 191.160156 183.011719 " fill-opacity="1" fill-rule="nonzero"/></g><path fill="#e6e8b0" d="M 194.972656 129.8125 L 145.386719 129.8125 L 149.441406 182.304688 L 190.921875 182.304688 L 194.972656 129.8125 " fill-opacity="1" fill-rule="nonzero"/><path fill="#c62436" d="M 165.25 130.5625 L 159.175781 130.5625 L 160.503906 183.054688 L 165.25 183.054688 L 165.25 130.5625 " fill-opacity="1" fill-rule="nonzero"/><path fill="#c62436" d="M 174.863281 130.5625 L 181.425781 130.5625 L 180.097656 183.054688 L 174.863281 183.054688 L 174.863281 130.5625 " fill-opacity="1" fill-rule="nonzero"/><path fill="#c62436" d="M 152.492188 130.5625 L 145.386719 130.5625 L 149.441406 183.054688 L 154.703125 183.054688 L 152.492188 130.5625 " fill-opacity="1" fill-rule="nonzero"/><path fill="#c62436" d="M 188.277344 130.5625 L 195.214844 130.5625 L 191.160156 183.054688 L 186.066406 183.054688 L 188.277344 130.5625 " fill-opacity="1" fill-rule="nonzero"/><path fill="#c62436" d="M 183.488281 155.53125 C 183.488281 148.175781 177.523438 142.214844 170.160156 142.214844 C 162.800781 142.214844 156.835938 148.175781 156.835938 155.53125 C 156.835938 162.886719 162.800781 168.851562 170.160156 168.851562 C 177.523438 168.851562 183.488281 162.886719 183.488281 155.53125 " fill-opacity="1" fill-rule="nonzero"/><path fill="#e6e8b0" d="M 180.109375 155.53125 C 180.109375 150.042969 175.652344 145.589844 170.160156 145.589844 C 164.667969 145.589844 160.214844 150.042969 160.214844 155.53125 C 160.214844 161.023438 164.667969 165.472656 170.160156 165.472656 C 175.652344 165.472656 180.109375 161.023438 180.109375 155.53125 " fill-opacity="1" fill-rule="nonzero"/><path fill="#c62436" d="M 191.160156 180.019531 C 186.972656 181.546875 181.820312 183.054688 170.300781 183.054688 C 158.78125 183.054688 154.144531 181.546875 149.441406 180.019531 C 149.441406 180.507812 149.09375 183.007812 150.042969 183.4375 C 153.109375 184.820312 161.503906 184.929688 170.300781 184.929688 C 178.53125 184.929688 186.5625 184.992188 189.957031 183.75 C 191.316406 183.25 191.160156 180.613281 191.160156 180.019531 " fill-opacity="1" fill-rule="nonzero"/><path fill="#efb11c" d="M 194.472656 185.703125 C 194.925781 185.082031 195.136719 184.265625 194.957031 183.527344 C 195.332031 183.292969 195.65625 182.960938 195.863281 182.542969 C 196.457031 181.34375 195.945312 179.847656 194.746094 179.257812 L 194.5625 179.164062 C 194.4375 179.105469 194.3125 179.0625 194.183594 179.027344 C 194.160156 178.253906 193.773438 177.5 192.867188 177.054688 C 190.96875 176.117188 189.371094 177.777344 189.367188 179.394531 C 188.265625 179.097656 187.042969 179.617188 186.519531 180.671875 L 186.449219 180.816406 C 185.984375 181.757812 186.203125 182.871094 186.890625 183.59375 C 186.691406 183.785156 186.519531 184 186.394531 184.257812 C 185.800781 185.457031 186.308594 186.949219 187.507812 187.542969 L 187.800781 187.6875 C 188.613281 188.082031 189.546875 187.976562 190.257812 187.5 C 190.421875 187.648438 190.597656 187.785156 190.804688 187.886719 L 190.949219 187.960938 C 192.148438 188.550781 193.644531 188.046875 194.238281 186.84375 C 194.417969 186.480469 194.484375 186.085938 194.472656 185.703125 " fill-opacity="1" fill-rule="nonzero"/><path fill="#c62436" d="M 164.242188 151.925781 C 164.246094 152.148438 164.292969 152.355469 164.378906 152.542969 C 164.464844 152.730469 164.574219 152.894531 164.710938 153.03125 C 164.847656 153.167969 165.007812 153.277344 165.191406 153.351562 C 165.375 153.429688 165.570312 153.46875 165.773438 153.46875 C 165.984375 153.46875 166.1875 153.425781 166.375 153.347656 C 166.5625 153.269531 166.726562 153.15625 166.867188 153.015625 C 167.007812 152.878906 167.117188 152.714844 167.195312 152.523438 C 167.277344 152.335938 167.316406 152.136719 167.316406 151.925781 C 167.316406 151.714844 167.277344 151.515625 167.195312 151.332031 C 167.117188 151.144531 167.007812 150.980469 166.867188 150.84375 C 166.726562 150.703125 166.5625 150.59375 166.375 150.511719 C 166.1875 150.433594 165.984375 150.394531 165.773438 150.394531 C 165.570312 150.394531 165.375 150.433594 165.191406 150.507812 C 165.007812 150.585938 164.847656 150.691406 164.710938 150.820312 C 164.574219 150.953125 164.464844 151.109375 164.378906 151.289062 C 164.292969 151.46875 164.246094 151.660156 164.242188 151.867188 Z M 163.710938 150.109375 C 163.710938 150.035156 163.734375 149.972656 163.785156 149.921875 C 163.835938 149.871094 163.902344 149.84375 163.972656 149.84375 C 164.050781 149.84375 164.113281 149.871094 164.164062 149.921875 C 164.214844 149.972656 164.242188 150.035156 164.242188 150.109375 L 164.242188 150.539062 C 164.429688 150.328125 164.65625 150.164062 164.917969 150.046875 C 165.179688 149.929688 165.464844 149.871094 165.773438 149.871094 C 166.066406 149.871094 166.335938 149.925781 166.589844 150.035156 C 166.839844 150.140625 167.058594 150.289062 167.242188 150.476562 C 167.429688 150.667969 167.574219 150.886719 167.683594 151.132812 C 167.792969 151.382812 167.847656 151.644531 167.847656 151.925781 C 167.847656 152.210938 167.792969 152.480469 167.679688 152.730469 C 167.566406 152.980469 167.417969 153.203125 167.230469 153.390625 C 167.042969 153.578125 166.824219 153.730469 166.574219 153.839844 C 166.328125 153.953125 166.066406 154.007812 165.792969 154.007812 C 165.46875 153.996094 165.179688 153.914062 164.917969 153.761719 C 164.65625 153.613281 164.429688 153.433594 164.242188 153.226562 L 164.242188 155.292969 C 164.242188 155.367188 164.214844 155.429688 164.164062 155.480469 C 164.113281 155.53125 164.050781 155.554688 163.972656 155.554688 C 163.902344 155.554688 163.835938 155.53125 163.785156 155.480469 C 163.734375 155.429688 163.710938 155.367188 163.710938 155.292969 L 163.710938 150.109375 " fill-opacity="1" fill-rule="nonzero"/><path fill="#c62436" d="M 168.6875 151.941406 C 168.6875 152.15625 168.726562 152.351562 168.808594 152.539062 C 168.886719 152.722656 168.996094 152.886719 169.136719 153.027344 C 169.277344 153.167969 169.441406 153.277344 169.625 153.355469 C 169.808594 153.433594 170.007812 153.476562 170.222656 153.476562 C 170.429688 153.476562 170.632812 153.433594 170.820312 153.355469 C 171.007812 153.277344 171.171875 153.167969 171.3125 153.027344 C 171.453125 152.886719 171.5625 152.722656 171.644531 152.539062 C 171.722656 152.351562 171.761719 152.15625 171.761719 151.941406 C 171.761719 151.730469 171.722656 151.53125 171.644531 151.34375 C 171.5625 151.15625 171.453125 150.992188 171.3125 150.851562 C 171.171875 150.710938 171.007812 150.601562 170.820312 150.519531 C 170.632812 150.441406 170.429688 150.402344 170.222656 150.402344 C 170.007812 150.402344 169.808594 150.441406 169.625 150.519531 C 169.441406 150.601562 169.277344 150.710938 169.136719 150.851562 C 168.996094 150.992188 168.886719 151.15625 168.808594 151.34375 C 168.726562 151.53125 168.6875 151.730469 168.6875 151.941406 Z M 170.238281 149.863281 C 170.511719 149.863281 170.773438 149.917969 171.023438 150.027344 C 171.269531 150.140625 171.488281 150.289062 171.675781 150.476562 C 171.863281 150.667969 172.015625 150.886719 172.125 151.136719 C 172.238281 151.390625 172.292969 151.660156 172.292969 151.941406 C 172.292969 152.222656 172.238281 152.488281 172.132812 152.734375 C 172.023438 152.984375 171.875 153.203125 171.691406 153.390625 C 171.503906 153.578125 171.285156 153.726562 171.035156 153.835938 C 170.78125 153.945312 170.511719 153.996094 170.222656 153.996094 C 169.933594 153.996094 169.667969 153.945312 169.417969 153.84375 C 169.171875 153.742188 168.953125 153.597656 168.765625 153.414062 C 168.574219 153.234375 168.429688 153.015625 168.320312 152.765625 C 168.210938 152.515625 168.15625 152.238281 168.15625 151.941406 C 168.15625 151.660156 168.207031 151.390625 168.3125 151.140625 C 168.421875 150.894531 168.566406 150.679688 168.75 150.492188 C 168.9375 150.304688 169.15625 150.160156 169.410156 150.046875 C 169.664062 149.933594 169.941406 149.875 170.238281 149.863281 " fill-opacity="1" fill-rule="nonzero"/><path fill="#c62436" d="M 173.132812 151.925781 C 173.140625 152.148438 173.183594 152.355469 173.269531 152.542969 C 173.355469 152.730469 173.46875 152.894531 173.605469 153.03125 C 173.742188 153.167969 173.902344 153.277344 174.082031 153.351562 C 174.265625 153.429688 174.460938 153.46875 174.667969 153.46875 C 174.878906 153.46875 175.078125 153.425781 175.265625 153.347656 C 175.457031 153.269531 175.617188 153.15625 175.761719 153.015625 C 175.898438 152.878906 176.007812 152.714844 176.089844 152.523438 C 176.167969 152.335938 176.210938 152.136719 176.210938 151.925781 C 176.210938 151.714844 176.167969 151.515625 176.089844 151.332031 C 176.007812 151.144531 175.898438 150.980469 175.761719 150.84375 C 175.617188 150.703125 175.457031 150.59375 175.265625 150.511719 C 175.078125 150.433594 174.878906 150.394531 174.667969 150.394531 C 174.460938 150.394531 174.265625 150.433594 174.082031 150.507812 C 173.902344 150.585938 173.742188 150.691406 173.605469 150.820312 C 173.46875 150.953125 173.355469 151.109375 173.269531 151.289062 C 173.183594 151.46875 173.140625 151.660156 173.132812 151.867188 Z M 172.601562 150.109375 C 172.601562 150.035156 172.628906 149.972656 172.679688 149.921875 C 172.730469 149.871094 172.792969 149.84375 172.867188 149.84375 C 172.941406 149.84375 173.003906 149.871094 173.058594 149.921875 C 173.105469 149.972656 173.132812 150.035156 173.132812 150.109375 L 173.132812 150.539062 C 173.320312 150.328125 173.546875 150.164062 173.808594 150.046875 C 174.074219 149.929688 174.359375 149.871094 174.667969 149.871094 C 174.957031 149.871094 175.230469 149.925781 175.480469 150.035156 C 175.734375 150.140625 175.949219 150.289062 176.136719 150.476562 C 176.320312 150.667969 176.46875 150.886719 176.578125 151.132812 C 176.6875 151.382812 176.738281 151.644531 176.738281 151.925781 C 176.738281 152.210938 176.683594 152.480469 176.574219 152.730469 C 176.460938 152.980469 176.3125 153.203125 176.121094 153.390625 C 175.933594 153.578125 175.714844 153.730469 175.46875 153.839844 C 175.21875 153.953125 174.957031 154.007812 174.683594 154.007812 C 174.363281 153.996094 174.074219 153.914062 173.808594 153.761719 C 173.546875 153.613281 173.320312 153.433594 173.132812 153.226562 L 173.132812 155.292969 C 173.132812 155.367188 173.105469 155.429688 173.058594 155.480469 C 173.003906 155.53125 172.941406 155.554688 172.867188 155.554688 C 172.792969 155.554688 172.730469 155.53125 172.679688 155.480469 C 172.628906 155.429688 172.601562 155.367188 172.601562 155.292969 L 172.601562 150.109375 " fill-opacity="1" fill-rule="nonzero"/><path fill="#c62436" d="M 166.371094 157.175781 C 166.226562 157.050781 166.0625 156.949219 165.882812 156.871094 C 165.699219 156.792969 165.5 156.753906 165.289062 156.753906 C 165.078125 156.753906 164.878906 156.796875 164.695312 156.875 C 164.507812 156.957031 164.347656 157.066406 164.207031 157.207031 C 164.066406 157.34375 163.957031 157.511719 163.875 157.699219 C 163.796875 157.886719 163.757812 158.085938 163.757812 158.296875 C 163.757812 158.507812 163.796875 158.707031 163.875 158.890625 C 163.957031 159.078125 164.066406 159.242188 164.207031 159.378906 C 164.347656 159.519531 164.507812 159.628906 164.695312 159.710938 C 164.878906 159.789062 165.078125 159.828125 165.289062 159.828125 C 165.5 159.828125 165.699219 159.792969 165.882812 159.714844 C 166.0625 159.636719 166.226562 159.53125 166.371094 159.394531 C 166.421875 159.34375 166.484375 159.316406 166.558594 159.316406 C 166.632812 159.316406 166.695312 159.34375 166.746094 159.394531 C 166.796875 159.445312 166.824219 159.507812 166.820312 159.585938 C 166.816406 159.664062 166.785156 159.734375 166.722656 159.796875 C 166.671875 159.847656 166.597656 159.90625 166.511719 159.972656 C 166.421875 160.035156 166.316406 160.097656 166.195312 160.15625 C 166.070312 160.210938 165.933594 160.261719 165.78125 160.296875 C 165.628906 160.332031 165.46875 160.351562 165.289062 160.351562 C 165.003906 160.351562 164.738281 160.300781 164.488281 160.199219 C 164.242188 160.09375 164.023438 159.953125 163.835938 159.769531 C 163.644531 159.589844 163.496094 159.371094 163.386719 159.121094 C 163.277344 158.867188 163.226562 158.59375 163.226562 158.296875 C 163.226562 158.011719 163.277344 157.746094 163.382812 157.496094 C 163.488281 157.25 163.636719 157.03125 163.820312 156.847656 C 164.007812 156.660156 164.226562 156.511719 164.480469 156.398438 C 164.734375 156.289062 165.011719 156.226562 165.308594 156.214844 C 165.476562 156.214844 165.636719 156.238281 165.78125 156.28125 C 165.929688 156.324219 166.058594 156.375 166.175781 156.433594 C 166.292969 156.492188 166.398438 156.558594 166.488281 156.628906 C 166.582031 156.695312 166.65625 156.753906 166.710938 156.808594 C 166.746094 156.835938 166.777344 156.890625 166.800781 156.964844 C 166.828125 157.042969 166.808594 157.113281 166.746094 157.175781 C 166.695312 157.226562 166.632812 157.25 166.558594 157.25 C 166.484375 157.25 166.421875 157.226562 166.371094 157.175781 " fill-opacity="1" fill-rule="nonzero"/><path fill="#c62436" d="M 167.5 158.289062 C 167.5 158.5 167.539062 158.699219 167.621094 158.882812 C 167.699219 159.070312 167.8125 159.230469 167.949219 159.371094 C 168.089844 159.511719 168.253906 159.621094 168.4375 159.703125 C 168.625 159.78125 168.824219 159.820312 169.035156 159.820312 C 169.246094 159.820312 169.445312 159.78125 169.632812 159.703125 C 169.824219 159.621094 169.988281 159.511719 170.128906 159.371094 C 170.265625 159.230469 170.375 159.070312 170.457031 158.882812 C 170.535156 158.699219 170.574219 158.5 170.574219 158.289062 C 170.574219 158.078125 170.535156 157.878906 170.457031 157.691406 C 170.375 157.5 170.265625 157.335938 170.128906 157.195312 C 169.988281 157.054688 169.824219 156.949219 169.632812 156.867188 C 169.445312 156.789062 169.246094 156.746094 169.035156 156.746094 C 168.824219 156.746094 168.625 156.789062 168.4375 156.867188 C 168.253906 156.949219 168.089844 157.054688 167.949219 157.195312 C 167.8125 157.335938 167.699219 157.5 167.621094 157.691406 C 167.539062 157.878906 167.5 158.078125 167.5 158.289062 Z M 169.050781 156.207031 C 169.324219 156.207031 169.585938 156.261719 169.835938 156.375 C 170.085938 156.488281 170.300781 156.636719 170.492188 156.824219 C 170.679688 157.011719 170.828125 157.230469 170.941406 157.484375 C 171.054688 157.734375 171.109375 158.003906 171.109375 158.289062 C 171.109375 158.566406 171.054688 158.832031 170.945312 159.082031 C 170.835938 159.328125 170.691406 159.546875 170.503906 159.734375 C 170.316406 159.925781 170.097656 160.074219 169.847656 160.179688 C 169.597656 160.289062 169.324219 160.34375 169.035156 160.34375 C 168.75 160.34375 168.480469 160.292969 168.234375 160.1875 C 167.984375 160.085938 167.765625 159.945312 167.578125 159.761719 C 167.390625 159.578125 167.242188 159.363281 167.132812 159.109375 C 167.023438 158.859375 166.96875 158.585938 166.96875 158.289062 C 166.96875 158.003906 167.023438 157.734375 167.128906 157.488281 C 167.234375 157.238281 167.378906 157.023438 167.566406 156.835938 C 167.75 156.652344 167.972656 156.503906 168.226562 156.390625 C 168.480469 156.28125 168.753906 156.21875 169.050781 156.207031 " fill-opacity="1" fill-rule="nonzero"/><path fill="#c62436" d="M 171.398438 156.457031 C 171.398438 156.382812 171.425781 156.320312 171.476562 156.269531 C 171.527344 156.214844 171.589844 156.191406 171.664062 156.191406 C 171.738281 156.191406 171.800781 156.214844 171.851562 156.269531 C 171.90625 156.320312 171.929688 156.382812 171.929688 156.457031 L 171.929688 156.875 C 172.113281 156.671875 172.332031 156.507812 172.589844 156.382812 C 172.847656 156.261719 173.125 156.195312 173.429688 156.191406 C 173.519531 156.191406 173.59375 156.214844 173.648438 156.269531 C 173.703125 156.320312 173.730469 156.382812 173.730469 156.457031 C 173.730469 156.53125 173.703125 156.59375 173.648438 156.644531 C 173.59375 156.695312 173.519531 156.722656 173.429688 156.722656 C 173.222656 156.726562 173.03125 156.769531 172.855469 156.851562 C 172.679688 156.929688 172.523438 157.035156 172.386719 157.167969 C 172.253906 157.296875 172.144531 157.453125 172.0625 157.628906 C 171.980469 157.808594 171.9375 157.996094 171.929688 158.195312 L 171.929688 160.085938 C 171.929688 160.160156 171.90625 160.222656 171.851562 160.273438 C 171.800781 160.324219 171.738281 160.351562 171.664062 160.351562 C 171.589844 160.351562 171.527344 160.324219 171.476562 160.273438 C 171.425781 160.222656 171.398438 160.160156 171.398438 160.085938 L 171.398438 156.457031 " fill-opacity="1" fill-rule="nonzero"/><path fill="#c62436" d="M 176.890625 160.351562 C 176.816406 160.351562 176.753906 160.324219 176.703125 160.273438 C 176.652344 160.222656 176.625 160.160156 176.625 160.085938 L 176.625 157.730469 C 176.625 157.59375 176.597656 157.464844 176.542969 157.34375 C 176.488281 157.21875 176.417969 157.113281 176.324219 157.019531 C 176.234375 156.929688 176.125 156.859375 176.003906 156.808594 C 175.882812 156.753906 175.75 156.730469 175.613281 156.730469 C 175.476562 156.730469 175.347656 156.753906 175.226562 156.808594 C 175.109375 156.859375 175.003906 156.925781 174.910156 157.011719 C 174.820312 157.097656 174.75 157.199219 174.699219 157.316406 C 174.648438 157.433594 174.617188 157.558594 174.613281 157.691406 L 174.613281 160.085938 C 174.613281 160.160156 174.585938 160.222656 174.535156 160.273438 C 174.484375 160.324219 174.421875 160.351562 174.347656 160.351562 C 174.273438 160.351562 174.207031 160.324219 174.15625 160.273438 C 174.105469 160.222656 174.082031 160.160156 174.082031 160.085938 L 174.082031 156.457031 C 174.082031 156.382812 174.105469 156.320312 174.15625 156.269531 C 174.207031 156.214844 174.273438 156.191406 174.347656 156.191406 C 174.421875 156.191406 174.484375 156.214844 174.535156 156.269531 C 174.585938 156.320312 174.613281 156.382812 174.613281 156.457031 L 174.613281 156.566406 C 174.742188 156.453125 174.894531 156.363281 175.066406 156.292969 C 175.238281 156.226562 175.421875 156.191406 175.613281 156.191406 C 175.828125 156.191406 176.027344 156.230469 176.214844 156.3125 C 176.402344 156.390625 176.566406 156.5 176.707031 156.640625 C 176.847656 156.78125 176.957031 156.945312 177.035156 157.132812 C 177.117188 157.320312 177.15625 157.519531 177.15625 157.730469 L 177.15625 160.085938 C 177.15625 160.160156 177.128906 160.222656 177.078125 160.273438 C 177.027344 160.324219 176.964844 160.351562 176.890625 160.351562 " fill-opacity="1" fill-rule="nonzero"/><path fill="#c62436" d="M 195.503906 129.8125 C 195.503906 126.386719 184.339844 123.609375 170.566406 123.609375 C 156.792969 123.609375 145.628906 126.386719 145.628906 129.8125 C 145.628906 133.242188 156.792969 136.019531 170.566406 136.019531 C 184.339844 136.019531 195.503906 133.242188 195.503906 129.8125 " fill-opacity="1" fill-rule="nonzero"/><path fill="#b8822a" d="M 183.085938 115.8125 C 183.257812 115.480469 183.363281 115.109375 183.363281 114.714844 C 183.363281 114.136719 183.144531 113.605469 182.796875 113.1875 C 183.308594 111.746094 182.570312 109.808594 180.582031 109.808594 C 179.761719 109.808594 179.15625 110.140625 178.761719 110.628906 C 178.515625 110.632812 178.292969 110.664062 178.082031 110.71875 C 177.691406 110.269531 177.105469 109.972656 176.328125 109.972656 C 173.714844 109.972656 173.257812 113.3125 174.957031 114.480469 C 174.316406 115.429688 174.410156 116.757812 175.246094 117.59375 C 175.300781 117.652344 175.355469 117.703125 175.410156 117.757812 C 176.324219 118.671875 177.824219 118.695312 178.78125 117.839844 C 179.015625 118.808594 179.78125 119.621094 181.070312 119.621094 C 183.269531 119.621094 183.941406 117.257812 183.085938 115.8125 " fill-opacity="1" fill-rule="nonzero"/><path fill="#d29430" d="M 166.238281 112.867188 C 166.015625 112.867188 165.808594 112.894531 165.617188 112.9375 C 166.496094 111.496094 165.832031 109.105469 163.621094 109.105469 C 161.707031 109.105469 160.953125 110.894531 161.351562 112.3125 C 161.136719 112.246094 160.910156 112.210938 160.675781 112.210938 C 159.964844 112.210938 159.324219 112.53125 158.875 113.027344 C 158.378906 113.476562 158.058594 114.113281 158.058594 114.828125 C 158.058594 116.125 159.121094 117.21875 160.410156 117.269531 C 160.71875 117.753906 161.195312 118.121094 161.75 118.300781 C 161.695312 118.496094 161.660156 118.703125 161.660156 118.914062 L 161.660156 119.078125 C 161.660156 120.414062 162.773438 121.53125 164.113281 121.53125 C 165.449219 121.53125 166.566406 120.414062 166.566406 119.078125 L 166.566406 118.914062 C 166.566406 118.5 166.449219 118.113281 166.261719 117.769531 C 169.402344 117.746094 169.398438 112.867188 166.238281 112.867188 " fill-opacity="1" fill-rule="nonzero"/><path fill="#efb11c" d="M 153.289062 124.050781 C 153.558594 122.671875 152.785156 121.050781 150.96875 121.050781 C 150.058594 121.050781 149.410156 121.457031 149.023438 122.035156 C 148.742188 121.773438 148.402344 121.574219 148.019531 121.46875 C 146.710938 121.109375 145.386719 121.902344 145.003906 123.179688 C 144.75 124.015625 144.835938 124.933594 145.199219 125.707031 C 144.875 125.910156 144.597656 126.183594 144.433594 126.519531 C 144.234375 126.921875 144.007812 127.335938 143.917969 127.777344 C 143.722656 128.726562 143.882812 129.65625 144.574219 130.371094 C 145.097656 130.910156 145.769531 131.105469 146.492188 131.152344 L 146.601562 131.15625 C 146.796875 131.195312 147 131.203125 147.195312 131.191406 L 147.203125 131.191406 C 147.515625 131.210938 147.832031 131.140625 148.128906 131.015625 C 148.191406 131.09375 148.25 131.171875 148.320312 131.246094 C 148.898438 131.890625 149.949219 132.136719 150.765625 131.894531 C 151.296875 131.734375 151.644531 131.503906 152.046875 131.128906 C 152.773438 130.453125 152.925781 129.382812 152.585938 128.5 C 154.636719 128 154.867188 125.097656 153.289062 124.050781 " fill-opacity="1" fill-rule="nonzero"/><path fill="#d29430" d="M 156.855469 117.78125 C 156.195312 117.78125 155.671875 118 155.289062 118.335938 C 155.027344 117.824219 154.59375 117.410156 154.066406 117.175781 L 154.003906 117.136719 C 153.4375 116.804688 152.75 116.714844 152.113281 116.886719 C 151.5 117.058594 150.96875 117.46875 150.648438 118.015625 C 150.566406 118.210938 150.484375 118.40625 150.398438 118.601562 C 150.285156 119.039062 150.285156 119.472656 150.398438 119.90625 C 150.449219 120.265625 150.679688 120.683594 150.972656 121.011719 C 148.648438 121.773438 148.917969 125.796875 151.785156 125.796875 C 151.96875 125.796875 152.140625 125.773438 152.304688 125.742188 C 152.4375 126.953125 153.492188 127.921875 154.730469 127.921875 C 155.441406 127.921875 156.082031 127.601562 156.53125 127.105469 C 157.027344 126.65625 157.347656 126.015625 157.347656 125.304688 C 157.347656 125.070312 157.300781 124.847656 157.238281 124.628906 C 157.777344 124.074219 157.996094 123.25 157.894531 122.476562 C 159.972656 121.539062 159.625 117.78125 156.855469 117.78125 " fill-opacity="1" fill-rule="nonzero"/><path fill="#f1c446" d="M 160.882812 123.296875 C 159.976562 123.296875 159.183594 123.8125 158.757812 124.558594 C 158.5 124.390625 158.21875 124.269531 157.910156 124.207031 C 157.535156 123.324219 156.65625 122.6875 155.648438 122.6875 L 155.484375 122.6875 C 154.144531 122.6875 153.027344 123.804688 153.027344 125.140625 C 153.027344 125.824219 153.324219 126.449219 153.789062 126.898438 C 152.792969 127.210938 152.046875 128.140625 152.046875 129.230469 C 152.046875 130.566406 153.164062 131.683594 154.5 131.683594 L 154.667969 131.683594 C 155.171875 131.683594 155.648438 131.519531 156.042969 131.246094 C 156.296875 132.328125 157.277344 133.152344 158.425781 133.152344 C 159.765625 133.152344 160.882812 132.039062 160.882812 130.699219 L 160.882812 130.539062 C 160.882812 130.105469 160.757812 129.699219 160.554688 129.34375 C 161.054688 129.121094 161.460938 128.730469 161.722656 128.25 C 162.65625 127.902344 163.335938 127 163.335938 125.957031 L 163.335938 125.75 C 163.335938 124.414062 162.21875 123.296875 160.882812 123.296875 " fill-opacity="1" fill-rule="nonzero"/><path fill="#f1c446" d="M 184.832031 124.605469 C 183.929688 124.605469 183.132812 125.121094 182.707031 125.863281 C 182.453125 125.699219 182.167969 125.578125 181.863281 125.515625 C 181.488281 124.632812 180.605469 123.996094 179.597656 123.996094 L 179.433594 123.996094 C 178.097656 123.996094 176.980469 125.113281 176.980469 126.449219 C 176.980469 127.132812 177.273438 127.757812 177.738281 128.207031 C 176.742188 128.519531 176 129.449219 176 130.539062 C 176 131.875 177.113281 132.992188 178.453125 132.992188 L 178.617188 132.992188 C 179.125 132.992188 179.597656 132.828125 179.992188 132.554688 C 180.246094 133.636719 181.230469 134.460938 182.378906 134.460938 C 183.714844 134.460938 184.832031 133.347656 184.832031 132.011719 L 184.832031 131.84375 C 184.832031 131.414062 184.710938 131.007812 184.503906 130.652344 C 185.003906 130.429688 185.414062 130.039062 185.675781 129.558594 C 186.605469 129.207031 187.289062 128.308594 187.289062 127.265625 L 187.289062 127.058594 C 187.289062 125.71875 186.171875 124.605469 184.832031 124.605469 " fill-opacity="1" fill-rule="nonzero"/><path fill="#efb11c" d="M 165.433594 118.703125 C 165.324219 117.839844 164.761719 117.101562 163.988281 116.757812 C 164.097656 116.488281 164.152344 116.195312 164.152344 115.890625 C 164.152344 114.554688 163.035156 113.4375 161.699219 113.4375 L 161.398438 113.4375 C 160.132812 113.4375 159.074219 114.441406 158.964844 115.683594 C 158.554688 116.035156 158.257812 116.515625 158.148438 117.0625 C 155.375 117.339844 155.359375 121.628906 158.121094 121.925781 C 156.53125 123.148438 157.007812 126.355469 159.574219 126.355469 C 159.902344 126.355469 160.195312 126.296875 160.457031 126.203125 C 160.792969 126.402344 161.210938 126.519531 161.699219 126.519531 C 163.578125 126.519531 164.339844 124.796875 163.992188 123.390625 C 164.097656 123.40625 164.207031 123.410156 164.316406 123.410156 L 164.480469 123.410156 C 165.820312 123.410156 166.9375 122.296875 166.9375 120.960938 C 166.9375 119.957031 166.308594 119.082031 165.433594 118.703125 " fill-opacity="1" fill-rule="nonzero"/><path fill="#d29430" d="M 165.8125 124.566406 C 165.566406 124.402344 165.289062 124.28125 164.992188 124.226562 C 165.609375 123.496094 165.773438 122.429688 165.324219 121.535156 C 164.726562 120.335938 163.230469 119.839844 162.03125 120.4375 L 161.644531 120.632812 C 160.445312 121.234375 159.949219 122.730469 160.546875 123.925781 L 160.546875 123.929688 C 160.257812 123.953125 159.96875 124.03125 159.691406 124.167969 L 159.546875 124.242188 C 158.351562 124.84375 157.855469 126.339844 158.453125 127.535156 C 158.699219 128.027344 159.105469 128.394531 159.574219 128.621094 C 159.234375 129.296875 159.191406 130.113281 159.550781 130.824219 C 160.222656 132.148438 161.734375 132.648438 163.066406 131.992188 C 163.246094 131.902344 163.402344 131.789062 163.550781 131.660156 C 164.152344 132.636719 165.332031 133.234375 166.648438 132.574219 C 168.203125 131.796875 168.238281 130.128906 167.492188 129.011719 C 169.550781 127.601562 168.078125 124.300781 165.8125 124.566406 " fill-opacity="1" fill-rule="nonzero"/><path fill="#efb11c" d="M 173.65625 123.519531 C 173.792969 122.761719 173.621094 121.941406 173.128906 121.355469 C 173.367188 120.980469 173.511719 120.539062 173.511719 120.070312 C 173.511719 118.734375 172.390625 117.621094 171.054688 117.621094 L 170.84375 117.621094 C 170.710938 117.621094 170.578125 117.636719 170.445312 117.660156 C 170.082031 116.980469 169.402344 116.472656 168.390625 116.472656 C 166.277344 116.472656 165.578125 118.667969 166.289062 120.121094 C 165.167969 120.34375 164.300781 121.347656 164.300781 122.523438 L 164.300781 122.6875 C 164.300781 123.734375 164.988281 124.636719 165.925781 124.984375 C 165.832031 125.238281 165.773438 125.511719 165.773438 125.796875 C 165.773438 127.132812 166.890625 128.25 168.226562 128.25 L 168.554688 128.25 C 169.457031 128.25 170.25 127.738281 170.675781 127 C 170.886719 127.0625 171.105469 127.105469 171.335938 127.105469 L 171.5 127.105469 C 172.839844 127.105469 173.953125 125.988281 173.953125 124.652344 C 173.953125 124.242188 173.839844 123.863281 173.65625 123.519531 " fill-opacity="1" fill-rule="nonzero"/><path fill="#efb11c" d="M 172.121094 114.046875 C 172.242188 113.757812 172.320312 113.441406 172.320312 113.109375 C 172.320312 111.773438 171.203125 110.65625 169.863281 110.65625 L 169.699219 110.65625 C 168.363281 110.65625 167.246094 111.773438 167.246094 113.109375 C 167.246094 113.164062 167.257812 113.21875 167.265625 113.273438 L 167.246094 113.273438 C 165.910156 113.273438 164.792969 114.390625 164.792969 115.726562 C 164.792969 116.828125 165.550781 117.765625 166.5625 118.070312 C 166.765625 119.089844 167.535156 119.976562 168.882812 119.976562 C 169.878906 119.976562 170.558594 119.492188 170.925781 118.824219 L 171.011719 118.835938 C 172.347656 118.835938 173.464844 117.71875 173.464844 116.382812 L 173.464844 116.214844 C 173.464844 115.277344 172.910156 114.460938 172.121094 114.046875 " fill-opacity="1" fill-rule="nonzero"/><path fill="#d29430" d="M 190 115.414062 C 189.796875 115.316406 189.601562 115.25 189.410156 115.207031 C 190.835938 114.296875 191.296875 111.859375 189.316406 110.882812 C 187.601562 110.039062 186.132812 111.308594 185.863281 112.757812 C 185.695312 112.605469 185.511719 112.472656 185.300781 112.367188 C 184.660156 112.054688 183.945312 112.058594 183.324219 112.304688 C 182.679688 112.488281 182.109375 112.917969 181.792969 113.558594 C 181.222656 114.71875 181.6875 116.171875 182.820312 116.789062 C 182.886719 117.359375 183.148438 117.898438 183.566406 118.300781 C 183.433594 118.457031 183.308594 118.625 183.214844 118.816406 L 183.140625 118.960938 C 182.550781 120.160156 183.058594 121.65625 184.257812 122.246094 C 185.457031 122.835938 186.953125 122.332031 187.542969 121.128906 L 187.613281 120.984375 C 187.800781 120.613281 187.867188 120.214844 187.851562 119.824219 C 190.679688 121.1875 192.828125 116.808594 190 115.414062 " fill-opacity="1" fill-rule="nonzero"/><path fill="#d29430" d="M 180.53125 116.894531 C 179.9375 116.601562 179.375 116.5625 178.878906 116.699219 C 178.875 116.121094 178.667969 115.558594 178.296875 115.117188 L 178.261719 115.054688 C 177.898438 114.507812 177.320312 114.121094 176.671875 113.996094 C 176.046875 113.875 175.390625 114.007812 174.859375 114.359375 C 174.699219 114.496094 174.539062 114.636719 174.378906 114.773438 C 174.082031 115.113281 173.886719 115.503906 173.800781 115.945312 C 173.683594 116.292969 173.707031 116.765625 173.824219 117.191406 C 171.402344 116.84375 169.867188 120.570312 172.4375 121.839844 C 172.601562 121.921875 172.765625 121.976562 172.925781 122.019531 C 172.511719 123.167969 173.027344 124.5 174.140625 125.046875 C 174.777344 125.363281 175.492188 125.359375 176.117188 125.113281 C 176.757812 124.929688 177.328125 124.496094 177.644531 123.859375 C 177.746094 123.648438 177.804688 123.425781 177.84375 123.207031 C 178.574219 122.941406 179.132812 122.304688 179.382812 121.5625 C 181.664062 121.640625 183.015625 118.117188 180.53125 116.894531 " fill-opacity="1" fill-rule="nonzero"/><path fill="#f1c569" d="M 184.21875 126.328125 C 185.089844 126.371094 185.914062 125.945312 186.386719 125.242188 C 186.636719 125.394531 186.914062 125.503906 187.214844 125.558594 C 188.527344 125.789062 189.824219 124.882812 190.054688 123.566406 L 190.105469 123.269531 C 190.328125 122.023438 189.523438 120.808594 188.316406 120.484375 C 188.039062 120.019531 187.621094 119.644531 187.101562 119.441406 C 187.308594 116.664062 183.082031 115.902344 182.3125 118.574219 C 181.382812 116.796875 178.140625 116.707031 177.695312 119.234375 C 177.636719 119.558594 177.644531 119.855469 177.691406 120.128906 C 177.4375 120.425781 177.25 120.8125 177.164062 121.296875 C 176.839844 123.144531 178.40625 124.195312 179.851562 124.097656 C 179.816406 124.199219 179.789062 124.304688 179.773438 124.414062 L 179.746094 124.574219 C 179.511719 125.890625 180.417969 127.183594 181.734375 127.414062 C 182.722656 127.589844 183.695312 127.125 184.21875 126.328125 " fill-opacity="1" fill-rule="nonzero"/><path fill="#efb11c" d="M 194.6875 120.285156 C 194.925781 120.078125 195.136719 119.828125 195.28125 119.53125 C 195.875 118.332031 195.367188 116.835938 194.167969 116.246094 L 194.019531 116.171875 C 192.820312 115.582031 191.324219 116.089844 190.734375 117.292969 C 190.707031 117.339844 190.695312 117.394531 190.675781 117.441406 L 190.660156 117.4375 C 189.460938 116.84375 187.964844 117.351562 187.375 118.550781 C 186.886719 119.539062 187.152344 120.714844 187.925781 121.433594 C 187.65625 122.4375 187.953125 123.578125 189.160156 124.171875 C 190.054688 124.613281 190.878906 124.476562 191.503906 124.039062 L 191.578125 124.085938 C 192.777344 124.675781 194.269531 124.171875 194.859375 122.96875 L 194.933594 122.824219 C 195.351562 121.980469 195.214844 121.003906 194.6875 120.285156 " fill-opacity="1" fill-rule="nonzero"/><path fill="#f1c446" d="M 174.292969 126.304688 C 175.457031 124.917969 174.863281 122.1875 172.5 122.1875 C 171.761719 122.1875 171.199219 122.453125 170.804688 122.863281 C 170.515625 122.746094 170.207031 122.675781 169.878906 122.675781 C 168.542969 122.675781 167.425781 123.792969 167.425781 125.128906 L 167.425781 125.292969 C 167.425781 125.707031 167.542969 126.09375 167.730469 126.441406 C 166.1875 127.683594 166.679688 130.851562 169.226562 130.851562 C 170.089844 130.851562 170.714844 130.484375 171.105469 129.953125 C 171.5 130.484375 172.125 130.851562 172.988281 130.851562 C 175.632812 130.851562 176.066406 127.433594 174.292969 126.304688 " fill-opacity="1" fill-rule="nonzero"/><path fill="#efb11c" d="M 180.933594 125.121094 C 182.058594 123.726562 181.449219 121.042969 179.109375 121.042969 C 177.867188 121.042969 177.113281 121.796875 176.847656 122.71875 C 176.554688 122.585938 176.222656 122.511719 175.835938 122.511719 C 173.289062 122.511719 172.792969 125.695312 174.351562 126.933594 C 173.863281 127.382812 173.546875 128.019531 173.546875 128.726562 L 173.546875 129.054688 C 173.546875 130.390625 174.664062 131.507812 176 131.507812 C 176.417969 131.507812 176.808594 131.390625 177.15625 131.199219 C 177.605469 131.6875 178.246094 131.996094 178.945312 131.996094 C 179.96875 131.996094 180.847656 131.351562 181.214844 130.453125 C 181.609375 129.765625 181.652344 128.917969 181.332031 128.203125 C 181.851562 127.234375 181.71875 125.902344 180.933594 125.121094 " fill-opacity="1" fill-rule="nonzero"/><path fill="#f1c446" d="M 193.753906 124.863281 L 193.695312 124.867188 C 193.519531 124.796875 193.320312 124.753906 193.109375 124.730469 C 192.890625 123.761719 192.148438 122.9375 190.882812 122.902344 C 190.515625 122.242188 189.835938 121.753906 188.84375 121.753906 C 187.03125 121.753906 186.261719 123.359375 186.523438 124.734375 C 185.222656 124.90625 184.273438 125.953125 184.261719 127.3125 C 184.253906 128.652344 185.386719 129.765625 186.71875 129.765625 C 187.003906 129.765625 187.273438 129.707031 187.527344 129.617188 C 187.199219 131.015625 187.964844 132.710938 189.824219 132.710938 C 191.730469 132.710938 192.484375 130.933594 192.097656 129.515625 C 192.234375 129.554688 192.378906 129.578125 192.53125 129.59375 C 192.890625 129.808594 193.308594 129.933594 193.753906 129.933594 C 195.089844 129.933594 196.207031 128.816406 196.207031 127.480469 L 196.207031 127.3125 C 196.207031 125.976562 195.089844 124.863281 193.753906 124.863281 " fill-opacity="1" fill-rule="nonzero"/><path fill="#efb11c" d="M 190.9375 127.105469 L 190.9375 126.941406 C 190.9375 125.730469 190.019531 124.710938 188.855469 124.527344 C 188.445312 123.734375 187.625 123.179688 186.683594 123.179688 C 185.886719 123.179688 185.171875 123.582031 184.722656 124.183594 C 184.613281 124.167969 184.503906 124.160156 184.394531 124.160156 C 183.054688 124.160156 181.9375 125.277344 181.9375 126.613281 L 181.9375 126.777344 C 181.9375 127.367188 182.160156 127.910156 182.523438 128.332031 C 182.363281 128.65625 182.265625 129.015625 182.265625 129.390625 C 182.265625 130.730469 183.382812 131.84375 184.722656 131.84375 L 184.882812 131.84375 C 185.132812 131.84375 185.371094 131.796875 185.597656 131.722656 C 186.050781 132.289062 186.734375 132.664062 187.503906 132.664062 L 187.828125 132.664062 C 189.167969 132.664062 190.28125 131.546875 190.28125 130.210938 C 190.28125 129.785156 190.160156 129.390625 189.964844 129.039062 C 190.550781 128.585938 190.9375 127.886719 190.9375 127.105469 " fill-opacity="1" fill-rule="nonzero"/><g fill="#ffffff" fill-opacity="1"><g transform="translate(9.25659, 224.291253)"><g><path d="M 9.109375 3.40625 C 6.609375 3.40625 5.332031 2.398438 5.28125 0.390625 C 5.28125 -0.285156 5.398438 -1.085938 5.640625 -2.015625 C 5.890625 -2.941406 6.222656 -4.054688 6.640625 -5.359375 C 7.503906 -7.960938 8.421875 -10.476562 9.390625 -12.90625 C 10.367188 -15.34375 11.578125 -18.253906 13.015625 -21.640625 L 14.421875 -24.96875 C 11.835938 -24.9375 9.734375 -24.847656 8.109375 -24.703125 C 6.484375 -24.566406 4.769531 -24.34375 2.96875 -24.03125 C 3.125 -25.5625 4.085938 -26.625 5.859375 -27.21875 C 7.628906 -27.820312 10.117188 -28.125 13.328125 -28.125 C 15.429688 -28.125 18.046875 -27.96875 21.171875 -27.65625 C 23.910156 -27.394531 25.914062 -27.265625 27.1875 -27.265625 C 26.144531 -26.273438 24.757812 -25.644531 23.03125 -25.375 C 21.300781 -25.101562 19.222656 -24.96875 16.796875 -24.96875 C 14.660156 -19.707031 12.550781 -13.25 10.46875 -5.59375 C 9.875 -3.375 9.476562 -1.78125 9.28125 -0.8125 C 9.082031 0.144531 8.984375 1.171875 8.984375 2.265625 C 8.984375 2.628906 9.023438 3.007812 9.109375 3.40625 Z M 9.109375 3.40625 "/></g></g></g><g fill="#ffffff" fill-opacity="1"><g transform="translate(30.349418, 224.291253)"><g><path d="M 1.796875 1.484375 C 1.253906 1.484375 0.851562 1.066406 0.59375 0.234375 C 0.332031 -0.597656 0.203125 -1.65625 0.203125 -2.9375 C 0.203125 -5.28125 0.9375 -8.460938 2.40625 -12.484375 C 3.875 -16.503906 5.554688 -20.078125 7.453125 -23.203125 C 9.359375 -26.328125 10.910156 -27.890625 12.109375 -27.890625 C 12.628906 -27.890625 13.039062 -27.601562 13.34375 -27.03125 C 13.644531 -26.457031 13.796875 -25.820312 13.796875 -25.125 C 13.796875 -23.925781 13.359375 -22.320312 12.484375 -20.3125 C 11.609375 -18.3125 10.460938 -16.378906 9.046875 -14.515625 C 7.628906 -12.648438 6.164062 -11.273438 4.65625 -10.390625 C 3.769531 -8.046875 3.328125 -5.832031 3.328125 -3.75 L 3.359375 -2.9375 C 3.410156 -3.007812 3.53125 -3.296875 3.71875 -3.796875 C 4.238281 -5.148438 4.785156 -6.375 5.359375 -7.46875 C 5.929688 -8.5625 6.71875 -9.582031 7.71875 -10.53125 C 8.71875 -11.476562 9.882812 -11.953125 11.21875 -11.953125 C 12.414062 -11.953125 13.285156 -11.566406 13.828125 -10.796875 C 14.378906 -10.035156 14.65625 -9.132812 14.65625 -8.09375 C 14.65625 -7.488281 14.578125 -6.925781 14.421875 -6.40625 C 14.265625 -5.882812 14.03125 -5.222656 13.71875 -4.421875 C 13.664062 -4.316406 13.566406 -4.070312 13.421875 -3.6875 C 13.273438 -3.3125 13.171875 -2.972656 13.109375 -2.671875 C 13.046875 -2.378906 13.015625 -2.113281 13.015625 -1.875 C 13.015625 -1.039062 13.363281 -0.625 14.0625 -0.625 C 14.632812 -0.625 15.3125 -0.910156 16.09375 -1.484375 C 16.875 -2.054688 17.640625 -2.820312 18.390625 -3.78125 C 19.148438 -4.75 19.804688 -5.796875 20.359375 -6.921875 L 20.984375 -6.25 C 20.015625 -4.113281 18.847656 -2.378906 17.484375 -1.046875 C 16.117188 0.273438 14.65625 0.9375 13.09375 0.9375 C 12.125 0.9375 11.375 0.679688 10.84375 0.171875 C 10.3125 -0.335938 10.046875 -0.992188 10.046875 -1.796875 C 10.046875 -2.316406 10.226562 -3.253906 10.59375 -4.609375 C 10.976562 -5.890625 11.171875 -6.84375 11.171875 -7.46875 C 11.171875 -8.5625 10.703125 -9.109375 9.765625 -9.109375 C 8.828125 -9.109375 8.039062 -8.617188 7.40625 -7.640625 C 6.769531 -6.660156 6.046875 -5.222656 5.234375 -3.328125 C 4.585938 -1.710938 4.015625 -0.507812 3.515625 0.28125 C 3.023438 1.082031 2.453125 1.484375 1.796875 1.484375 Z M 5.46875 -12.890625 C 6.539062 -13.859375 7.570312 -15.109375 8.5625 -16.640625 C 9.550781 -18.179688 10.359375 -19.671875 10.984375 -21.109375 C 11.609375 -22.554688 11.921875 -23.59375 11.921875 -24.21875 C 11.609375 -24.09375 11.046875 -23.460938 10.234375 -22.328125 C 9.429688 -21.191406 8.585938 -19.769531 7.703125 -18.0625 C 6.816406 -16.363281 6.070312 -14.640625 5.46875 -12.890625 Z M 5.46875 -12.890625 "/></g></g></g><g fill="#ffffff" fill-opacity="1"><g transform="translate(49.645459, 224.291253)"><g><path d="M 4.53125 1.71875 C 2.894531 1.71875 1.617188 1.273438 0.703125 0.390625 C -0.210938 -0.492188 -0.671875 -1.628906 -0.671875 -3.015625 C -0.671875 -4.523438 -0.160156 -6.15625 0.859375 -7.90625 C 1.878906 -9.664062 3.179688 -11.140625 4.765625 -12.328125 C 6.359375 -13.515625 7.921875 -14.109375 9.453125 -14.109375 C 10.265625 -14.109375 10.941406 -13.90625 11.484375 -13.5 C 12.035156 -13.09375 12.3125 -12.421875 12.3125 -11.484375 C 12.3125 -10.234375 11.828125 -9.054688 10.859375 -7.953125 C 9.898438 -6.847656 8.65625 -5.941406 7.125 -5.234375 C 5.601562 -4.535156 4.050781 -4.09375 2.46875 -3.90625 C 2.414062 -3.644531 2.390625 -3.347656 2.390625 -3.015625 C 2.390625 -2.335938 2.578125 -1.65625 2.953125 -0.96875 C 3.328125 -0.289062 4.140625 0.046875 5.390625 0.046875 C 6.984375 0.046875 8.601562 -0.597656 10.25 -1.890625 C 11.90625 -3.179688 13.242188 -4.789062 14.265625 -6.71875 L 15.046875 -6.09375 C 14.003906 -3.75 12.507812 -1.859375 10.5625 -0.421875 C 8.625 1.003906 6.613281 1.71875 4.53125 1.71875 Z M 2.890625 -5.359375 C 3.828125 -5.460938 4.875 -5.835938 6.03125 -6.484375 C 7.195312 -7.140625 8.179688 -7.941406 8.984375 -8.890625 C 9.796875 -9.835938 10.203125 -10.769531 10.203125 -11.6875 C 10.203125 -11.96875 10.148438 -12.160156 10.046875 -12.265625 C 9.941406 -12.367188 9.769531 -12.421875 9.53125 -12.421875 C 8.78125 -12.421875 7.953125 -12.0625 7.046875 -11.34375 C 6.148438 -10.632812 5.320312 -9.734375 4.5625 -8.640625 C 3.8125 -7.546875 3.253906 -6.453125 2.890625 -5.359375 Z M 2.890625 -5.359375 "/></g></g></g><g fill="#ffffff" fill-opacity="1"><g transform="translate(62.965195, 224.291253)"><g/></g></g><g fill="#ffffff" fill-opacity="1"><g transform="translate(73.121003, 224.291253)"><g><path d="M 19.734375 4.734375 C 18.765625 4.734375 17.5625 3.914062 16.125 2.28125 C 14.695312 0.65625 13.265625 -1.300781 11.828125 -3.59375 C 10.398438 -5.882812 9.179688 -8.0625 8.171875 -10.125 C 7.703125 -8.507812 6.921875 -5.75 5.828125 -1.84375 L 4.34375 3.4375 C 3.53125 3.4375 2.804688 3.222656 2.171875 2.796875 C 1.535156 2.367188 1.21875 1.828125 1.21875 1.171875 C 1.21875 0.859375 1.296875 0.457031 1.453125 -0.03125 C 1.609375 -0.53125 1.710938 -0.847656 1.765625 -0.984375 C 3.765625 -7.078125 5.332031 -11.648438 6.46875 -14.703125 C 7.601562 -17.765625 9.222656 -21.707031 11.328125 -26.53125 C 9.921875 -26.238281 8.4375 -25.675781 6.875 -24.84375 C 6.71875 -24.789062 6.519531 -24.707031 6.28125 -24.59375 C 6.050781 -24.476562 5.882812 -24.421875 5.78125 -24.421875 C 5.550781 -24.421875 5.234375 -24.601562 4.828125 -24.96875 C 4.421875 -25.332031 4.21875 -25.65625 4.21875 -25.9375 C 5.78125 -26.5625 7.328125 -27.082031 8.859375 -27.5 C 10.398438 -27.914062 11.992188 -28.125 13.640625 -28.125 C 15.359375 -28.125 17.03125 -27.859375 18.65625 -27.328125 C 20.28125 -26.796875 21.625 -25.960938 22.6875 -24.828125 C 23.757812 -23.691406 24.296875 -22.28125 24.296875 -20.59375 C 24.296875 -18.351562 23.40625 -16.609375 21.625 -15.359375 C 19.84375 -14.109375 17.835938 -13.257812 15.609375 -12.8125 C 13.378906 -12.375 11.34375 -12.128906 9.5 -12.078125 L 10.515625 -10.46875 C 11.765625 -8.46875 12.859375 -6.800781 13.796875 -5.46875 C 14.734375 -4.144531 15.882812 -2.757812 17.25 -1.3125 C 18.613281 0.132812 20.234375 1.578125 22.109375 3.015625 C 22.003906 3.503906 21.695312 3.910156 21.1875 4.234375 C 20.6875 4.566406 20.203125 4.734375 19.734375 4.734375 Z M 9.0625 -13.25 C 12.375 -13.476562 15.203125 -14.273438 17.546875 -15.640625 C 19.890625 -17.015625 21.0625 -18.925781 21.0625 -21.375 C 21.0625 -23.21875 20.394531 -24.5625 19.0625 -25.40625 C 17.738281 -26.257812 16.070312 -26.710938 14.0625 -26.765625 C 12.601562 -23.847656 10.9375 -19.34375 9.0625 -13.25 Z M 9.0625 -13.25 "/></g></g></g><g fill="#ffffff" fill-opacity="1"><g transform="translate(97.182464, 224.291253)"><g><path d="M 2.578125 1.25 C 1.515625 1.25 0.738281 0.894531 0.25 0.1875 C -0.226562 -0.507812 -0.46875 -1.378906 -0.46875 -2.421875 C -0.46875 -3.515625 -0.238281 -4.644531 0.21875 -5.8125 C 0.675781 -6.988281 1.269531 -7.96875 2 -8.75 C 2.726562 -9.53125 3.46875 -9.921875 4.21875 -9.921875 C 4.53125 -9.921875 4.9375 -9.816406 5.4375 -9.609375 C 5.59375 -10.804688 6.015625 -11.796875 6.703125 -12.578125 C 7.390625 -13.359375 8.359375 -13.75 9.609375 -13.75 C 10.648438 -13.75 11.414062 -13.457031 11.90625 -12.875 C 12.40625 -12.289062 12.65625 -11.53125 12.65625 -10.59375 C 12.65625 -9.675781 12.414062 -8.628906 11.9375 -7.453125 C 11.457031 -6.285156 10.835938 -5.117188 10.078125 -3.953125 C 10.390625 -3.796875 10.753906 -3.71875 11.171875 -3.71875 C 11.898438 -3.71875 12.679688 -3.957031 13.515625 -4.4375 C 14.347656 -4.914062 14.988281 -5.648438 15.4375 -6.640625 L 16.140625 -6.140625 C 15.585938 -4.890625 14.847656 -3.9375 13.921875 -3.28125 C 13.003906 -2.632812 12.050781 -2.3125 11.0625 -2.3125 C 10.457031 -2.3125 9.804688 -2.425781 9.109375 -2.65625 C 8.140625 -1.507812 7.082031 -0.570312 5.9375 0.15625 C 4.789062 0.882812 3.671875 1.25 2.578125 1.25 Z M 8.75 -4.765625 C 9.40625 -5.734375 9.945312 -6.738281 10.375 -7.78125 C 10.800781 -8.820312 11.015625 -9.757812 11.015625 -10.59375 C 11.015625 -11.738281 10.648438 -12.3125 9.921875 -12.3125 C 9.585938 -12.3125 9.238281 -12.140625 8.875 -11.796875 C 8.507812 -11.460938 8.207031 -11.015625 7.96875 -10.453125 C 7.738281 -9.890625 7.625 -9.269531 7.625 -8.59375 C 7.625 -8 7.726562 -7.316406 7.9375 -6.546875 C 8.144531 -5.773438 8.414062 -5.179688 8.75 -4.765625 Z M 3.984375 -0.75 C 4.453125 -0.75 5.023438 -1.007812 5.703125 -1.53125 C 6.378906 -2.050781 7.054688 -2.710938 7.734375 -3.515625 C 6.253906 -4.816406 5.472656 -6.734375 5.390625 -9.265625 C 5.078125 -9.109375 4.695312 -8.625 4.25 -7.8125 C 3.8125 -7.007812 3.4375 -6.113281 3.125 -5.125 C 2.8125 -4.132812 2.65625 -3.273438 2.65625 -2.546875 C 2.65625 -1.347656 3.097656 -0.75 3.984375 -0.75 Z M 3.984375 -0.75 "/></g></g></g><g fill="#ffffff" fill-opacity="1"><g transform="translate(111.713085, 224.291253)"><g><path d="M 2.578125 1.25 C 1.515625 1.25 0.738281 0.894531 0.25 0.1875 C -0.226562 -0.507812 -0.46875 -1.378906 -0.46875 -2.421875 C -0.46875 -3.515625 -0.238281 -4.644531 0.21875 -5.8125 C 0.675781 -6.988281 1.269531 -7.96875 2 -8.75 C 2.726562 -9.53125 3.46875 -9.921875 4.21875 -9.921875 C 4.53125 -9.921875 4.9375 -9.816406 5.4375 -9.609375 C 5.59375 -10.804688 6.015625 -11.796875 6.703125 -12.578125 C 7.390625 -13.359375 8.359375 -13.75 9.609375 -13.75 C 10.648438 -13.75 11.414062 -13.457031 11.90625 -12.875 C 12.40625 -12.289062 12.65625 -11.53125 12.65625 -10.59375 C 12.65625 -9.675781 12.414062 -8.628906 11.9375 -7.453125 C 11.457031 -6.285156 10.835938 -5.117188 10.078125 -3.953125 C 10.390625 -3.796875 10.753906 -3.71875 11.171875 -3.71875 C 11.898438 -3.71875 12.679688 -3.957031 13.515625 -4.4375 C 14.347656 -4.914062 14.988281 -5.648438 15.4375 -6.640625 L 16.140625 -6.140625 C 15.585938 -4.890625 14.847656 -3.9375 13.921875 -3.28125 C 13.003906 -2.632812 12.050781 -2.3125 11.0625 -2.3125 C 10.457031 -2.3125 9.804688 -2.425781 9.109375 -2.65625 C 8.140625 -1.507812 7.082031 -0.570312 5.9375 0.15625 C 4.789062 0.882812 3.671875 1.25 2.578125 1.25 Z M 8.75 -4.765625 C 9.40625 -5.734375 9.945312 -6.738281 10.375 -7.78125 C 10.800781 -8.820312 11.015625 -9.757812 11.015625 -10.59375 C 11.015625 -11.738281 10.648438 -12.3125 9.921875 -12.3125 C 9.585938 -12.3125 9.238281 -12.140625 8.875 -11.796875 C 8.507812 -11.460938 8.207031 -11.015625 7.96875 -10.453125 C 7.738281 -9.890625 7.625 -9.269531 7.625 -8.59375 C 7.625 -8 7.726562 -7.316406 7.9375 -6.546875 C 8.144531 -5.773438 8.414062 -5.179688 8.75 -4.765625 Z M 3.984375 -0.75 C 4.453125 -0.75 5.023438 -1.007812 5.703125 -1.53125 C 6.378906 -2.050781 7.054688 -2.710938 7.734375 -3.515625 C 6.253906 -4.816406 5.472656 -6.734375 5.390625 -9.265625 C 5.078125 -9.109375 4.695312 -8.625 4.25 -7.8125 C 3.8125 -7.007812 3.4375 -6.113281 3.125 -5.125 C 2.8125 -4.132812 2.65625 -3.273438 2.65625 -2.546875 C 2.65625 -1.347656 3.097656 -0.75 3.984375 -0.75 Z M 3.984375 -0.75 "/></g></g></g><g fill="#ffffff" fill-opacity="1"><g transform="translate(126.243706, 224.291253)"><g><path d="M 20.4375 1.21875 C 19.46875 1.21875 18.722656 0.925781 18.203125 0.34375 C 17.679688 -0.226562 17.421875 -0.957031 17.421875 -1.84375 C 17.421875 -2.257812 17.476562 -2.71875 17.59375 -3.21875 C 17.71875 -3.726562 17.859375 -4.207031 18.015625 -4.65625 C 18.347656 -5.71875 18.515625 -6.5 18.515625 -7 C 18.515625 -7.78125 18.21875 -8.171875 17.625 -8.171875 C 17.050781 -8.171875 16.382812 -7.753906 15.625 -6.921875 C 14.875 -6.085938 13.859375 -4.71875 12.578125 -2.8125 C 12.265625 -2.34375 11.796875 -1.550781 11.171875 -0.4375 L 10.4375 0.90625 C 9.96875 0.90625 9.457031 0.8125 8.90625 0.625 C 8.363281 0.445312 8.09375 0.195312 8.09375 -0.125 C 8.09375 -0.382812 8.363281 -1.21875 8.90625 -2.625 C 9.425781 -3.976562 9.847656 -5.160156 10.171875 -6.171875 C 10.503906 -7.191406 10.671875 -8.039062 10.671875 -8.71875 C 10.671875 -9.5 10.394531 -9.890625 9.84375 -9.890625 C 9.144531 -9.890625 8.234375 -9.332031 7.109375 -8.21875 C 5.992188 -7.113281 4.890625 -5.707031 3.796875 -4 C 2.703125 -2.300781 1.851562 -0.613281 1.25 1.0625 C 0.78125 1.0625 0.226562 0.929688 -0.40625 0.671875 C -1.050781 0.410156 -1.375 0.1875 -1.375 0 L 1.140625 -10 C 1.210938 -10.289062 1.488281 -10.546875 1.96875 -10.765625 C 2.457031 -10.984375 2.894531 -11.09375 3.28125 -11.09375 C 3.675781 -11.09375 3.992188 -10.972656 4.234375 -10.734375 C 4.484375 -10.503906 4.609375 -10.195312 4.609375 -9.8125 C 4.609375 -9.394531 4.425781 -8.457031 4.0625 -7 C 5.3125 -8.71875 6.597656 -10.140625 7.921875 -11.265625 C 9.253906 -12.398438 10.507812 -12.96875 11.6875 -12.96875 C 12.570312 -12.96875 13.203125 -12.65625 13.578125 -12.03125 C 13.953125 -11.40625 14.140625 -10.625 14.140625 -9.6875 C 14.140625 -9.195312 14.085938 -8.734375 13.984375 -8.296875 C 13.878906 -7.867188 13.710938 -7.289062 13.484375 -6.5625 C 15.304688 -9.25 17.191406 -10.59375 19.140625 -10.59375 C 20.078125 -10.59375 20.757812 -10.3125 21.1875 -9.75 C 21.625 -9.1875 21.84375 -8.488281 21.84375 -7.65625 C 21.84375 -6.820312 21.582031 -5.648438 21.0625 -4.140625 C 21.03125 -4.035156 20.929688 -3.695312 20.765625 -3.125 C 20.597656 -2.550781 20.515625 -2.082031 20.515625 -1.71875 C 20.515625 -1.019531 20.835938 -0.671875 21.484375 -0.671875 C 22.421875 -0.671875 23.335938 -1.269531 24.234375 -2.46875 C 25.140625 -3.664062 25.984375 -5.097656 26.765625 -6.765625 L 27.421875 -5.9375 C 26.671875 -3.988281 25.703125 -2.304688 24.515625 -0.890625 C 23.328125 0.515625 21.96875 1.21875 20.4375 1.21875 Z M 20.4375 1.21875 "/></g></g></g><g fill="#ffffff" fill-opacity="1"><g transform="translate(152.023832, 224.291253)"><g/></g></g><g fill="#ffffff" fill-opacity="1"><g transform="translate(162.17964, 224.291253)"><g><path d="M 2.15625 -5.546875 C 2.46875 -6.535156 3.273438 -7.191406 4.578125 -7.515625 C 5.878906 -7.847656 7.140625 -8.015625 8.359375 -8.015625 C 9.484375 -7.984375 10.882812 -7.941406 12.5625 -7.890625 C 14.238281 -7.835938 15.648438 -7.785156 16.796875 -7.734375 C 16.535156 -7.140625 15.941406 -6.640625 15.015625 -6.234375 C 14.097656 -5.828125 13.101562 -5.625 12.03125 -5.625 C 11.800781 -5.625 11.21875 -5.648438 10.28125 -5.703125 C 9.082031 -5.804688 8.039062 -5.859375 7.15625 -5.859375 C 6.289062 -5.859375 5.363281 -5.816406 4.375 -5.734375 C 3.382812 -5.660156 2.644531 -5.597656 2.15625 -5.546875 Z M 2.15625 -5.546875 "/></g></g></g><g fill="#ffffff" fill-opacity="1"><g transform="translate(181.983462, 224.291253)"><g/></g></g><g fill="#ffffff" fill-opacity="1"><g transform="translate(192.13927, 224.291253)"><g><path d="M -0.203125 3.40625 C 0.117188 2.46875 1.632812 -0.851562 4.34375 -6.5625 C 8.320312 -15.207031 10.988281 -21.015625 12.34375 -23.984375 C 12.582031 -24.503906 12.703125 -24.9375 12.703125 -25.28125 C 12.703125 -25.851562 12.320312 -26.140625 11.5625 -26.140625 C 10.550781 -26.140625 9.691406 -25.816406 8.984375 -25.171875 C 8.285156 -24.535156 7.757812 -23.734375 7.40625 -22.765625 C 7.050781 -21.804688 6.875 -20.832031 6.875 -19.84375 C 6.875 -19.300781 6.925781 -18.675781 7.03125 -17.96875 C 6.175781 -17.96875 5.5 -18.335938 5 -19.078125 C 4.507812 -19.828125 4.265625 -20.644531 4.265625 -21.53125 C 4.265625 -22.59375 4.664062 -23.640625 5.46875 -24.671875 C 6.28125 -25.703125 7.316406 -26.535156 8.578125 -27.171875 C 9.835938 -27.804688 11.082031 -28.125 12.3125 -28.125 C 13.320312 -28.125 14.160156 -27.84375 14.828125 -27.28125 C 15.492188 -26.726562 16 -25.75 16.34375 -24.34375 C 16.695312 -22.9375 16.875 -20.96875 16.875 -18.4375 C 16.875 -16.613281 16.734375 -13.789062 16.453125 -9.96875 C 16.242188 -7.15625 16.140625 -5.359375 16.140625 -4.578125 C 16.921875 -6.921875 18.023438 -9.535156 19.453125 -12.421875 C 20.890625 -15.316406 22.316406 -17.992188 23.734375 -20.453125 C 25.148438 -22.910156 26.265625 -24.738281 27.078125 -25.9375 C 27.492188 -26.59375 27.84375 -27.039062 28.125 -27.28125 C 28.414062 -27.53125 28.78125 -27.65625 29.21875 -27.65625 C 29.582031 -27.65625 30.15625 -27.515625 30.9375 -27.234375 C 30.414062 -26.109375 29.738281 -23.828125 28.90625 -20.390625 C 28.070312 -16.953125 27.347656 -13.335938 26.734375 -9.546875 C 26.128906 -5.765625 25.828125 -2.710938 25.828125 -0.390625 C 25.828125 0.421875 25.863281 1.019531 25.9375 1.40625 C 26.019531 1.800781 26.128906 2.1875 26.265625 2.5625 C 26.410156 2.9375 26.523438 3.21875 26.609375 3.40625 C 25.484375 3.40625 24.632812 3.238281 24.0625 2.90625 C 23.488281 2.582031 23.097656 2.0625 22.890625 1.34375 C 22.679688 0.632812 22.578125 -0.375 22.578125 -1.6875 C 22.578125 -4.289062 22.859375 -7.050781 23.421875 -9.96875 C 23.984375 -12.882812 24.8125 -16.453125 25.90625 -20.671875 C 24.257812 -18.328125 22.457031 -15.003906 20.5 -10.703125 C 18.550781 -6.410156 17.109375 -2.882812 16.171875 -0.125 L 15.90625 -0.046875 C 15.71875 0.0351562 15.535156 0.078125 15.359375 0.078125 C 14.492188 0.078125 13.925781 -0.414062 13.65625 -1.40625 C 13.382812 -2.394531 13.25 -3.972656 13.25 -6.140625 C 13.25 -7.460938 13.300781 -9.6875 13.40625 -12.8125 C 13.507812 -16.09375 13.5625 -18.488281 13.5625 -20 L 13.515625 -22.3125 L 9.5 -12.859375 C 7.570312 -8.273438 6.128906 -4.945312 5.171875 -2.875 C 4.222656 -0.800781 3.328125 0.757812 2.484375 1.8125 C 1.640625 2.875 0.742188 3.40625 -0.203125 3.40625 Z M -0.203125 3.40625 "/></g></g></g><g fill="#ffffff" fill-opacity="1"><g transform="translate(223.622283, 224.291253)"><g><path d="M 2.578125 1.25 C 1.515625 1.25 0.738281 0.894531 0.25 0.1875 C -0.226562 -0.507812 -0.46875 -1.378906 -0.46875 -2.421875 C -0.46875 -3.515625 -0.238281 -4.644531 0.21875 -5.8125 C 0.675781 -6.988281 1.269531 -7.96875 2 -8.75 C 2.726562 -9.53125 3.46875 -9.921875 4.21875 -9.921875 C 4.53125 -9.921875 4.9375 -9.816406 5.4375 -9.609375 C 5.59375 -10.804688 6.015625 -11.796875 6.703125 -12.578125 C 7.390625 -13.359375 8.359375 -13.75 9.609375 -13.75 C 10.648438 -13.75 11.414062 -13.457031 11.90625 -12.875 C 12.40625 -12.289062 12.65625 -11.53125 12.65625 -10.59375 C 12.65625 -9.675781 12.414062 -8.628906 11.9375 -7.453125 C 11.457031 -6.285156 10.835938 -5.117188 10.078125 -3.953125 C 10.390625 -3.796875 10.753906 -3.71875 11.171875 -3.71875 C 11.898438 -3.71875 12.679688 -3.957031 13.515625 -4.4375 C 14.347656 -4.914062 14.988281 -5.648438 15.4375 -6.640625 L 16.140625 -6.140625 C 15.585938 -4.890625 14.847656 -3.9375 13.921875 -3.28125 C 13.003906 -2.632812 12.050781 -2.3125 11.0625 -2.3125 C 10.457031 -2.3125 9.804688 -2.425781 9.109375 -2.65625 C 8.140625 -1.507812 7.082031 -0.570312 5.9375 0.15625 C 4.789062 0.882812 3.671875 1.25 2.578125 1.25 Z M 8.75 -4.765625 C 9.40625 -5.734375 9.945312 -6.738281 10.375 -7.78125 C 10.800781 -8.820312 11.015625 -9.757812 11.015625 -10.59375 C 11.015625 -11.738281 10.648438 -12.3125 9.921875 -12.3125 C 9.585938 -12.3125 9.238281 -12.140625 8.875 -11.796875 C 8.507812 -11.460938 8.207031 -11.015625 7.96875 -10.453125 C 7.738281 -9.890625 7.625 -9.269531 7.625 -8.59375 C 7.625 -8 7.726562 -7.316406 7.9375 -6.546875 C 8.144531 -5.773438 8.414062 -5.179688 8.75 -4.765625 Z M 3.984375 -0.75 C 4.453125 -0.75 5.023438 -1.007812 5.703125 -1.53125 C 6.378906 -2.050781 7.054688 -2.710938 7.734375 -3.515625 C 6.253906 -4.816406 5.472656 -6.734375 5.390625 -9.265625 C 5.078125 -9.109375 4.695312 -8.625 4.25 -7.8125 C 3.8125 -7.007812 3.4375 -6.113281 3.125 -5.125 C 2.8125 -4.132812 2.65625 -3.273438 2.65625 -2.546875 C 2.65625 -1.347656 3.097656 -0.75 3.984375 -0.75 Z M 3.984375 -0.75 "/></g></g></g><g fill="#ffffff" fill-opacity="1"><g transform="translate(238.152905, 224.291253)"><g><path d="M 2.890625 1.53125 C 1.953125 1.53125 1.285156 1.117188 0.890625 0.296875 C 0.503906 -0.523438 0.3125 -1.679688 0.3125 -3.171875 C 0.3125 -3.898438 0.363281 -5.445312 0.46875 -7.8125 C 0.5 -8.644531 0.59375 -9.191406 0.75 -9.453125 C 0.90625 -9.710938 1.304688 -9.84375 1.953125 -9.84375 C 2.554688 -9.84375 2.921875 -9.734375 3.046875 -9.515625 C 3.179688 -9.296875 3.25 -8.78125 3.25 -7.96875 C 3.25 -7.476562 3.222656 -6.660156 3.171875 -5.515625 C 3.085938 -4.648438 3.046875 -3.773438 3.046875 -2.890625 C 3.046875 -2.003906 3.09375 -1.390625 3.1875 -1.046875 C 3.28125 -0.710938 3.46875 -0.546875 3.75 -0.546875 C 4.582031 -0.546875 5.59375 -1.375 6.78125 -3.03125 C 7.96875 -4.6875 9.003906 -6.515625 9.890625 -8.515625 C 9.941406 -10.179688 10.132812 -11.335938 10.46875 -11.984375 C 10.8125 -12.640625 11.296875 -12.96875 11.921875 -12.96875 C 12.492188 -12.96875 12.914062 -12.785156 13.1875 -12.421875 C 13.457031 -12.054688 13.59375 -11.664062 13.59375 -11.25 C 13.59375 -10.988281 13.535156 -10.738281 13.421875 -10.5 C 13.304688 -10.269531 13.234375 -10.117188 13.203125 -10.046875 C 12.941406 -9.597656 12.734375 -9.109375 12.578125 -8.578125 C 12.421875 -8.046875 12.34375 -7.320312 12.34375 -6.40625 C 12.34375 -4.582031 12.90625 -3.671875 14.03125 -3.671875 C 14.550781 -3.671875 15.054688 -3.890625 15.546875 -4.328125 C 16.046875 -4.773438 16.554688 -5.519531 17.078125 -6.5625 L 17.5 -6.21875 C 16.925781 -4.863281 16.28125 -3.878906 15.5625 -3.265625 C 14.851562 -2.648438 14.117188 -2.34375 13.359375 -2.34375 C 12.554688 -2.34375 11.875 -2.664062 11.3125 -3.3125 C 10.75 -3.96875 10.328125 -4.859375 10.046875 -5.984375 C 8.898438 -3.847656 7.707031 -2.0625 6.46875 -0.625 C 5.226562 0.8125 4.035156 1.53125 2.890625 1.53125 Z M 2.890625 1.53125 "/></g></g></g><g fill="#ffffff" fill-opacity="1"><g transform="translate(254.167814, 224.291253)"><g><path d="M 7.734375 -16.453125 C 7.191406 -16.453125 6.726562 -16.582031 6.34375 -16.84375 C 5.96875 -17.101562 5.78125 -17.476562 5.78125 -17.96875 C 5.78125 -18.570312 6.113281 -19.097656 6.78125 -19.546875 C 7.445312 -20.003906 8.15625 -20.234375 8.90625 -20.234375 C 10.03125 -20.234375 10.59375 -19.753906 10.59375 -18.796875 C 10.59375 -18.242188 10.289062 -17.710938 9.6875 -17.203125 C 9.09375 -16.703125 8.441406 -16.453125 7.734375 -16.453125 Z M 3.125 1.171875 C 2.03125 1.171875 1.179688 0.84375 0.578125 0.1875 C -0.015625 -0.457031 -0.3125 -1.289062 -0.3125 -2.3125 C -0.3125 -3.351562 -0.0195312 -4.765625 0.5625 -6.546875 C 1.15625 -8.328125 1.898438 -9.894531 2.796875 -11.25 C 3.691406 -12.601562 4.597656 -13.28125 5.515625 -13.28125 C 5.847656 -13.28125 6.125 -13.179688 6.34375 -12.984375 C 6.570312 -12.796875 6.6875 -12.519531 6.6875 -12.15625 C 6.6875 -11.914062 6.582031 -11.59375 6.375 -11.1875 C 6.164062 -10.789062 5.828125 -10.210938 5.359375 -9.453125 C 4.523438 -8.078125 3.863281 -6.859375 3.375 -5.796875 C 2.894531 -4.742188 2.65625 -3.75 2.65625 -2.8125 C 2.65625 -2.007812 2.796875 -1.460938 3.078125 -1.171875 C 3.367188 -0.890625 3.816406 -0.75 4.421875 -0.75 C 6.472656 -0.75 8.515625 -2.738281 10.546875 -6.71875 L 11.140625 -6.09375 C 10.222656 -3.800781 9.0625 -2.015625 7.65625 -0.734375 C 6.25 0.535156 4.738281 1.171875 3.125 1.171875 Z M 3.125 1.171875 "/></g></g></g><g fill="#ffffff" fill-opacity="1"><g transform="translate(263.698653, 224.291253)"><g><path d="M 4.53125 1.71875 C 2.894531 1.71875 1.617188 1.273438 0.703125 0.390625 C -0.210938 -0.492188 -0.671875 -1.628906 -0.671875 -3.015625 C -0.671875 -4.523438 -0.160156 -6.15625 0.859375 -7.90625 C 1.878906 -9.664062 3.179688 -11.140625 4.765625 -12.328125 C 6.359375 -13.515625 7.921875 -14.109375 9.453125 -14.109375 C 10.265625 -14.109375 10.941406 -13.90625 11.484375 -13.5 C 12.035156 -13.09375 12.3125 -12.421875 12.3125 -11.484375 C 12.3125 -10.234375 11.828125 -9.054688 10.859375 -7.953125 C 9.898438 -6.847656 8.65625 -5.941406 7.125 -5.234375 C 5.601562 -4.535156 4.050781 -4.09375 2.46875 -3.90625 C 2.414062 -3.644531 2.390625 -3.347656 2.390625 -3.015625 C 2.390625 -2.335938 2.578125 -1.65625 2.953125 -0.96875 C 3.328125 -0.289062 4.140625 0.046875 5.390625 0.046875 C 6.984375 0.046875 8.601562 -0.597656 10.25 -1.890625 C 11.90625 -3.179688 13.242188 -4.789062 14.265625 -6.71875 L 15.046875 -6.09375 C 14.003906 -3.75 12.507812 -1.859375 10.5625 -0.421875 C 8.625 1.003906 6.613281 1.71875 4.53125 1.71875 Z M 2.890625 -5.359375 C 3.828125 -5.460938 4.875 -5.835938 6.03125 -6.484375 C 7.195312 -7.140625 8.179688 -7.941406 8.984375 -8.890625 C 9.796875 -9.835938 10.203125 -10.769531 10.203125 -11.6875 C 10.203125 -11.96875 10.148438 -12.160156 10.046875 -12.265625 C 9.941406 -12.367188 9.769531 -12.421875 9.53125 -12.421875 C 8.78125 -12.421875 7.953125 -12.0625 7.046875 -11.34375 C 6.148438 -10.632812 5.320312 -9.734375 4.5625 -8.640625 C 3.8125 -7.546875 3.253906 -6.453125 2.890625 -5.359375 Z M 2.890625 -5.359375 "/></g></g></g><g fill="#ffffff" fill-opacity="1"><g transform="translate(277.018389, 224.291253)"><g><path d="M 4.578125 2 C 2.753906 2 1.40625 1.46875 0.53125 0.40625 C -0.34375 -0.644531 -0.78125 -1.898438 -0.78125 -3.359375 C -0.78125 -4.378906 -0.597656 -5.085938 -0.234375 -5.484375 C 0.128906 -5.890625 0.539062 -6.195312 1 -6.40625 C 1.457031 -6.613281 1.722656 -6.757812 1.796875 -6.84375 C 3.460938 -8.5625 4.726562 -10.34375 5.59375 -12.1875 L 5.59375 -12.578125 C 5.59375 -13.546875 5.753906 -14.265625 6.078125 -14.734375 C 6.398438 -15.203125 6.820312 -15.4375 7.34375 -15.4375 C 7.914062 -15.4375 8.226562 -15.175781 8.28125 -14.65625 C 8.28125 -14.519531 8.25 -14.320312 8.1875 -14.0625 C 8.125 -13.800781 8.09375 -13.53125 8.09375 -13.25 C 8.09375 -12.75 8.171875 -12.222656 8.328125 -11.671875 C 8.484375 -11.128906 8.726562 -10.390625 9.0625 -9.453125 C 9.476562 -8.304688 9.796875 -7.316406 10.015625 -6.484375 C 10.242188 -5.648438 10.359375 -4.804688 10.359375 -3.953125 C 10.359375 -3.503906 10.304688 -2.96875 10.203125 -2.34375 C 11.972656 -2.789062 13.507812 -4.265625 14.8125 -6.765625 L 15.28125 -6.40625 C 14.757812 -4.925781 14.035156 -3.726562 13.109375 -2.8125 C 12.179688 -1.90625 11.09375 -1.359375 9.84375 -1.171875 C 9.425781 -0.128906 8.75 0.65625 7.8125 1.1875 C 6.875 1.726562 5.796875 2 4.578125 2 Z M 7.109375 -2.421875 C 7.191406 -2.660156 7.234375 -3.066406 7.234375 -3.640625 C 7.203125 -4.472656 7.109375 -5.289062 6.953125 -6.09375 C 6.796875 -6.90625 6.5625 -7.945312 6.25 -9.21875 L 5.90625 -10.625 C 4.625 -8.414062 3.488281 -6.789062 2.5 -5.75 C 2.945312 -4.988281 3.570312 -4.300781 4.375 -3.6875 C 5.1875 -3.082031 6.097656 -2.660156 7.109375 -2.421875 Z M 4.296875 0.28125 C 4.816406 0.28125 5.304688 0.148438 5.765625 -0.109375 C 6.222656 -0.378906 6.566406 -0.757812 6.796875 -1.25 C 5.785156 -1.457031 4.847656 -1.851562 3.984375 -2.4375 C 3.128906 -3.03125 2.441406 -3.664062 1.921875 -4.34375 C 1.554688 -4.257812 1.375 -3.90625 1.375 -3.28125 C 1.375 -2.34375 1.632812 -1.515625 2.15625 -0.796875 C 2.675781 -0.078125 3.390625 0.28125 4.296875 0.28125 Z M 4.296875 0.28125 "/></g></g></g></svg>