<svg xmlns="http://www.w3.org/2000/svg" xmlns:xlink="http://www.w3.org/1999/xlink" width="456" zoomAndPan="magnify" viewBox="0 0 342 72" height="96" preserveAspectRatio="xMidYMid meet" version="1.0"><defs><g/><clipPath id="2b11c927ad"><path d="M 6.632812 7.199219 L 52 7.199219 L 52 35 L 6.632812 35 Z M 6.632812 7.199219 " clip-rule="nonzero"/></clipPath><clipPath id="59b6268510"><path d="M 44 7.199219 L 49 7.199219 L 49 16 L 44 16 Z M 44 7.199219 " clip-rule="nonzero"/></clipPath><clipPath id="3c16172a0a"><path d="M 34 61 L 55 61 L 55 67.199219 L 34 67.199219 Z M 34 61 " clip-rule="nonzero"/></clipPath></defs><g clip-path="url(#2b11c927ad)"><path fill="#f8f9fd" d="M 51.511719 12.601562 L 9.621094 34.621094 L 6.804688 29.304688 L 48.695312 7.285156 L 51.511719 12.601562 " fill-opacity="1" fill-rule="nonzero"/><path fill="#adb0c6" d="M 51.511719 12.601562 L 51.480469 12.542969 L 9.648438 34.527344 L 6.894531 29.332031 L 48.667969 7.375 L 51.453125 12.632812 L 51.511719 12.601562 L 51.480469 12.542969 L 51.511719 12.601562 L 51.574219 12.570312 L 48.722656 7.191406 L 6.710938 29.277344 L 9.589844 34.714844 L 51.605469 12.628906 L 51.574219 12.570312 L 51.511719 12.601562 " fill-opacity="1" fill-rule="nonzero"/></g><path fill="#191716" d="M 13.394531 32.292969 L 9.769531 34.199219 L 10.089844 28.070312 L 13.710938 26.167969 L 13.394531 32.292969 " fill-opacity="1" fill-rule="nonzero"/><path fill="#191716" d="M 20.363281 28.628906 L 16.742188 30.535156 L 17.058594 24.40625 L 20.679688 22.503906 L 20.363281 28.628906 " fill-opacity="1" fill-rule="nonzero"/><path fill="#191716" d="M 27.332031 24.96875 L 23.710938 26.871094 L 24.03125 20.742188 L 27.652344 18.839844 L 27.332031 24.96875 " fill-opacity="1" fill-rule="nonzero"/><path fill="#191716" d="M 34.304688 21.300781 L 30.683594 23.207031 L 31 17.078125 L 34.621094 15.175781 L 34.304688 21.300781 " fill-opacity="1" fill-rule="nonzero"/><path fill="#191716" d="M 41.273438 17.636719 L 37.652344 19.542969 L 37.972656 13.414062 L 41.59375 11.511719 L 41.273438 17.636719 " fill-opacity="1" fill-rule="nonzero"/><g clip-path="url(#59b6268510)"><path fill="#191716" d="M 48.246094 13.976562 L 44.625 15.878906 L 44.945312 9.75 L 48.5625 7.847656 L 48.246094 13.976562 " fill-opacity="1" fill-rule="nonzero"/></g><path fill="#191716" d="M 7.804688 30.265625 L 10.097656 38.890625 C 10.097656 38.890625 10.425781 39.539062 11.054688 39.464844 L 20.058594 37.09375 C 20.058594 37.09375 20.613281 36.394531 19.648438 35.542969 L 9.511719 29.816406 C 9.511719 29.816406 8.117188 28.894531 7.804688 30.265625 " fill-opacity="1" fill-rule="nonzero"/><path fill="#161413" d="M 7.804688 30.265625 L 7.742188 30.285156 L 10.03125 38.914062 L 10.035156 38.921875 C 10.035156 38.925781 10.113281 39.074219 10.265625 39.230469 C 10.417969 39.382812 10.648438 39.539062 10.957031 39.539062 C 10.992188 39.539062 11.027344 39.539062 11.0625 39.535156 L 11.066406 39.53125 L 20.101562 37.15625 L 20.113281 37.136719 C 20.117188 37.128906 20.285156 36.917969 20.285156 36.578125 C 20.289062 36.285156 20.152344 35.898438 19.691406 35.492188 L 19.6875 35.488281 L 9.546875 29.757812 L 9.511719 29.816406 L 9.550781 29.761719 C 9.542969 29.757812 9.082031 29.449219 8.601562 29.445312 C 8.425781 29.445312 8.238281 29.492188 8.085938 29.617188 C 7.929688 29.746094 7.808594 29.949219 7.738281 30.253906 L 7.734375 30.269531 L 7.742188 30.285156 L 7.804688 30.265625 L 7.871094 30.28125 C 7.9375 30 8.046875 29.828125 8.171875 29.722656 C 8.296875 29.621094 8.445312 29.582031 8.601562 29.582031 C 8.8125 29.582031 9.03125 29.652344 9.199219 29.726562 C 9.28125 29.765625 9.351562 29.800781 9.398438 29.828125 C 9.421875 29.84375 9.441406 29.855469 9.457031 29.863281 L 9.472656 29.875 L 9.476562 29.875 L 19.613281 35.601562 L 19.648438 35.542969 L 19.601562 35.59375 C 20.042969 35.980469 20.148438 36.324219 20.148438 36.578125 C 20.148438 36.726562 20.113281 36.84375 20.078125 36.929688 C 20.058594 36.96875 20.039062 37 20.027344 37.023438 L 20.011719 37.046875 L 20.007812 37.050781 L 20.007812 37.054688 L 20.058594 37.09375 L 20.042969 37.03125 L 11.039062 39.402344 L 11.054688 39.464844 L 11.046875 39.398438 C 11.015625 39.402344 10.984375 39.402344 10.957031 39.402344 C 10.699219 39.402344 10.5 39.273438 10.363281 39.132812 C 10.296875 39.0625 10.242188 38.996094 10.207031 38.941406 C 10.191406 38.917969 10.175781 38.894531 10.167969 38.878906 L 10.160156 38.863281 L 10.15625 38.859375 L 10.097656 38.890625 L 10.160156 38.871094 L 7.871094 30.25 L 7.804688 30.265625 L 7.871094 30.28125 L 7.804688 30.265625 " fill-opacity="1" fill-rule="nonzero"/><path fill="#999697" d="M 19.152344 36.113281 C 19.222656 36.386719 19.058594 36.667969 18.785156 36.738281 C 18.507812 36.8125 18.226562 36.648438 18.152344 36.375 C 18.082031 36.101562 18.246094 35.820312 18.519531 35.746094 C 18.796875 35.675781 19.078125 35.839844 19.152344 36.113281 " fill-opacity="1" fill-rule="nonzero"/><path fill="#515d65" d="M 19.152344 36.113281 L 19.085938 36.128906 C 19.09375 36.167969 19.097656 36.207031 19.097656 36.242188 C 19.097656 36.441406 18.964844 36.621094 18.765625 36.671875 C 18.730469 36.683594 18.691406 36.6875 18.652344 36.6875 C 18.453125 36.6875 18.273438 36.554688 18.21875 36.355469 C 18.210938 36.316406 18.207031 36.28125 18.207031 36.242188 C 18.207031 36.046875 18.335938 35.867188 18.539062 35.8125 C 18.578125 35.800781 18.613281 35.796875 18.652344 35.796875 C 18.847656 35.796875 19.03125 35.929688 19.085938 36.128906 L 19.152344 36.113281 L 19.214844 36.09375 C 19.148438 35.832031 18.910156 35.660156 18.652344 35.660156 C 18.601562 35.660156 18.554688 35.667969 18.503906 35.683594 C 18.242188 35.75 18.070312 35.984375 18.070312 36.242188 C 18.070312 36.292969 18.074219 36.34375 18.089844 36.390625 C 18.15625 36.652344 18.394531 36.824219 18.652344 36.824219 C 18.703125 36.824219 18.753906 36.816406 18.800781 36.804688 C 19.0625 36.734375 19.234375 36.5 19.234375 36.242188 C 19.234375 36.195312 19.230469 36.144531 19.214844 36.09375 L 19.152344 36.113281 " fill-opacity="1" fill-rule="nonzero"/><path fill="#999697" d="M 11.617188 38.097656 C 11.691406 38.371094 11.527344 38.648438 11.253906 38.722656 C 10.976562 38.796875 10.695312 38.632812 10.621094 38.359375 C 10.550781 38.085938 10.714844 37.804688 10.988281 37.730469 C 11.261719 37.660156 11.546875 37.820312 11.617188 38.097656 " fill-opacity="1" fill-rule="nonzero"/><path fill="#515d65" d="M 11.617188 38.097656 L 11.550781 38.113281 C 11.5625 38.152344 11.566406 38.191406 11.566406 38.226562 C 11.566406 38.425781 11.433594 38.605469 11.234375 38.65625 C 11.195312 38.667969 11.15625 38.671875 11.121094 38.671875 C 10.921875 38.671875 10.742188 38.539062 10.6875 38.339844 C 10.679688 38.300781 10.671875 38.265625 10.671875 38.226562 C 10.671875 38.03125 10.804688 37.847656 11.007812 37.796875 C 11.042969 37.789062 11.082031 37.78125 11.121094 37.78125 C 11.316406 37.78125 11.5 37.914062 11.550781 38.113281 L 11.617188 38.097656 L 11.683594 38.078125 C 11.613281 37.816406 11.378906 37.644531 11.121094 37.644531 C 11.070312 37.644531 11.019531 37.652344 10.972656 37.664062 C 10.710938 37.734375 10.535156 37.96875 10.535156 38.226562 C 10.535156 38.277344 10.542969 38.328125 10.554688 38.375 C 10.625 38.636719 10.859375 38.808594 11.121094 38.808594 C 11.167969 38.808594 11.21875 38.800781 11.269531 38.789062 C 11.53125 38.71875 11.703125 38.484375 11.703125 38.226562 C 11.703125 38.179688 11.695312 38.128906 11.683594 38.078125 L 11.617188 38.097656 " fill-opacity="1" fill-rule="nonzero"/><path fill="#999697" d="M 9.695312 30.855469 C 9.769531 31.128906 9.605469 31.40625 9.328125 31.480469 C 9.054688 31.550781 8.773438 31.390625 8.699219 31.113281 C 8.625 30.84375 8.792969 30.5625 9.066406 30.488281 C 9.339844 30.414062 9.621094 30.578125 9.695312 30.855469 " fill-opacity="1" fill-rule="nonzero"/><path fill="#515d65" d="M 9.695312 30.855469 L 9.628906 30.871094 C 9.636719 30.910156 9.644531 30.945312 9.644531 30.984375 C 9.644531 31.179688 9.511719 31.363281 9.3125 31.414062 C 9.273438 31.425781 9.234375 31.429688 9.195312 31.429688 C 9 31.429688 8.816406 31.296875 8.765625 31.097656 C 8.753906 31.058594 8.75 31.019531 8.75 30.984375 C 8.75 30.785156 8.882812 30.605469 9.082031 30.554688 C 9.121094 30.542969 9.160156 30.539062 9.199219 30.539062 C 9.394531 30.539062 9.574219 30.671875 9.628906 30.871094 L 9.695312 30.855469 L 9.761719 30.835938 C 9.691406 30.574219 9.457031 30.402344 9.199219 30.402344 C 9.148438 30.402344 9.097656 30.410156 9.046875 30.421875 C 8.785156 30.492188 8.613281 30.726562 8.613281 30.984375 C 8.613281 31.03125 8.621094 31.082031 8.632812 31.132812 C 8.703125 31.394531 8.9375 31.566406 9.195312 31.566406 C 9.246094 31.566406 9.296875 31.558594 9.347656 31.546875 C 9.605469 31.476562 9.78125 31.242188 9.78125 30.984375 C 9.78125 30.9375 9.773438 30.886719 9.761719 30.835938 L 9.695312 30.855469 " fill-opacity="1" fill-rule="nonzero"/><path fill="#181719" d="M 61.839844 52.265625 C 62.035156 53.003906 61.59375 53.761719 60.851562 53.957031 L 19.25 64.914062 C 18.507812 65.113281 17.746094 64.667969 17.550781 63.929688 L 10.5625 37.625 C 10.367188 36.886719 10.808594 36.128906 11.554688 35.929688 L 53.152344 24.972656 C 53.898438 24.777344 54.660156 25.21875 54.855469 25.957031 L 61.839844 52.265625 " fill-opacity="1" fill-rule="nonzero"/><path fill="#131211" d="M 61.839844 52.265625 L 61.773438 52.28125 C 61.804688 52.394531 61.816406 52.507812 61.816406 52.617188 C 61.816406 53.203125 61.425781 53.734375 60.835938 53.890625 L 19.234375 64.851562 C 19.121094 64.878906 19.003906 64.894531 18.894531 64.894531 C 18.308594 64.894531 17.773438 64.503906 17.617188 63.914062 L 10.628906 37.605469 C 10.601562 37.496094 10.585938 37.382812 10.585938 37.269531 C 10.585938 36.6875 10.976562 36.152344 11.570312 35.996094 L 53.171875 25.039062 C 53.285156 25.007812 53.398438 24.996094 53.511719 24.996094 C 54.097656 24.996094 54.632812 25.382812 54.789062 25.976562 L 61.773438 52.28125 L 61.839844 52.265625 L 61.90625 52.246094 L 54.921875 25.941406 C 54.746094 25.289062 54.15625 24.859375 53.511719 24.859375 C 53.386719 24.859375 53.261719 24.875 53.136719 24.90625 L 11.535156 35.867188 C 10.882812 36.039062 10.449219 36.625 10.449219 37.269531 C 10.449219 37.390625 10.464844 37.515625 10.5 37.640625 L 17.484375 63.949219 C 17.65625 64.597656 18.246094 65.03125 18.894531 65.03125 C 19.015625 65.03125 19.140625 65.015625 19.265625 64.980469 L 60.867188 54.023438 C 61.523438 53.851562 61.953125 53.261719 61.953125 52.617188 C 61.953125 52.496094 61.9375 52.371094 61.90625 52.246094 L 61.839844 52.265625 " fill-opacity="1" fill-rule="nonzero"/><path fill="#f8f9fd" d="M 56.277344 28.285156 L 10.484375 40.347656 L 8.9375 34.535156 L 54.734375 22.472656 L 56.277344 28.285156 " fill-opacity="1" fill-rule="nonzero"/><path fill="#adb0c6" d="M 56.277344 28.285156 L 56.257812 28.21875 L 10.53125 40.265625 L 9.023438 34.585938 L 54.683594 22.554688 L 56.210938 28.300781 L 56.277344 28.285156 L 56.257812 28.21875 L 56.277344 28.285156 L 56.34375 28.269531 L 54.78125 22.390625 L 8.855469 34.488281 L 10.433594 40.429688 L 56.359375 28.332031 L 56.34375 28.269531 L 56.277344 28.285156 " fill-opacity="1" fill-rule="nonzero"/><path fill="#191716" d="M 14.683594 38.925781 L 10.726562 39.96875 L 12.417969 34.070312 L 16.378906 33.027344 L 14.683594 38.925781 " fill-opacity="1" fill-rule="nonzero"/><path fill="#191716" d="M 22.304688 36.917969 L 18.347656 37.960938 L 20.039062 32.0625 L 24 31.019531 L 22.304688 36.917969 " fill-opacity="1" fill-rule="nonzero"/><path fill="#191716" d="M 29.921875 34.914062 L 25.964844 35.953125 L 27.660156 30.054688 L 31.617188 29.011719 L 29.921875 34.914062 " fill-opacity="1" fill-rule="nonzero"/><path fill="#191716" d="M 37.542969 32.902344 L 33.585938 33.945312 L 35.28125 28.046875 L 39.238281 27.003906 L 37.542969 32.902344 " fill-opacity="1" fill-rule="nonzero"/><path fill="#191716" d="M 45.164062 30.898438 L 41.207031 31.941406 L 42.902344 26.039062 L 46.855469 24.996094 L 45.164062 30.898438 " fill-opacity="1" fill-rule="nonzero"/><path fill="#191716" d="M 52.78125 28.890625 L 48.824219 29.933594 L 50.519531 24.03125 L 54.476562 22.992188 L 52.78125 28.890625 " fill-opacity="1" fill-rule="nonzero"/><path fill="#ffffff" d="M 15.074219 43.785156 L 53.773438 33.589844 L 53.667969 33.195312 L 14.96875 43.390625 " fill-opacity="1" fill-rule="nonzero"/><path fill="#ffffff" d="M 17.339844 52.320312 L 56.039062 42.128906 L 55.933594 41.734375 L 17.234375 51.925781 " fill-opacity="1" fill-rule="nonzero"/><path fill="#ffffff" d="M 19.148438 59.132812 L 57.847656 48.941406 L 57.742188 48.546875 L 19.046875 58.738281 " fill-opacity="1" fill-rule="nonzero"/><path fill="#ffffff" d="M 26.007812 49.828125 L 27.816406 56.640625 L 28.210938 56.535156 L 26.402344 49.722656 " fill-opacity="1" fill-rule="nonzero"/><path fill="#ffffff" d="M 46.09375 44.535156 L 47.902344 51.347656 L 48.296875 51.246094 L 46.488281 44.433594 " fill-opacity="1" fill-rule="nonzero"/><g clip-path="url(#3c16172a0a)"><path fill="#c62436" d="M 54.253906 64.199219 C 54.253906 62.546875 49.738281 61.210938 44.167969 61.210938 C 38.59375 61.210938 34.078125 62.546875 34.078125 64.199219 C 34.078125 65.851562 38.59375 67.191406 44.167969 67.191406 C 49.738281 67.191406 54.253906 65.851562 54.253906 64.199219 " fill-opacity="1" fill-rule="nonzero"/></g><path fill="#e6e8b0" d="M 56.097656 38.5625 L 32.117188 38.5625 L 34.078125 63.859375 L 54.140625 63.859375 L 56.097656 38.5625 " fill-opacity="1" fill-rule="nonzero"/><path fill="#c62436" d="M 41.722656 38.925781 L 38.785156 38.925781 L 39.429688 64.222656 L 41.722656 64.222656 L 41.722656 38.925781 " fill-opacity="1" fill-rule="nonzero"/><path fill="#c62436" d="M 46.371094 38.925781 L 49.546875 38.925781 L 48.902344 64.222656 L 46.371094 64.222656 L 46.371094 38.925781 " fill-opacity="1" fill-rule="nonzero"/><path fill="#c62436" d="M 35.554688 38.925781 L 32.117188 38.925781 L 34.078125 64.222656 L 36.621094 64.222656 L 35.554688 38.925781 " fill-opacity="1" fill-rule="nonzero"/><path fill="#c62436" d="M 52.859375 38.925781 L 56.214844 38.925781 L 54.253906 64.222656 L 51.792969 64.222656 L 52.859375 38.925781 " fill-opacity="1" fill-rule="nonzero"/><path fill="#c62436" d="M 50.542969 50.957031 C 50.542969 47.414062 47.660156 44.539062 44.097656 44.539062 C 40.539062 44.539062 37.652344 47.414062 37.652344 50.957031 C 37.652344 54.503906 40.539062 57.378906 44.097656 57.378906 C 47.660156 57.378906 50.542969 54.503906 50.542969 50.957031 " fill-opacity="1" fill-rule="nonzero"/><path fill="#e6e8b0" d="M 48.910156 50.957031 C 48.910156 48.3125 46.753906 46.167969 44.097656 46.167969 C 41.441406 46.167969 39.289062 48.3125 39.289062 50.957031 C 39.289062 53.605469 41.441406 55.75 44.097656 55.75 C 46.753906 55.75 48.910156 53.605469 48.910156 50.957031 " fill-opacity="1" fill-rule="nonzero"/><path fill="#c62436" d="M 54.253906 62.757812 C 52.230469 63.496094 49.738281 64.222656 44.167969 64.222656 C 38.59375 64.222656 36.351562 63.496094 34.078125 62.757812 C 34.078125 62.996094 33.910156 64.199219 34.371094 64.40625 C 35.851562 65.074219 39.910156 65.125 44.167969 65.125 C 48.144531 65.125 52.03125 65.15625 53.671875 64.554688 C 54.332031 64.316406 54.253906 63.042969 54.253906 62.757812 " fill-opacity="1" fill-rule="nonzero"/><path fill="#efb11c" d="M 55.855469 65.496094 C 56.078125 65.199219 56.175781 64.804688 56.089844 64.449219 C 56.273438 64.335938 56.429688 64.175781 56.53125 63.972656 C 56.816406 63.398438 56.570312 62.675781 55.988281 62.390625 L 55.898438 62.347656 C 55.839844 62.316406 55.777344 62.296875 55.71875 62.28125 C 55.703125 61.910156 55.519531 61.542969 55.078125 61.328125 C 54.160156 60.878906 53.386719 61.679688 53.386719 62.457031 C 52.855469 62.316406 52.261719 62.566406 52.011719 63.074219 L 51.976562 63.144531 C 51.75 63.597656 51.855469 64.132812 52.1875 64.484375 C 52.09375 64.574219 52.011719 64.675781 51.949219 64.800781 C 51.664062 65.378906 51.910156 66.097656 52.488281 66.382812 L 52.628906 66.453125 C 53.023438 66.644531 53.472656 66.59375 53.816406 66.363281 C 53.898438 66.4375 53.980469 66.5 54.082031 66.550781 L 54.152344 66.585938 C 54.734375 66.871094 55.457031 66.625 55.742188 66.046875 C 55.832031 65.871094 55.863281 65.683594 55.855469 65.496094 " fill-opacity="1" fill-rule="nonzero"/><path fill="#c62436" d="M 41.234375 49.21875 C 41.238281 49.328125 41.261719 49.425781 41.300781 49.515625 C 41.34375 49.609375 41.398438 49.6875 41.460938 49.753906 C 41.53125 49.820312 41.605469 49.871094 41.695312 49.90625 C 41.785156 49.945312 41.878906 49.964844 41.976562 49.964844 C 42.078125 49.964844 42.175781 49.945312 42.265625 49.90625 C 42.359375 49.867188 42.4375 49.8125 42.503906 49.746094 C 42.574219 49.679688 42.625 49.601562 42.664062 49.507812 C 42.703125 49.417969 42.722656 49.320312 42.722656 49.21875 C 42.722656 49.117188 42.703125 49.023438 42.664062 48.933594 C 42.625 48.84375 42.574219 48.765625 42.503906 48.699219 C 42.4375 48.628906 42.359375 48.578125 42.265625 48.539062 C 42.175781 48.5 42.078125 48.480469 41.976562 48.480469 C 41.878906 48.480469 41.785156 48.5 41.695312 48.535156 C 41.605469 48.574219 41.53125 48.625 41.460938 48.6875 C 41.398438 48.75 41.34375 48.824219 41.300781 48.914062 C 41.261719 49 41.238281 49.089844 41.234375 49.191406 Z M 40.980469 48.34375 C 40.980469 48.308594 40.992188 48.277344 41.015625 48.253906 C 41.039062 48.230469 41.070312 48.21875 41.105469 48.21875 C 41.144531 48.21875 41.171875 48.230469 41.199219 48.253906 C 41.222656 48.277344 41.234375 48.308594 41.234375 48.34375 L 41.234375 48.550781 C 41.328125 48.449219 41.4375 48.371094 41.5625 48.3125 C 41.691406 48.257812 41.828125 48.230469 41.976562 48.230469 C 42.117188 48.230469 42.25 48.253906 42.371094 48.308594 C 42.492188 48.359375 42.597656 48.433594 42.6875 48.523438 C 42.777344 48.613281 42.847656 48.71875 42.902344 48.839844 C 42.953125 48.957031 42.980469 49.085938 42.980469 49.21875 C 42.980469 49.359375 42.953125 49.488281 42.898438 49.609375 C 42.84375 49.730469 42.773438 49.835938 42.683594 49.925781 C 42.589844 50.015625 42.484375 50.089844 42.363281 50.140625 C 42.246094 50.195312 42.117188 50.222656 41.984375 50.222656 C 41.832031 50.21875 41.691406 50.179688 41.5625 50.105469 C 41.4375 50.03125 41.328125 49.945312 41.234375 49.847656 L 41.234375 50.84375 C 41.234375 50.878906 41.222656 50.90625 41.199219 50.933594 C 41.171875 50.957031 41.144531 50.96875 41.105469 50.96875 C 41.070312 50.96875 41.039062 50.957031 41.015625 50.933594 C 40.992188 50.90625 40.980469 50.878906 40.980469 50.84375 L 40.980469 48.34375 " fill-opacity="1" fill-rule="nonzero"/><path fill="#c62436" d="M 43.386719 49.226562 C 43.386719 49.332031 43.40625 49.425781 43.445312 49.515625 C 43.484375 49.605469 43.535156 49.683594 43.601562 49.75 C 43.671875 49.816406 43.75 49.871094 43.839844 49.910156 C 43.929688 49.949219 44.023438 49.96875 44.128906 49.96875 C 44.230469 49.96875 44.324219 49.949219 44.417969 49.910156 C 44.507812 49.871094 44.589844 49.816406 44.65625 49.75 C 44.722656 49.683594 44.777344 49.605469 44.816406 49.515625 C 44.855469 49.425781 44.871094 49.332031 44.871094 49.226562 C 44.871094 49.125 44.855469 49.03125 44.816406 48.9375 C 44.777344 48.847656 44.722656 48.769531 44.65625 48.703125 C 44.589844 48.632812 44.507812 48.582031 44.417969 48.542969 C 44.324219 48.503906 44.230469 48.484375 44.128906 48.484375 C 44.023438 48.484375 43.929688 48.503906 43.839844 48.542969 C 43.75 48.582031 43.671875 48.632812 43.601562 48.703125 C 43.535156 48.769531 43.484375 48.847656 43.445312 48.9375 C 43.40625 49.03125 43.386719 49.125 43.386719 49.226562 Z M 44.136719 48.226562 C 44.269531 48.226562 44.394531 48.253906 44.515625 48.304688 C 44.636719 48.359375 44.742188 48.433594 44.832031 48.523438 C 44.921875 48.613281 44.996094 48.71875 45.050781 48.839844 C 45.101562 48.960938 45.128906 49.089844 45.128906 49.226562 C 45.128906 49.363281 45.105469 49.492188 45.050781 49.609375 C 45 49.730469 44.929688 49.835938 44.835938 49.925781 C 44.746094 50.015625 44.644531 50.089844 44.519531 50.140625 C 44.398438 50.191406 44.269531 50.21875 44.128906 50.21875 C 43.988281 50.21875 43.859375 50.195312 43.738281 50.144531 C 43.621094 50.09375 43.515625 50.027344 43.421875 49.9375 C 43.332031 49.851562 43.261719 49.746094 43.207031 49.625 C 43.15625 49.503906 43.128906 49.371094 43.128906 49.226562 C 43.128906 49.089844 43.152344 48.960938 43.207031 48.84375 C 43.257812 48.722656 43.328125 48.617188 43.417969 48.527344 C 43.507812 48.4375 43.613281 48.367188 43.734375 48.3125 C 43.859375 48.261719 43.992188 48.230469 44.136719 48.226562 " fill-opacity="1" fill-rule="nonzero"/><path fill="#c62436" d="M 45.535156 49.21875 C 45.539062 49.328125 45.5625 49.425781 45.601562 49.515625 C 45.644531 49.609375 45.699219 49.6875 45.765625 49.753906 C 45.832031 49.820312 45.90625 49.871094 45.996094 49.90625 C 46.085938 49.945312 46.179688 49.964844 46.277344 49.964844 C 46.378906 49.964844 46.476562 49.945312 46.566406 49.90625 C 46.660156 49.867188 46.738281 49.8125 46.804688 49.746094 C 46.875 49.679688 46.925781 49.601562 46.964844 49.507812 C 47.003906 49.417969 47.023438 49.320312 47.023438 49.21875 C 47.023438 49.117188 47.003906 49.023438 46.964844 48.933594 C 46.925781 48.84375 46.875 48.765625 46.804688 48.699219 C 46.738281 48.628906 46.660156 48.578125 46.566406 48.539062 C 46.476562 48.5 46.378906 48.480469 46.277344 48.480469 C 46.179688 48.480469 46.085938 48.5 45.996094 48.535156 C 45.90625 48.574219 45.832031 48.625 45.765625 48.6875 C 45.699219 48.75 45.644531 48.824219 45.601562 48.914062 C 45.5625 49 45.539062 49.089844 45.535156 49.191406 Z M 45.277344 48.34375 C 45.277344 48.308594 45.292969 48.277344 45.316406 48.253906 C 45.339844 48.230469 45.371094 48.21875 45.40625 48.21875 C 45.445312 48.21875 45.472656 48.230469 45.5 48.253906 C 45.523438 48.277344 45.535156 48.308594 45.535156 48.34375 L 45.535156 48.550781 C 45.625 48.449219 45.734375 48.371094 45.863281 48.3125 C 45.992188 48.257812 46.128906 48.230469 46.277344 48.230469 C 46.417969 48.230469 46.550781 48.253906 46.671875 48.308594 C 46.792969 48.359375 46.898438 48.433594 46.988281 48.523438 C 47.078125 48.613281 47.148438 48.71875 47.203125 48.839844 C 47.253906 48.957031 47.28125 49.085938 47.28125 49.21875 C 47.28125 49.359375 47.253906 49.488281 47.199219 49.609375 C 47.144531 49.730469 47.074219 49.835938 46.980469 49.925781 C 46.890625 50.015625 46.785156 50.089844 46.664062 50.140625 C 46.546875 50.195312 46.417969 50.222656 46.285156 50.222656 C 46.132812 50.21875 45.992188 50.179688 45.863281 50.105469 C 45.734375 50.03125 45.625 49.945312 45.535156 49.847656 L 45.535156 50.84375 C 45.535156 50.878906 45.523438 50.90625 45.5 50.933594 C 45.472656 50.957031 45.445312 50.96875 45.40625 50.96875 C 45.371094 50.96875 45.339844 50.957031 45.316406 50.933594 C 45.292969 50.90625 45.277344 50.878906 45.277344 50.84375 L 45.277344 48.34375 " fill-opacity="1" fill-rule="nonzero"/><path fill="#c62436" d="M 42.265625 51.75 C 42.195312 51.691406 42.117188 51.640625 42.027344 51.601562 C 41.941406 51.566406 41.84375 51.546875 41.742188 51.546875 C 41.640625 51.546875 41.542969 51.566406 41.453125 51.605469 C 41.367188 51.644531 41.285156 51.695312 41.21875 51.765625 C 41.152344 51.832031 41.097656 51.910156 41.058594 52 C 41.019531 52.09375 41 52.1875 41 52.289062 C 41 52.394531 41.019531 52.488281 41.058594 52.578125 C 41.097656 52.667969 41.152344 52.746094 41.21875 52.8125 C 41.285156 52.878906 41.367188 52.933594 41.453125 52.972656 C 41.542969 53.007812 41.640625 53.027344 41.742188 53.027344 C 41.84375 53.027344 41.941406 53.011719 42.027344 52.972656 C 42.117188 52.9375 42.195312 52.882812 42.265625 52.820312 C 42.289062 52.792969 42.320312 52.78125 42.355469 52.78125 C 42.390625 52.78125 42.421875 52.792969 42.449219 52.820312 C 42.472656 52.84375 42.484375 52.875 42.480469 52.910156 C 42.480469 52.949219 42.464844 52.980469 42.433594 53.011719 C 42.410156 53.035156 42.375 53.066406 42.332031 53.097656 C 42.289062 53.128906 42.238281 53.160156 42.179688 53.1875 C 42.121094 53.214844 42.054688 53.234375 41.980469 53.253906 C 41.90625 53.273438 41.828125 53.28125 41.742188 53.28125 C 41.605469 53.28125 41.476562 53.257812 41.355469 53.207031 C 41.234375 53.15625 41.128906 53.089844 41.039062 53 C 40.949219 52.914062 40.875 52.808594 40.824219 52.6875 C 40.769531 52.566406 40.746094 52.433594 40.746094 52.289062 C 40.746094 52.152344 40.769531 52.023438 40.820312 51.90625 C 40.871094 51.785156 40.941406 51.679688 41.03125 51.589844 C 41.121094 51.5 41.226562 51.429688 41.351562 51.375 C 41.476562 51.324219 41.609375 51.292969 41.75 51.289062 C 41.832031 51.289062 41.910156 51.296875 41.980469 51.320312 C 42.050781 51.339844 42.113281 51.363281 42.171875 51.390625 C 42.230469 51.421875 42.277344 51.453125 42.324219 51.484375 C 42.367188 51.519531 42.402344 51.546875 42.429688 51.574219 C 42.449219 51.585938 42.460938 51.613281 42.472656 51.648438 C 42.488281 51.6875 42.476562 51.71875 42.449219 51.75 C 42.421875 51.773438 42.390625 51.785156 42.355469 51.785156 C 42.320312 51.785156 42.289062 51.773438 42.265625 51.75 " fill-opacity="1" fill-rule="nonzero"/><path fill="#c62436" d="M 42.8125 52.285156 C 42.8125 52.386719 42.832031 52.484375 42.871094 52.574219 C 42.910156 52.664062 42.960938 52.742188 43.03125 52.808594 C 43.097656 52.875 43.175781 52.929688 43.265625 52.96875 C 43.355469 53.007812 43.453125 53.023438 43.554688 53.023438 C 43.65625 53.023438 43.753906 53.007812 43.84375 52.96875 C 43.933594 52.929688 44.015625 52.875 44.082031 52.808594 C 44.148438 52.742188 44.203125 52.664062 44.242188 52.574219 C 44.28125 52.484375 44.300781 52.386719 44.300781 52.285156 C 44.300781 52.183594 44.28125 52.089844 44.242188 51.996094 C 44.203125 51.90625 44.148438 51.828125 44.082031 51.761719 C 44.015625 51.691406 43.933594 51.640625 43.84375 51.601562 C 43.753906 51.5625 43.65625 51.542969 43.554688 51.542969 C 43.453125 51.542969 43.355469 51.5625 43.265625 51.601562 C 43.175781 51.640625 43.097656 51.691406 43.03125 51.761719 C 42.960938 51.828125 42.910156 51.90625 42.871094 51.996094 C 42.832031 52.089844 42.8125 52.183594 42.8125 52.285156 Z M 43.5625 51.285156 C 43.695312 51.285156 43.820312 51.308594 43.941406 51.363281 C 44.0625 51.417969 44.167969 51.488281 44.257812 51.582031 C 44.347656 51.671875 44.421875 51.777344 44.476562 51.898438 C 44.53125 52.019531 44.558594 52.148438 44.558594 52.285156 C 44.558594 52.421875 44.53125 52.546875 44.476562 52.667969 C 44.425781 52.789062 44.355469 52.894531 44.265625 52.984375 C 44.175781 53.074219 44.070312 53.144531 43.949219 53.199219 C 43.824219 53.25 43.695312 53.277344 43.554688 53.277344 C 43.414062 53.277344 43.285156 53.25 43.167969 53.203125 C 43.046875 53.152344 42.941406 53.085938 42.851562 52.996094 C 42.757812 52.90625 42.6875 52.804688 42.632812 52.683594 C 42.582031 52.5625 42.554688 52.429688 42.554688 52.285156 C 42.554688 52.148438 42.582031 52.019531 42.632812 51.902344 C 42.683594 51.78125 42.753906 51.675781 42.84375 51.585938 C 42.933594 51.496094 43.039062 51.425781 43.164062 51.371094 C 43.285156 51.320312 43.417969 51.289062 43.5625 51.285156 " fill-opacity="1" fill-rule="nonzero"/><path fill="#c62436" d="M 44.699219 51.402344 C 44.699219 51.367188 44.710938 51.335938 44.734375 51.3125 C 44.757812 51.289062 44.789062 51.273438 44.824219 51.273438 C 44.863281 51.273438 44.890625 51.289062 44.917969 51.3125 C 44.941406 51.335938 44.953125 51.367188 44.953125 51.402344 L 44.953125 51.605469 C 45.042969 51.507812 45.148438 51.425781 45.273438 51.367188 C 45.398438 51.308594 45.53125 51.277344 45.679688 51.273438 C 45.722656 51.273438 45.757812 51.289062 45.785156 51.3125 C 45.8125 51.335938 45.824219 51.367188 45.824219 51.402344 C 45.824219 51.4375 45.8125 51.46875 45.785156 51.492188 C 45.757812 51.519531 45.722656 51.53125 45.679688 51.53125 C 45.582031 51.535156 45.488281 51.554688 45.402344 51.59375 C 45.316406 51.632812 45.242188 51.683594 45.175781 51.746094 C 45.109375 51.808594 45.058594 51.882812 45.019531 51.96875 C 44.976562 52.054688 44.957031 52.144531 44.953125 52.242188 L 44.953125 53.152344 C 44.953125 53.1875 44.941406 53.21875 44.917969 53.242188 C 44.890625 53.269531 44.863281 53.28125 44.824219 53.28125 C 44.789062 53.28125 44.757812 53.269531 44.734375 53.242188 C 44.710938 53.21875 44.699219 53.1875 44.699219 53.152344 L 44.699219 51.402344 " fill-opacity="1" fill-rule="nonzero"/><path fill="#c62436" d="M 47.351562 53.28125 C 47.316406 53.28125 47.285156 53.269531 47.261719 53.242188 C 47.238281 53.21875 47.222656 53.1875 47.222656 53.152344 L 47.222656 52.019531 C 47.222656 51.953125 47.210938 51.890625 47.183594 51.832031 C 47.160156 51.769531 47.125 51.71875 47.078125 51.675781 C 47.035156 51.632812 46.984375 51.597656 46.925781 51.574219 C 46.867188 51.546875 46.800781 51.535156 46.734375 51.535156 C 46.667969 51.535156 46.609375 51.546875 46.550781 51.574219 C 46.492188 51.597656 46.441406 51.628906 46.394531 51.671875 C 46.351562 51.710938 46.316406 51.761719 46.292969 51.816406 C 46.269531 51.875 46.253906 51.933594 46.25 51.996094 L 46.25 53.152344 C 46.25 53.1875 46.238281 53.21875 46.214844 53.242188 C 46.1875 53.269531 46.160156 53.28125 46.121094 53.28125 C 46.085938 53.28125 46.054688 53.269531 46.03125 53.242188 C 46.007812 53.21875 45.996094 53.1875 45.996094 53.152344 L 45.996094 51.402344 C 45.996094 51.367188 46.007812 51.335938 46.03125 51.3125 C 46.054688 51.289062 46.085938 51.273438 46.121094 51.273438 C 46.160156 51.273438 46.1875 51.289062 46.214844 51.3125 C 46.238281 51.335938 46.25 51.367188 46.25 51.402344 L 46.25 51.457031 C 46.316406 51.402344 46.386719 51.359375 46.46875 51.324219 C 46.554688 51.292969 46.640625 51.273438 46.734375 51.273438 C 46.839844 51.273438 46.933594 51.292969 47.027344 51.332031 C 47.117188 51.371094 47.195312 51.425781 47.265625 51.492188 C 47.332031 51.558594 47.386719 51.636719 47.421875 51.730469 C 47.460938 51.820312 47.480469 51.917969 47.480469 52.019531 L 47.480469 53.152344 C 47.480469 53.1875 47.46875 53.21875 47.445312 53.242188 C 47.417969 53.269531 47.390625 53.28125 47.351562 53.28125 " fill-opacity="1" fill-rule="nonzero"/><path fill="#c62436" d="M 56.355469 38.5625 C 56.355469 36.914062 50.957031 35.574219 44.292969 35.574219 C 37.632812 35.574219 32.234375 36.914062 32.234375 38.5625 C 32.234375 40.214844 37.632812 41.554688 44.292969 41.554688 C 50.957031 41.554688 56.355469 40.214844 56.355469 38.5625 " fill-opacity="1" fill-rule="nonzero"/><path fill="#b8822a" d="M 50.351562 31.816406 C 50.433594 31.65625 50.484375 31.476562 50.484375 31.289062 C 50.484375 31.007812 50.378906 30.753906 50.210938 30.550781 C 50.457031 29.855469 50.101562 28.921875 49.136719 28.921875 C 48.742188 28.921875 48.449219 29.082031 48.257812 29.316406 C 48.136719 29.320312 48.03125 29.335938 47.929688 29.363281 C 47.738281 29.144531 47.457031 29 47.082031 29 C 45.816406 29 45.597656 30.609375 46.417969 31.171875 C 46.109375 31.632812 46.152344 32.273438 46.558594 32.675781 C 46.585938 32.703125 46.609375 32.726562 46.636719 32.753906 C 47.078125 33.195312 47.804688 33.203125 48.265625 32.792969 C 48.382812 33.257812 48.75 33.652344 49.375 33.652344 C 50.4375 33.652344 50.761719 32.511719 50.351562 31.816406 " fill-opacity="1" fill-rule="nonzero"/><path fill="#d29430" d="M 42.203125 30.394531 C 42.09375 30.394531 41.996094 30.410156 41.902344 30.429688 C 42.328125 29.734375 42.003906 28.582031 40.9375 28.582031 C 40.011719 28.582031 39.644531 29.445312 39.839844 30.128906 C 39.734375 30.097656 39.625 30.082031 39.511719 30.082031 C 39.167969 30.082031 38.859375 30.234375 38.640625 30.472656 C 38.398438 30.691406 38.246094 30.996094 38.246094 31.339844 C 38.246094 31.964844 38.757812 32.496094 39.382812 32.519531 C 39.53125 32.753906 39.761719 32.929688 40.03125 33.015625 C 40.003906 33.109375 39.988281 33.207031 39.988281 33.3125 L 39.988281 33.390625 C 39.988281 34.035156 40.527344 34.570312 41.171875 34.570312 C 41.820312 34.570312 42.359375 34.035156 42.359375 33.390625 L 42.359375 33.3125 C 42.359375 33.113281 42.304688 32.925781 42.214844 32.757812 C 43.730469 32.746094 43.730469 30.394531 42.203125 30.394531 " fill-opacity="1" fill-rule="nonzero"/><path fill="#efb11c" d="M 35.9375 35.785156 C 36.070312 35.121094 35.695312 34.339844 34.816406 34.339844 C 34.375 34.339844 34.0625 34.535156 33.875 34.816406 C 33.742188 34.6875 33.574219 34.59375 33.390625 34.542969 C 32.757812 34.367188 32.117188 34.75 31.929688 35.367188 C 31.808594 35.769531 31.851562 36.210938 32.027344 36.585938 C 31.871094 36.683594 31.734375 36.8125 31.65625 36.976562 C 31.558594 37.167969 31.449219 37.371094 31.40625 37.582031 C 31.3125 38.039062 31.390625 38.488281 31.722656 38.832031 C 31.976562 39.089844 32.300781 39.1875 32.652344 39.210938 L 32.703125 39.210938 C 32.800781 39.230469 32.894531 39.234375 32.992188 39.226562 L 32.996094 39.226562 C 33.144531 39.238281 33.300781 39.203125 33.445312 39.144531 C 33.472656 39.179688 33.503906 39.21875 33.535156 39.253906 C 33.816406 39.5625 34.324219 39.683594 34.71875 39.566406 C 34.972656 39.488281 35.144531 39.378906 35.339844 39.195312 C 35.6875 38.871094 35.761719 38.355469 35.597656 37.929688 C 36.589844 37.6875 36.703125 36.289062 35.9375 35.785156 " fill-opacity="1" fill-rule="nonzero"/><path fill="#d29430" d="M 37.664062 32.765625 C 37.34375 32.765625 37.089844 32.871094 36.90625 33.03125 C 36.78125 32.785156 36.570312 32.585938 36.316406 32.472656 L 36.285156 32.453125 C 36.011719 32.292969 35.675781 32.25 35.371094 32.335938 C 35.074219 32.414062 34.816406 32.613281 34.660156 32.878906 C 34.621094 32.972656 34.582031 33.066406 34.542969 33.160156 C 34.484375 33.371094 34.484375 33.578125 34.542969 33.789062 C 34.566406 33.960938 34.675781 34.164062 34.820312 34.320312 C 33.695312 34.6875 33.824219 36.628906 35.210938 36.628906 C 35.300781 36.628906 35.382812 36.617188 35.460938 36.601562 C 35.527344 37.183594 36.035156 37.652344 36.636719 37.652344 C 36.980469 37.652344 37.289062 37.496094 37.507812 37.257812 C 37.746094 37.042969 37.902344 36.734375 37.902344 36.390625 C 37.902344 36.277344 37.878906 36.171875 37.847656 36.066406 C 38.109375 35.796875 38.214844 35.402344 38.164062 35.027344 C 39.171875 34.574219 39.003906 32.765625 37.664062 32.765625 " fill-opacity="1" fill-rule="nonzero"/><path fill="#f1c446" d="M 39.609375 35.421875 C 39.171875 35.421875 38.789062 35.671875 38.582031 36.03125 C 38.460938 35.949219 38.320312 35.890625 38.175781 35.863281 C 37.992188 35.4375 37.566406 35.128906 37.078125 35.128906 L 37 35.128906 C 36.351562 35.128906 35.8125 35.667969 35.8125 36.3125 C 35.8125 36.640625 35.957031 36.941406 36.179688 37.160156 C 35.699219 37.308594 35.339844 37.757812 35.339844 38.28125 C 35.339844 38.925781 35.878906 39.464844 36.523438 39.464844 L 36.605469 39.464844 C 36.851562 39.464844 37.078125 39.386719 37.269531 39.253906 C 37.394531 39.773438 37.867188 40.171875 38.425781 40.171875 C 39.070312 40.171875 39.609375 39.636719 39.609375 38.992188 L 39.609375 38.914062 C 39.609375 38.703125 39.550781 38.507812 39.453125 38.335938 C 39.695312 38.230469 39.890625 38.042969 40.019531 37.808594 C 40.46875 37.640625 40.796875 37.207031 40.796875 36.707031 L 40.796875 36.605469 C 40.796875 35.960938 40.257812 35.421875 39.609375 35.421875 " fill-opacity="1" fill-rule="nonzero"/><path fill="#f1c446" d="M 51.195312 36.054688 C 50.757812 36.054688 50.371094 36.300781 50.167969 36.660156 C 50.042969 36.582031 49.90625 36.523438 49.757812 36.492188 C 49.578125 36.066406 49.148438 35.761719 48.664062 35.761719 L 48.582031 35.761719 C 47.9375 35.761719 47.394531 36.296875 47.394531 36.941406 C 47.394531 37.273438 47.539062 37.574219 47.765625 37.789062 C 47.28125 37.941406 46.921875 38.386719 46.921875 38.914062 C 46.921875 39.558594 47.460938 40.09375 48.109375 40.09375 L 48.1875 40.09375 C 48.433594 40.09375 48.664062 40.015625 48.855469 39.886719 C 48.976562 40.40625 49.453125 40.804688 50.007812 40.804688 C 50.65625 40.804688 51.195312 40.265625 51.195312 39.621094 L 51.195312 39.542969 C 51.195312 39.332031 51.136719 39.136719 51.035156 38.96875 C 51.277344 38.859375 51.476562 38.671875 51.601562 38.441406 C 52.050781 38.273438 52.382812 37.839844 52.382812 37.335938 L 52.382812 37.234375 C 52.382812 36.589844 51.839844 36.054688 51.195312 36.054688 " fill-opacity="1" fill-rule="nonzero"/><path fill="#efb11c" d="M 41.8125 33.210938 C 41.757812 32.792969 41.488281 32.4375 41.113281 32.269531 C 41.164062 32.140625 41.195312 32 41.195312 31.855469 C 41.195312 31.210938 40.652344 30.671875 40.007812 30.671875 L 39.859375 30.671875 C 39.246094 30.671875 38.738281 31.15625 38.683594 31.753906 C 38.484375 31.925781 38.339844 32.15625 38.289062 32.417969 C 36.945312 32.550781 36.941406 34.617188 38.277344 34.761719 C 37.507812 35.351562 37.738281 36.898438 38.976562 36.898438 C 39.136719 36.898438 39.277344 36.867188 39.40625 36.824219 C 39.570312 36.917969 39.769531 36.976562 40.007812 36.976562 C 40.914062 36.976562 41.285156 36.144531 41.113281 35.46875 C 41.167969 35.476562 41.21875 35.476562 41.273438 35.476562 L 41.351562 35.476562 C 42 35.476562 42.539062 34.941406 42.539062 34.296875 C 42.539062 33.8125 42.234375 33.390625 41.8125 33.210938 " fill-opacity="1" fill-rule="nonzero"/><path fill="#d29430" d="M 41.996094 36.035156 C 41.875 35.957031 41.742188 35.898438 41.597656 35.871094 C 41.894531 35.519531 41.976562 35.003906 41.761719 34.574219 C 41.46875 33.996094 40.746094 33.757812 40.167969 34.046875 L 39.980469 34.140625 C 39.398438 34.429688 39.160156 35.148438 39.449219 35.726562 C 39.308594 35.738281 39.167969 35.777344 39.035156 35.84375 L 38.964844 35.878906 C 38.386719 36.167969 38.144531 36.890625 38.4375 37.464844 C 38.554688 37.703125 38.75 37.878906 38.980469 37.988281 C 38.8125 38.316406 38.792969 38.707031 38.96875 39.050781 C 39.292969 39.6875 40.023438 39.929688 40.667969 39.613281 C 40.753906 39.570312 40.832031 39.515625 40.902344 39.453125 C 41.191406 39.921875 41.761719 40.210938 42.402344 39.894531 C 43.152344 39.519531 43.167969 38.714844 42.808594 38.175781 C 43.800781 37.496094 43.089844 35.90625 41.996094 36.035156 " fill-opacity="1" fill-rule="nonzero"/><path fill="#efb11c" d="M 45.789062 35.53125 C 45.855469 35.164062 45.769531 34.769531 45.535156 34.488281 C 45.648438 34.304688 45.71875 34.09375 45.71875 33.867188 C 45.71875 33.226562 45.175781 32.6875 44.53125 32.6875 L 44.429688 32.6875 C 44.363281 32.6875 44.300781 32.695312 44.238281 32.707031 C 44.0625 32.378906 43.730469 32.132812 43.242188 32.132812 C 42.21875 32.132812 41.882812 33.191406 42.226562 33.890625 C 41.683594 34 41.265625 34.484375 41.265625 35.050781 L 41.265625 35.128906 C 41.265625 35.632812 41.597656 36.070312 42.050781 36.234375 C 42.003906 36.359375 41.976562 36.488281 41.976562 36.628906 C 41.976562 37.273438 42.515625 37.808594 43.164062 37.808594 L 43.320312 37.808594 C 43.757812 37.808594 44.140625 37.5625 44.347656 37.207031 C 44.449219 37.238281 44.554688 37.257812 44.667969 37.257812 L 44.746094 37.257812 C 45.394531 37.257812 45.933594 36.71875 45.933594 36.074219 C 45.933594 35.878906 45.878906 35.695312 45.789062 35.53125 " fill-opacity="1" fill-rule="nonzero"/><path fill="#efb11c" d="M 45.046875 30.964844 C 45.105469 30.824219 45.140625 30.671875 45.140625 30.511719 C 45.140625 29.871094 44.601562 29.332031 43.953125 29.332031 L 43.875 29.332031 C 43.230469 29.332031 42.6875 29.871094 42.6875 30.511719 C 42.6875 30.539062 42.695312 30.566406 42.699219 30.59375 L 42.6875 30.59375 C 42.042969 30.59375 41.503906 31.128906 41.503906 31.773438 C 41.503906 32.304688 41.871094 32.757812 42.359375 32.902344 C 42.457031 33.394531 42.828125 33.824219 43.480469 33.824219 C 43.960938 33.824219 44.292969 33.589844 44.46875 33.269531 L 44.507812 33.273438 C 45.15625 33.273438 45.695312 32.734375 45.695312 32.089844 L 45.695312 32.011719 C 45.695312 31.558594 45.425781 31.164062 45.046875 30.964844 " fill-opacity="1" fill-rule="nonzero"/><path fill="#d29430" d="M 53.691406 31.625 C 53.597656 31.574219 53.5 31.542969 53.410156 31.523438 C 54.097656 31.085938 54.320312 29.910156 53.363281 29.441406 C 52.53125 29.03125 51.820312 29.644531 51.691406 30.34375 C 51.613281 30.269531 51.523438 30.207031 51.417969 30.15625 C 51.109375 30.003906 50.765625 30.007812 50.464844 30.125 C 50.152344 30.214844 49.878906 30.421875 49.726562 30.730469 C 49.449219 31.289062 49.671875 31.988281 50.222656 32.285156 C 50.253906 32.5625 50.378906 32.820312 50.582031 33.015625 C 50.515625 33.089844 50.457031 33.171875 50.410156 33.261719 L 50.375 33.332031 C 50.089844 33.910156 50.335938 34.632812 50.917969 34.917969 C 51.496094 35.199219 52.21875 34.957031 52.503906 34.378906 L 52.539062 34.308594 C 52.628906 34.128906 52.660156 33.9375 52.652344 33.75 C 54.019531 34.40625 55.0625 32.296875 53.691406 31.625 " fill-opacity="1" fill-rule="nonzero"/><path fill="#d29430" d="M 49.113281 32.335938 C 48.828125 32.195312 48.554688 32.179688 48.316406 32.242188 C 48.3125 31.964844 48.214844 31.695312 48.035156 31.480469 L 48.015625 31.449219 C 47.839844 31.1875 47.5625 31 47.246094 30.941406 C 46.945312 30.882812 46.628906 30.945312 46.371094 31.113281 C 46.292969 31.183594 46.214844 31.25 46.136719 31.316406 C 45.996094 31.480469 45.902344 31.667969 45.859375 31.878906 C 45.800781 32.046875 45.8125 32.273438 45.871094 32.480469 C 44.699219 32.3125 43.957031 34.109375 45.199219 34.71875 C 45.28125 34.757812 45.359375 34.785156 45.4375 34.808594 C 45.234375 35.359375 45.484375 36.003906 46.023438 36.265625 C 46.332031 36.417969 46.675781 36.414062 46.976562 36.296875 C 47.289062 36.210938 47.566406 36 47.71875 35.691406 C 47.765625 35.59375 47.796875 35.484375 47.8125 35.378906 C 48.167969 35.253906 48.4375 34.945312 48.558594 34.585938 C 49.660156 34.625 50.316406 32.925781 49.113281 32.335938 " fill-opacity="1" fill-rule="nonzero"/><path fill="#f1c569" d="M 50.898438 36.882812 C 51.316406 36.90625 51.71875 36.699219 51.945312 36.359375 C 52.066406 36.433594 52.199219 36.488281 52.347656 36.511719 C 52.980469 36.625 53.609375 36.1875 53.71875 35.554688 L 53.746094 35.410156 C 53.851562 34.808594 53.460938 34.222656 52.878906 34.066406 C 52.746094 33.84375 52.542969 33.660156 52.289062 33.566406 C 52.390625 32.226562 50.347656 31.859375 49.976562 33.144531 C 49.527344 32.289062 47.957031 32.246094 47.742188 33.464844 C 47.714844 33.621094 47.71875 33.765625 47.742188 33.894531 C 47.617188 34.039062 47.527344 34.226562 47.484375 34.457031 C 47.328125 35.351562 48.085938 35.855469 48.785156 35.808594 C 48.769531 35.859375 48.753906 35.910156 48.746094 35.960938 L 48.734375 36.039062 C 48.621094 36.671875 49.058594 37.296875 49.695312 37.40625 C 50.171875 37.492188 50.644531 37.269531 50.898438 36.882812 " fill-opacity="1" fill-rule="nonzero"/><path fill="#efb11c" d="M 55.960938 33.972656 C 56.078125 33.871094 56.175781 33.75 56.246094 33.609375 C 56.535156 33.03125 56.289062 32.308594 55.707031 32.027344 L 55.636719 31.988281 C 55.058594 31.707031 54.332031 31.949219 54.046875 32.527344 C 54.035156 32.550781 54.03125 32.578125 54.019531 32.601562 L 54.011719 32.597656 C 53.433594 32.3125 52.710938 32.558594 52.421875 33.136719 C 52.1875 33.613281 52.316406 34.179688 52.691406 34.527344 C 52.558594 35.007812 52.703125 35.558594 53.289062 35.84375 C 53.71875 36.058594 54.117188 35.992188 54.421875 35.78125 L 54.457031 35.804688 C 55.035156 36.085938 55.757812 35.84375 56.042969 35.265625 L 56.082031 35.195312 C 56.28125 34.789062 56.214844 34.316406 55.960938 33.972656 " fill-opacity="1" fill-rule="nonzero"/><path fill="#f1c446" d="M 46.097656 36.871094 C 46.660156 36.203125 46.371094 34.886719 45.230469 34.886719 C 44.871094 34.886719 44.601562 35.015625 44.410156 35.214844 C 44.269531 35.15625 44.121094 35.125 43.960938 35.125 C 43.316406 35.125 42.777344 35.660156 42.777344 36.304688 L 42.777344 36.386719 C 42.777344 36.585938 42.832031 36.773438 42.921875 36.9375 C 42.175781 37.539062 42.414062 39.0625 43.644531 39.0625 C 44.0625 39.0625 44.367188 38.886719 44.554688 38.628906 C 44.746094 38.886719 45.046875 39.0625 45.464844 39.0625 C 46.746094 39.0625 46.953125 37.414062 46.097656 36.871094 " fill-opacity="1" fill-rule="nonzero"/><path fill="#efb11c" d="M 49.308594 36.300781 C 49.851562 35.628906 49.558594 34.335938 48.425781 34.335938 C 47.824219 34.335938 47.460938 34.699219 47.332031 35.144531 C 47.191406 35.082031 47.03125 35.042969 46.84375 35.042969 C 45.609375 35.042969 45.371094 36.578125 46.125 37.175781 C 45.890625 37.390625 45.734375 37.699219 45.734375 38.039062 L 45.734375 38.199219 C 45.734375 38.839844 46.277344 39.378906 46.921875 39.378906 C 47.125 39.378906 47.3125 39.324219 47.480469 39.230469 C 47.699219 39.464844 48.007812 39.617188 48.347656 39.617188 C 48.839844 39.617188 49.265625 39.304688 49.445312 38.871094 C 49.636719 38.539062 49.65625 38.132812 49.5 37.785156 C 49.753906 37.320312 49.6875 36.679688 49.308594 36.300781 " fill-opacity="1" fill-rule="nonzero"/><path fill="#f1c446" d="M 55.507812 36.175781 L 55.480469 36.179688 C 55.394531 36.144531 55.300781 36.125 55.199219 36.113281 C 55.089844 35.648438 54.730469 35.25 54.121094 35.234375 C 53.941406 34.914062 53.613281 34.679688 53.132812 34.679688 C 52.257812 34.679688 51.886719 35.453125 52.011719 36.117188 C 51.382812 36.199219 50.921875 36.703125 50.917969 37.359375 C 50.914062 38.003906 51.460938 38.542969 52.105469 38.542969 C 52.242188 38.542969 52.375 38.511719 52.5 38.46875 C 52.339844 39.140625 52.707031 39.960938 53.609375 39.960938 C 54.53125 39.960938 54.894531 39.101562 54.707031 38.421875 C 54.773438 38.4375 54.84375 38.449219 54.917969 38.457031 C 55.089844 38.558594 55.292969 38.621094 55.507812 38.621094 C 56.15625 38.621094 56.695312 38.082031 56.695312 37.4375 L 56.695312 37.359375 C 56.695312 36.714844 56.15625 36.175781 55.507812 36.175781 " fill-opacity="1" fill-rule="nonzero"/><path fill="#efb11c" d="M 54.148438 37.257812 L 54.148438 37.179688 C 54.148438 36.59375 53.703125 36.101562 53.140625 36.015625 C 52.941406 35.632812 52.542969 35.367188 52.089844 35.367188 C 51.703125 35.367188 51.359375 35.558594 51.140625 35.851562 C 51.089844 35.84375 51.035156 35.839844 50.980469 35.839844 C 50.335938 35.839844 49.792969 36.375 49.792969 37.019531 L 49.792969 37.101562 C 49.792969 37.386719 49.902344 37.644531 50.078125 37.851562 C 50 38.007812 49.953125 38.179688 49.953125 38.359375 C 49.953125 39.003906 50.492188 39.542969 51.140625 39.542969 L 51.21875 39.542969 C 51.339844 39.542969 51.453125 39.519531 51.5625 39.484375 C 51.78125 39.757812 52.113281 39.9375 52.484375 39.9375 L 52.644531 39.9375 C 53.289062 39.9375 53.832031 39.398438 53.832031 38.753906 C 53.832031 38.550781 53.769531 38.359375 53.675781 38.1875 C 53.960938 37.972656 54.148438 37.632812 54.148438 37.257812 " fill-opacity="1" fill-rule="nonzero"/><g fill="#ffffff" fill-opacity="1"><g transform="translate(78.252134, 44.59768)"><g><path d="M 8.296875 3.09375 C 6.015625 3.09375 4.851562 2.179688 4.8125 0.359375 C 4.8125 -0.253906 4.921875 -0.984375 5.140625 -1.828125 C 5.367188 -2.671875 5.671875 -3.6875 6.046875 -4.875 C 6.828125 -7.25 7.660156 -9.546875 8.546875 -11.765625 C 9.441406 -13.984375 10.546875 -16.632812 11.859375 -19.71875 L 13.140625 -22.75 C 10.785156 -22.71875 8.863281 -22.632812 7.375 -22.5 C 5.894531 -22.375 4.335938 -22.171875 2.703125 -21.890625 C 2.847656 -23.285156 3.726562 -24.253906 5.34375 -24.796875 C 6.957031 -25.347656 9.222656 -25.625 12.140625 -25.625 C 14.054688 -25.625 16.441406 -25.484375 19.296875 -25.203125 C 21.785156 -24.960938 23.609375 -24.84375 24.765625 -24.84375 C 23.816406 -23.9375 22.550781 -23.359375 20.96875 -23.109375 C 19.394531 -22.867188 17.507812 -22.75 15.3125 -22.75 C 13.363281 -17.945312 11.441406 -12.0625 9.546875 -5.09375 C 8.992188 -3.070312 8.628906 -1.625 8.453125 -0.75 C 8.273438 0.125 8.1875 1.0625 8.1875 2.0625 C 8.1875 2.394531 8.222656 2.738281 8.296875 3.09375 Z M 8.296875 3.09375 "/></g></g></g><g fill="#ffffff" fill-opacity="1"><g transform="translate(97.476952, 44.59768)"><g><path d="M 1.640625 1.359375 C 1.140625 1.359375 0.769531 0.976562 0.53125 0.21875 C 0.289062 -0.539062 0.171875 -1.503906 0.171875 -2.671875 C 0.171875 -4.804688 0.84375 -7.707031 2.1875 -11.375 C 3.53125 -15.039062 5.066406 -18.296875 6.796875 -21.140625 C 8.523438 -23.984375 9.9375 -25.40625 11.03125 -25.40625 C 11.507812 -25.40625 11.882812 -25.144531 12.15625 -24.625 C 12.425781 -24.101562 12.5625 -23.523438 12.5625 -22.890625 C 12.5625 -21.796875 12.164062 -20.332031 11.375 -18.5 C 10.582031 -16.675781 9.535156 -14.914062 8.234375 -13.21875 C 6.941406 -11.519531 5.609375 -10.269531 4.234375 -9.46875 C 3.429688 -7.332031 3.03125 -5.316406 3.03125 -3.421875 L 3.0625 -2.671875 C 3.101562 -2.742188 3.207031 -3.003906 3.375 -3.453125 C 3.851562 -4.679688 4.351562 -5.796875 4.875 -6.796875 C 5.394531 -7.796875 6.113281 -8.726562 7.03125 -9.59375 C 7.945312 -10.457031 9.007812 -10.890625 10.21875 -10.890625 C 11.3125 -10.890625 12.101562 -10.539062 12.59375 -9.84375 C 13.09375 -9.144531 13.34375 -8.320312 13.34375 -7.375 C 13.34375 -6.820312 13.269531 -6.304688 13.125 -5.828125 C 12.988281 -5.359375 12.78125 -4.753906 12.5 -4.015625 C 12.445312 -3.921875 12.351562 -3.703125 12.21875 -3.359375 C 12.09375 -3.015625 12 -2.707031 11.9375 -2.4375 C 11.882812 -2.164062 11.859375 -1.921875 11.859375 -1.703125 C 11.859375 -0.941406 12.175781 -0.5625 12.8125 -0.5625 C 13.332031 -0.5625 13.945312 -0.820312 14.65625 -1.34375 C 15.375 -1.875 16.078125 -2.578125 16.765625 -3.453125 C 17.453125 -4.328125 18.046875 -5.273438 18.546875 -6.296875 L 19.109375 -5.6875 C 18.234375 -3.75 17.171875 -2.171875 15.921875 -0.953125 C 14.679688 0.253906 13.347656 0.859375 11.921875 0.859375 C 11.046875 0.859375 10.363281 0.625 9.875 0.15625 C 9.382812 -0.300781 9.140625 -0.898438 9.140625 -1.640625 C 9.140625 -2.109375 9.304688 -2.960938 9.640625 -4.203125 C 10.003906 -5.359375 10.1875 -6.222656 10.1875 -6.796875 C 10.1875 -7.796875 9.753906 -8.296875 8.890625 -8.296875 C 8.035156 -8.296875 7.316406 -7.847656 6.734375 -6.953125 C 6.160156 -6.066406 5.503906 -4.757812 4.765625 -3.03125 C 4.171875 -1.550781 3.648438 -0.453125 3.203125 0.265625 C 2.753906 0.992188 2.234375 1.359375 1.640625 1.359375 Z M 4.984375 -11.75 C 5.953125 -12.625 6.882812 -13.757812 7.78125 -15.15625 C 8.6875 -16.5625 9.425781 -17.921875 10 -19.234375 C 10.570312 -20.554688 10.859375 -21.5 10.859375 -22.0625 C 10.566406 -21.945312 10.050781 -21.375 9.3125 -20.34375 C 8.582031 -19.3125 7.8125 -18.015625 7 -16.453125 C 6.195312 -14.898438 5.523438 -13.332031 4.984375 -11.75 Z M 4.984375 -11.75 "/></g></g></g><g fill="#ffffff" fill-opacity="1"><g transform="translate(115.06411, 44.59768)"><g><path d="M 4.125 1.5625 C 2.632812 1.5625 1.472656 1.15625 0.640625 0.34375 C -0.191406 -0.457031 -0.609375 -1.484375 -0.609375 -2.734375 C -0.609375 -4.117188 -0.144531 -5.609375 0.78125 -7.203125 C 1.707031 -8.804688 2.894531 -10.144531 4.34375 -11.21875 C 5.789062 -12.300781 7.210938 -12.84375 8.609375 -12.84375 C 9.347656 -12.84375 9.96875 -12.660156 10.46875 -12.296875 C 10.96875 -11.929688 11.21875 -11.320312 11.21875 -10.46875 C 11.21875 -9.320312 10.773438 -8.242188 9.890625 -7.234375 C 9.015625 -6.234375 7.878906 -5.410156 6.484375 -4.765625 C 5.097656 -4.128906 3.6875 -3.726562 2.25 -3.5625 C 2.195312 -3.320312 2.171875 -3.046875 2.171875 -2.734375 C 2.171875 -2.117188 2.34375 -1.503906 2.6875 -0.890625 C 3.03125 -0.273438 3.769531 0.03125 4.90625 0.03125 C 6.351562 0.03125 7.832031 -0.550781 9.34375 -1.71875 C 10.851562 -2.894531 12.066406 -4.363281 12.984375 -6.125 L 13.703125 -5.546875 C 12.753906 -3.410156 11.394531 -1.691406 9.625 -0.390625 C 7.851562 0.910156 6.019531 1.5625 4.125 1.5625 Z M 2.640625 -4.875 C 3.492188 -4.96875 4.445312 -5.3125 5.5 -5.90625 C 6.550781 -6.5 7.445312 -7.226562 8.1875 -8.09375 C 8.925781 -8.957031 9.296875 -9.804688 9.296875 -10.640625 C 9.296875 -10.898438 9.242188 -11.078125 9.140625 -11.171875 C 9.046875 -11.265625 8.894531 -11.3125 8.6875 -11.3125 C 8 -11.3125 7.242188 -10.984375 6.421875 -10.328125 C 5.609375 -9.679688 4.851562 -8.859375 4.15625 -7.859375 C 3.46875 -6.867188 2.960938 -5.875 2.640625 -4.875 Z M 2.640625 -4.875 "/></g></g></g><g fill="#ffffff" fill-opacity="1"><g transform="translate(127.204233, 44.59768)"><g/></g></g><g fill="#ffffff" fill-opacity="1"><g transform="translate(136.460629, 44.59768)"><g><path d="M 17.96875 4.3125 C 17.09375 4.3125 16.003906 3.566406 14.703125 2.078125 C 13.398438 0.597656 12.09375 -1.179688 10.78125 -3.265625 C 9.476562 -5.359375 8.363281 -7.34375 7.4375 -9.21875 C 7.007812 -7.75 6.296875 -5.234375 5.296875 -1.671875 L 3.953125 3.125 C 3.210938 3.125 2.550781 2.925781 1.96875 2.53125 C 1.394531 2.144531 1.109375 1.65625 1.109375 1.0625 C 1.109375 0.78125 1.175781 0.414062 1.3125 -0.03125 C 1.457031 -0.488281 1.554688 -0.773438 1.609375 -0.890625 C 3.429688 -6.441406 4.859375 -10.609375 5.890625 -13.390625 C 6.921875 -16.179688 8.398438 -19.773438 10.328125 -24.171875 C 9.046875 -23.910156 7.691406 -23.398438 6.265625 -22.640625 C 6.117188 -22.585938 5.9375 -22.507812 5.71875 -22.40625 C 5.507812 -22.300781 5.359375 -22.25 5.265625 -22.25 C 5.054688 -22.25 4.765625 -22.414062 4.390625 -22.75 C 4.023438 -23.082031 3.84375 -23.378906 3.84375 -23.640625 C 5.269531 -24.203125 6.679688 -24.671875 8.078125 -25.046875 C 9.484375 -25.429688 10.929688 -25.625 12.421875 -25.625 C 13.984375 -25.625 15.503906 -25.378906 16.984375 -24.890625 C 18.472656 -24.410156 19.703125 -23.65625 20.671875 -22.625 C 21.648438 -21.59375 22.140625 -20.304688 22.140625 -18.765625 C 22.140625 -16.722656 21.328125 -15.128906 19.703125 -13.984375 C 18.078125 -12.847656 16.25 -12.078125 14.21875 -11.671875 C 12.1875 -11.265625 10.332031 -11.039062 8.65625 -11 L 9.578125 -9.546875 C 10.710938 -7.710938 11.707031 -6.191406 12.5625 -4.984375 C 13.414062 -3.773438 14.460938 -2.507812 15.703125 -1.1875 C 16.953125 0.125 18.429688 1.429688 20.140625 2.734375 C 20.046875 3.191406 19.765625 3.566406 19.296875 3.859375 C 18.835938 4.160156 18.394531 4.3125 17.96875 4.3125 Z M 8.25 -12.0625 C 11.269531 -12.28125 13.847656 -13.007812 15.984375 -14.25 C 18.117188 -15.5 19.1875 -17.238281 19.1875 -19.46875 C 19.1875 -21.15625 18.578125 -22.382812 17.359375 -23.15625 C 16.148438 -23.925781 14.632812 -24.332031 12.8125 -24.375 C 11.488281 -21.71875 9.96875 -17.613281 8.25 -12.0625 Z M 8.25 -12.0625 "/></g></g></g><g fill="#ffffff" fill-opacity="1"><g transform="translate(158.391175, 44.59768)"><g><path d="M 2.34375 1.140625 C 1.375 1.140625 0.671875 0.816406 0.234375 0.171875 C -0.203125 -0.460938 -0.421875 -1.253906 -0.421875 -2.203125 C -0.421875 -3.203125 -0.21875 -4.234375 0.1875 -5.296875 C 0.601562 -6.367188 1.144531 -7.257812 1.8125 -7.96875 C 2.476562 -8.6875 3.15625 -9.046875 3.84375 -9.046875 C 4.125 -9.046875 4.492188 -8.945312 4.953125 -8.75 C 5.085938 -9.84375 5.46875 -10.742188 6.09375 -11.453125 C 6.726562 -12.171875 7.613281 -12.53125 8.75 -12.53125 C 9.707031 -12.53125 10.410156 -12.257812 10.859375 -11.71875 C 11.304688 -11.1875 11.53125 -10.492188 11.53125 -9.640625 C 11.53125 -8.816406 11.3125 -7.867188 10.875 -6.796875 C 10.4375 -5.734375 9.875 -4.664062 9.1875 -3.59375 C 9.46875 -3.445312 9.800781 -3.375 10.1875 -3.375 C 10.84375 -3.375 11.550781 -3.59375 12.3125 -4.03125 C 13.070312 -4.476562 13.65625 -5.148438 14.0625 -6.046875 L 14.703125 -5.59375 C 14.203125 -4.445312 13.53125 -3.578125 12.6875 -2.984375 C 11.84375 -2.390625 10.972656 -2.09375 10.078125 -2.09375 C 9.523438 -2.09375 8.929688 -2.203125 8.296875 -2.421875 C 7.410156 -1.378906 6.445312 -0.523438 5.40625 0.140625 C 4.363281 0.804688 3.34375 1.140625 2.34375 1.140625 Z M 7.96875 -4.34375 C 8.5625 -5.21875 9.050781 -6.128906 9.4375 -7.078125 C 9.832031 -8.023438 10.03125 -8.878906 10.03125 -9.640625 C 10.03125 -10.691406 9.703125 -11.21875 9.046875 -11.21875 C 8.734375 -11.21875 8.410156 -11.0625 8.078125 -10.75 C 7.742188 -10.4375 7.46875 -10.023438 7.25 -9.515625 C 7.039062 -9.003906 6.9375 -8.441406 6.9375 -7.828125 C 6.9375 -7.285156 7.03125 -6.660156 7.21875 -5.953125 C 7.414062 -5.253906 7.664062 -4.71875 7.96875 -4.34375 Z M 3.625 -0.671875 C 4.050781 -0.671875 4.570312 -0.90625 5.1875 -1.375 C 5.8125 -1.851562 6.429688 -2.460938 7.046875 -3.203125 C 5.691406 -4.390625 4.976562 -6.132812 4.90625 -8.4375 C 4.625 -8.289062 4.28125 -7.847656 3.875 -7.109375 C 3.476562 -6.378906 3.132812 -5.5625 2.84375 -4.65625 C 2.5625 -3.757812 2.421875 -2.976562 2.421875 -2.3125 C 2.421875 -1.21875 2.820312 -0.671875 3.625 -0.671875 Z M 3.625 -0.671875 "/></g></g></g><g fill="#ffffff" fill-opacity="1"><g transform="translate(171.634945, 44.59768)"><g><path d="M 2.34375 1.140625 C 1.375 1.140625 0.671875 0.816406 0.234375 0.171875 C -0.203125 -0.460938 -0.421875 -1.253906 -0.421875 -2.203125 C -0.421875 -3.203125 -0.21875 -4.234375 0.1875 -5.296875 C 0.601562 -6.367188 1.144531 -7.257812 1.8125 -7.96875 C 2.476562 -8.6875 3.15625 -9.046875 3.84375 -9.046875 C 4.125 -9.046875 4.492188 -8.945312 4.953125 -8.75 C 5.085938 -9.84375 5.46875 -10.742188 6.09375 -11.453125 C 6.726562 -12.171875 7.613281 -12.53125 8.75 -12.53125 C 9.707031 -12.53125 10.410156 -12.257812 10.859375 -11.71875 C 11.304688 -11.1875 11.53125 -10.492188 11.53125 -9.640625 C 11.53125 -8.816406 11.3125 -7.867188 10.875 -6.796875 C 10.4375 -5.734375 9.875 -4.664062 9.1875 -3.59375 C 9.46875 -3.445312 9.800781 -3.375 10.1875 -3.375 C 10.84375 -3.375 11.550781 -3.59375 12.3125 -4.03125 C 13.070312 -4.476562 13.65625 -5.148438 14.0625 -6.046875 L 14.703125 -5.59375 C 14.203125 -4.445312 13.53125 -3.578125 12.6875 -2.984375 C 11.84375 -2.390625 10.972656 -2.09375 10.078125 -2.09375 C 9.523438 -2.09375 8.929688 -2.203125 8.296875 -2.421875 C 7.410156 -1.378906 6.445312 -0.523438 5.40625 0.140625 C 4.363281 0.804688 3.34375 1.140625 2.34375 1.140625 Z M 7.96875 -4.34375 C 8.5625 -5.21875 9.050781 -6.128906 9.4375 -7.078125 C 9.832031 -8.023438 10.03125 -8.878906 10.03125 -9.640625 C 10.03125 -10.691406 9.703125 -11.21875 9.046875 -11.21875 C 8.734375 -11.21875 8.410156 -11.0625 8.078125 -10.75 C 7.742188 -10.4375 7.46875 -10.023438 7.25 -9.515625 C 7.039062 -9.003906 6.9375 -8.441406 6.9375 -7.828125 C 6.9375 -7.285156 7.03125 -6.660156 7.21875 -5.953125 C 7.414062 -5.253906 7.664062 -4.71875 7.96875 -4.34375 Z M 3.625 -0.671875 C 4.050781 -0.671875 4.570312 -0.90625 5.1875 -1.375 C 5.8125 -1.851562 6.429688 -2.460938 7.046875 -3.203125 C 5.691406 -4.390625 4.976562 -6.132812 4.90625 -8.4375 C 4.625 -8.289062 4.28125 -7.847656 3.875 -7.109375 C 3.476562 -6.378906 3.132812 -5.5625 2.84375 -4.65625 C 2.5625 -3.757812 2.421875 -2.976562 2.421875 -2.3125 C 2.421875 -1.21875 2.820312 -0.671875 3.625 -0.671875 Z M 3.625 -0.671875 "/></g></g></g><g fill="#ffffff" fill-opacity="1"><g transform="translate(184.878716, 44.59768)"><g><path d="M 18.609375 1.109375 C 17.734375 1.109375 17.054688 0.84375 16.578125 0.3125 C 16.109375 -0.207031 15.875 -0.867188 15.875 -1.671875 C 15.875 -2.054688 15.925781 -2.476562 16.03125 -2.9375 C 16.132812 -3.394531 16.257812 -3.828125 16.40625 -4.234375 C 16.71875 -5.203125 16.875 -5.914062 16.875 -6.375 C 16.875 -7.082031 16.597656 -7.4375 16.046875 -7.4375 C 15.523438 -7.4375 14.921875 -7.054688 14.234375 -6.296875 C 13.546875 -5.535156 12.625 -4.289062 11.46875 -2.5625 C 11.175781 -2.132812 10.75 -1.410156 10.1875 -0.390625 L 9.5 0.8125 C 9.070312 0.8125 8.609375 0.726562 8.109375 0.5625 C 7.617188 0.40625 7.375 0.179688 7.375 -0.109375 C 7.375 -0.347656 7.617188 -1.109375 8.109375 -2.390625 C 8.585938 -3.617188 8.972656 -4.695312 9.265625 -5.625 C 9.566406 -6.550781 9.71875 -7.320312 9.71875 -7.9375 C 9.71875 -8.644531 9.46875 -9 8.96875 -9 C 8.332031 -9 7.503906 -8.492188 6.484375 -7.484375 C 5.460938 -6.484375 4.453125 -5.203125 3.453125 -3.640625 C 2.453125 -2.085938 1.679688 -0.550781 1.140625 0.96875 C 0.710938 0.96875 0.207031 0.847656 -0.375 0.609375 C -0.957031 0.367188 -1.25 0.164062 -1.25 0 L 1.03125 -9.109375 C 1.101562 -9.367188 1.359375 -9.597656 1.796875 -9.796875 C 2.234375 -10.003906 2.628906 -10.109375 2.984375 -10.109375 C 3.347656 -10.109375 3.640625 -10 3.859375 -9.78125 C 4.085938 -9.570312 4.203125 -9.289062 4.203125 -8.9375 C 4.203125 -8.550781 4.035156 -7.695312 3.703125 -6.375 C 4.835938 -7.9375 6.007812 -9.234375 7.21875 -10.265625 C 8.4375 -11.296875 9.578125 -11.8125 10.640625 -11.8125 C 11.453125 -11.8125 12.03125 -11.523438 12.375 -10.953125 C 12.71875 -10.390625 12.890625 -9.679688 12.890625 -8.828125 C 12.890625 -8.378906 12.835938 -7.957031 12.734375 -7.5625 C 12.640625 -7.164062 12.488281 -6.640625 12.28125 -5.984375 C 13.9375 -8.421875 15.65625 -9.640625 17.4375 -9.640625 C 18.289062 -9.640625 18.910156 -9.382812 19.296875 -8.875 C 19.691406 -8.363281 19.890625 -7.726562 19.890625 -6.96875 C 19.890625 -6.21875 19.65625 -5.148438 19.1875 -3.765625 C 19.164062 -3.671875 19.078125 -3.363281 18.921875 -2.84375 C 18.765625 -2.320312 18.6875 -1.894531 18.6875 -1.5625 C 18.6875 -0.925781 18.984375 -0.609375 19.578125 -0.609375 C 20.429688 -0.609375 21.265625 -1.148438 22.078125 -2.234375 C 22.898438 -3.328125 23.664062 -4.632812 24.375 -6.15625 L 24.984375 -5.40625 C 24.296875 -3.625 23.410156 -2.09375 22.328125 -0.8125 C 21.253906 0.46875 20.015625 1.109375 18.609375 1.109375 Z M 18.609375 1.109375 "/></g></g></g><g fill="#ffffff" fill-opacity="1"><g transform="translate(208.37572, 44.59768)"><g/></g></g><g fill="#ffffff" fill-opacity="1"><g transform="translate(217.632116, 44.59768)"><g><path d="M 1.953125 -5.046875 C 2.242188 -5.953125 2.976562 -6.550781 4.15625 -6.84375 C 5.34375 -7.144531 6.492188 -7.296875 7.609375 -7.296875 C 8.628906 -7.273438 9.90625 -7.238281 11.4375 -7.1875 C 12.96875 -7.144531 14.257812 -7.097656 15.3125 -7.046875 C 15.070312 -6.503906 14.53125 -6.046875 13.6875 -5.671875 C 12.84375 -5.304688 11.9375 -5.125 10.96875 -5.125 C 10.75 -5.125 10.210938 -5.148438 9.359375 -5.203125 C 8.265625 -5.296875 7.316406 -5.34375 6.515625 -5.34375 C 5.734375 -5.34375 4.890625 -5.304688 3.984375 -5.234375 C 3.085938 -5.160156 2.410156 -5.097656 1.953125 -5.046875 Z M 1.953125 -5.046875 "/></g></g></g><g fill="#ffffff" fill-opacity="1"><g transform="translate(235.682085, 44.59768)"><g/></g></g><g fill="#ffffff" fill-opacity="1"><g transform="translate(244.938481, 44.59768)"><g><path d="M -0.171875 3.09375 C 0.109375 2.238281 1.484375 -0.785156 3.953125 -5.984375 C 7.578125 -13.859375 10.007812 -19.148438 11.25 -21.859375 C 11.457031 -22.328125 11.5625 -22.71875 11.5625 -23.03125 C 11.5625 -23.550781 11.21875 -23.8125 10.53125 -23.8125 C 9.601562 -23.8125 8.816406 -23.519531 8.171875 -22.9375 C 7.535156 -22.351562 7.054688 -21.625 6.734375 -20.75 C 6.421875 -19.875 6.265625 -18.984375 6.265625 -18.078125 C 6.265625 -17.578125 6.3125 -17.007812 6.40625 -16.375 C 5.625 -16.375 5.003906 -16.710938 4.546875 -17.390625 C 4.097656 -18.066406 3.875 -18.804688 3.875 -19.609375 C 3.875 -20.585938 4.242188 -21.546875 4.984375 -22.484375 C 5.722656 -23.421875 6.664062 -24.175781 7.8125 -24.75 C 8.96875 -25.332031 10.101562 -25.625 11.21875 -25.625 C 12.132812 -25.625 12.894531 -25.367188 13.5 -24.859375 C 14.113281 -24.347656 14.578125 -23.453125 14.890625 -22.171875 C 15.210938 -20.890625 15.375 -19.097656 15.375 -16.796875 C 15.375 -15.140625 15.242188 -12.566406 14.984375 -9.078125 C 14.796875 -6.515625 14.703125 -4.878906 14.703125 -4.171875 C 15.410156 -6.304688 16.414062 -8.6875 17.71875 -11.3125 C 19.03125 -13.945312 20.332031 -16.382812 21.625 -18.625 C 22.914062 -20.875 23.929688 -22.546875 24.671875 -23.640625 C 25.046875 -24.234375 25.363281 -24.640625 25.625 -24.859375 C 25.882812 -25.085938 26.21875 -25.203125 26.625 -25.203125 C 26.957031 -25.203125 27.476562 -25.070312 28.1875 -24.8125 C 27.71875 -23.789062 27.101562 -21.710938 26.34375 -18.578125 C 25.582031 -15.441406 24.921875 -12.148438 24.359375 -8.703125 C 23.804688 -5.253906 23.53125 -2.472656 23.53125 -0.359375 C 23.53125 0.378906 23.5625 0.925781 23.625 1.28125 C 23.695312 1.632812 23.796875 1.984375 23.921875 2.328125 C 24.054688 2.671875 24.160156 2.925781 24.234375 3.09375 C 23.210938 3.09375 22.441406 2.941406 21.921875 2.640625 C 21.398438 2.347656 21.046875 1.875 20.859375 1.21875 C 20.671875 0.570312 20.578125 -0.34375 20.578125 -1.53125 C 20.578125 -3.90625 20.832031 -6.421875 21.34375 -9.078125 C 21.851562 -11.734375 22.601562 -14.984375 23.59375 -18.828125 C 22.101562 -16.691406 20.46875 -13.664062 18.6875 -9.75 C 16.90625 -5.832031 15.585938 -2.617188 14.734375 -0.109375 L 14.484375 -0.03125 C 14.316406 0.0390625 14.148438 0.078125 13.984375 0.078125 C 13.203125 0.078125 12.6875 -0.375 12.4375 -1.28125 C 12.1875 -2.1875 12.0625 -3.625 12.0625 -5.59375 C 12.0625 -6.800781 12.109375 -8.828125 12.203125 -11.671875 C 12.296875 -14.660156 12.34375 -16.84375 12.34375 -18.21875 L 12.3125 -20.328125 L 8.65625 -11.703125 C 6.894531 -7.535156 5.582031 -4.503906 4.71875 -2.609375 C 3.851562 -0.722656 3.035156 0.695312 2.265625 1.65625 C 1.492188 2.613281 0.679688 3.09375 -0.171875 3.09375 Z M -0.171875 3.09375 "/></g></g></g><g fill="#ffffff" fill-opacity="1"><g transform="translate(273.633317, 44.59768)"><g><path d="M 2.34375 1.140625 C 1.375 1.140625 0.671875 0.816406 0.234375 0.171875 C -0.203125 -0.460938 -0.421875 -1.253906 -0.421875 -2.203125 C -0.421875 -3.203125 -0.21875 -4.234375 0.1875 -5.296875 C 0.601562 -6.367188 1.144531 -7.257812 1.8125 -7.96875 C 2.476562 -8.6875 3.15625 -9.046875 3.84375 -9.046875 C 4.125 -9.046875 4.492188 -8.945312 4.953125 -8.75 C 5.085938 -9.84375 5.46875 -10.742188 6.09375 -11.453125 C 6.726562 -12.171875 7.613281 -12.53125 8.75 -12.53125 C 9.707031 -12.53125 10.410156 -12.257812 10.859375 -11.71875 C 11.304688 -11.1875 11.53125 -10.492188 11.53125 -9.640625 C 11.53125 -8.816406 11.3125 -7.867188 10.875 -6.796875 C 10.4375 -5.734375 9.875 -4.664062 9.1875 -3.59375 C 9.46875 -3.445312 9.800781 -3.375 10.1875 -3.375 C 10.84375 -3.375 11.550781 -3.59375 12.3125 -4.03125 C 13.070312 -4.476562 13.65625 -5.148438 14.0625 -6.046875 L 14.703125 -5.59375 C 14.203125 -4.445312 13.53125 -3.578125 12.6875 -2.984375 C 11.84375 -2.390625 10.972656 -2.09375 10.078125 -2.09375 C 9.523438 -2.09375 8.929688 -2.203125 8.296875 -2.421875 C 7.410156 -1.378906 6.445312 -0.523438 5.40625 0.140625 C 4.363281 0.804688 3.34375 1.140625 2.34375 1.140625 Z M 7.96875 -4.34375 C 8.5625 -5.21875 9.050781 -6.128906 9.4375 -7.078125 C 9.832031 -8.023438 10.03125 -8.878906 10.03125 -9.640625 C 10.03125 -10.691406 9.703125 -11.21875 9.046875 -11.21875 C 8.734375 -11.21875 8.410156 -11.0625 8.078125 -10.75 C 7.742188 -10.4375 7.46875 -10.023438 7.25 -9.515625 C 7.039062 -9.003906 6.9375 -8.441406 6.9375 -7.828125 C 6.9375 -7.285156 7.03125 -6.660156 7.21875 -5.953125 C 7.414062 -5.253906 7.664062 -4.71875 7.96875 -4.34375 Z M 3.625 -0.671875 C 4.050781 -0.671875 4.570312 -0.90625 5.1875 -1.375 C 5.8125 -1.851562 6.429688 -2.460938 7.046875 -3.203125 C 5.691406 -4.390625 4.976562 -6.132812 4.90625 -8.4375 C 4.625 -8.289062 4.28125 -7.847656 3.875 -7.109375 C 3.476562 -6.378906 3.132812 -5.5625 2.84375 -4.65625 C 2.5625 -3.757812 2.421875 -2.976562 2.421875 -2.3125 C 2.421875 -1.21875 2.820312 -0.671875 3.625 -0.671875 Z M 3.625 -0.671875 "/></g></g></g><g fill="#ffffff" fill-opacity="1"><g transform="translate(286.877087, 44.59768)"><g><path d="M 2.640625 1.390625 C 1.785156 1.390625 1.175781 1.015625 0.8125 0.265625 C 0.457031 -0.484375 0.28125 -1.535156 0.28125 -2.890625 C 0.28125 -3.546875 0.328125 -4.957031 0.421875 -7.125 C 0.453125 -7.875 0.535156 -8.367188 0.671875 -8.609375 C 0.816406 -8.847656 1.1875 -8.96875 1.78125 -8.96875 C 2.320312 -8.96875 2.648438 -8.863281 2.765625 -8.65625 C 2.890625 -8.457031 2.953125 -7.992188 2.953125 -7.265625 C 2.953125 -6.804688 2.929688 -6.054688 2.890625 -5.015625 C 2.816406 -4.234375 2.78125 -3.441406 2.78125 -2.640625 C 2.78125 -1.828125 2.820312 -1.265625 2.90625 -0.953125 C 2.988281 -0.648438 3.160156 -0.5 3.421875 -0.5 C 4.179688 -0.5 5.097656 -1.25 6.171875 -2.75 C 7.253906 -4.257812 8.195312 -5.929688 9 -7.765625 C 9.050781 -9.273438 9.226562 -10.328125 9.53125 -10.921875 C 9.84375 -11.515625 10.285156 -11.8125 10.859375 -11.8125 C 11.378906 -11.8125 11.765625 -11.644531 12.015625 -11.3125 C 12.265625 -10.988281 12.390625 -10.632812 12.390625 -10.25 C 12.390625 -10.007812 12.332031 -9.78125 12.21875 -9.5625 C 12.113281 -9.351562 12.050781 -9.210938 12.03125 -9.140625 C 11.789062 -8.742188 11.597656 -8.300781 11.453125 -7.8125 C 11.316406 -7.320312 11.25 -6.664062 11.25 -5.84375 C 11.25 -4.175781 11.757812 -3.34375 12.78125 -3.34375 C 13.25 -3.34375 13.707031 -3.546875 14.15625 -3.953125 C 14.613281 -4.359375 15.078125 -5.035156 15.546875 -5.984375 L 15.953125 -5.65625 C 15.421875 -4.425781 14.828125 -3.53125 14.171875 -2.96875 C 13.523438 -2.414062 12.859375 -2.140625 12.171875 -2.140625 C 11.429688 -2.140625 10.804688 -2.4375 10.296875 -3.03125 C 9.796875 -3.625 9.410156 -4.429688 9.140625 -5.453125 C 8.097656 -3.503906 7.015625 -1.875 5.890625 -0.5625 C 4.765625 0.738281 3.679688 1.390625 2.640625 1.390625 Z M 2.640625 1.390625 "/></g></g></g><g fill="#ffffff" fill-opacity="1"><g transform="translate(301.473695, 44.59768)"><g><path d="M 7.046875 -14.984375 C 6.546875 -14.984375 6.125 -15.101562 5.78125 -15.34375 C 5.4375 -15.582031 5.265625 -15.925781 5.265625 -16.375 C 5.265625 -16.914062 5.566406 -17.394531 6.171875 -17.8125 C 6.773438 -18.226562 7.421875 -18.4375 8.109375 -18.4375 C 9.128906 -18.4375 9.640625 -18 9.640625 -17.125 C 9.640625 -16.625 9.367188 -16.140625 8.828125 -15.671875 C 8.285156 -15.210938 7.691406 -14.984375 7.046875 -14.984375 Z M 2.84375 1.0625 C 1.851562 1.0625 1.082031 0.765625 0.53125 0.171875 C -0.0078125 -0.421875 -0.28125 -1.175781 -0.28125 -2.09375 C -0.28125 -3.050781 -0.015625 -4.34375 0.515625 -5.96875 C 1.046875 -7.59375 1.71875 -9.019531 2.53125 -10.25 C 3.351562 -11.488281 4.179688 -12.109375 5.015625 -12.109375 C 5.328125 -12.109375 5.582031 -12.015625 5.78125 -11.828125 C 5.988281 -11.648438 6.09375 -11.394531 6.09375 -11.0625 C 6.09375 -10.851562 5.992188 -10.5625 5.796875 -10.1875 C 5.609375 -9.820312 5.300781 -9.296875 4.875 -8.609375 C 4.113281 -7.359375 3.515625 -6.25 3.078125 -5.28125 C 2.640625 -4.320312 2.421875 -3.414062 2.421875 -2.5625 C 2.421875 -1.820312 2.550781 -1.320312 2.8125 -1.0625 C 3.070312 -0.800781 3.472656 -0.671875 4.015625 -0.671875 C 5.890625 -0.671875 7.753906 -2.488281 9.609375 -6.125 L 10.140625 -5.546875 C 9.304688 -3.460938 8.25 -1.835938 6.96875 -0.671875 C 5.6875 0.484375 4.3125 1.0625 2.84375 1.0625 Z M 2.84375 1.0625 "/></g></g></g><g fill="#ffffff" fill-opacity="1"><g transform="translate(310.16047, 44.59768)"><g><path d="M 4.125 1.5625 C 2.632812 1.5625 1.472656 1.15625 0.640625 0.34375 C -0.191406 -0.457031 -0.609375 -1.484375 -0.609375 -2.734375 C -0.609375 -4.117188 -0.144531 -5.609375 0.78125 -7.203125 C 1.707031 -8.804688 2.894531 -10.144531 4.34375 -11.21875 C 5.789062 -12.300781 7.210938 -12.84375 8.609375 -12.84375 C 9.347656 -12.84375 9.96875 -12.660156 10.46875 -12.296875 C 10.96875 -11.929688 11.21875 -11.320312 11.21875 -10.46875 C 11.21875 -9.320312 10.773438 -8.242188 9.890625 -7.234375 C 9.015625 -6.234375 7.878906 -5.410156 6.484375 -4.765625 C 5.097656 -4.128906 3.6875 -3.726562 2.25 -3.5625 C 2.195312 -3.320312 2.171875 -3.046875 2.171875 -2.734375 C 2.171875 -2.117188 2.34375 -1.503906 2.6875 -0.890625 C 3.03125 -0.273438 3.769531 0.03125 4.90625 0.03125 C 6.351562 0.03125 7.832031 -0.550781 9.34375 -1.71875 C 10.851562 -2.894531 12.066406 -4.363281 12.984375 -6.125 L 13.703125 -5.546875 C 12.753906 -3.410156 11.394531 -1.691406 9.625 -0.390625 C 7.851562 0.910156 6.019531 1.5625 4.125 1.5625 Z M 2.640625 -4.875 C 3.492188 -4.96875 4.445312 -5.3125 5.5 -5.90625 C 6.550781 -6.5 7.445312 -7.226562 8.1875 -8.09375 C 8.925781 -8.957031 9.296875 -9.804688 9.296875 -10.640625 C 9.296875 -10.898438 9.242188 -11.078125 9.140625 -11.171875 C 9.046875 -11.265625 8.894531 -11.3125 8.6875 -11.3125 C 8 -11.3125 7.242188 -10.984375 6.421875 -10.328125 C 5.609375 -9.679688 4.851562 -8.859375 4.15625 -7.859375 C 3.46875 -6.867188 2.960938 -5.875 2.640625 -4.875 Z M 2.640625 -4.875 "/></g></g></g><g fill="#ffffff" fill-opacity="1"><g transform="translate(322.300593, 44.59768)"><g><path d="M 4.171875 1.8125 C 2.503906 1.8125 1.269531 1.332031 0.46875 0.375 C -0.320312 -0.582031 -0.71875 -1.726562 -0.71875 -3.0625 C -0.71875 -3.988281 -0.550781 -4.632812 -0.21875 -5 C 0.113281 -5.363281 0.488281 -5.640625 0.90625 -5.828125 C 1.320312 -6.023438 1.566406 -6.160156 1.640625 -6.234375 C 3.160156 -7.796875 4.3125 -9.421875 5.09375 -11.109375 L 5.09375 -11.46875 C 5.09375 -12.34375 5.238281 -12.992188 5.53125 -13.421875 C 5.832031 -13.847656 6.21875 -14.0625 6.6875 -14.0625 C 7.207031 -14.0625 7.492188 -13.820312 7.546875 -13.34375 C 7.546875 -13.226562 7.515625 -13.050781 7.453125 -12.8125 C 7.398438 -12.570312 7.375 -12.320312 7.375 -12.0625 C 7.375 -11.613281 7.441406 -11.140625 7.578125 -10.640625 C 7.722656 -10.140625 7.945312 -9.460938 8.25 -8.609375 C 8.632812 -7.566406 8.925781 -6.664062 9.125 -5.90625 C 9.332031 -5.144531 9.4375 -4.375 9.4375 -3.59375 C 9.4375 -3.1875 9.390625 -2.703125 9.296875 -2.140625 C 10.898438 -2.535156 12.296875 -3.875 13.484375 -6.15625 L 13.921875 -5.84375 C 13.441406 -4.488281 12.78125 -3.394531 11.9375 -2.5625 C 11.09375 -1.726562 10.101562 -1.226562 8.96875 -1.0625 C 8.59375 -0.113281 7.976562 0.597656 7.125 1.078125 C 6.269531 1.566406 5.285156 1.8125 4.171875 1.8125 Z M 6.484375 -2.203125 C 6.546875 -2.421875 6.578125 -2.789062 6.578125 -3.3125 C 6.554688 -4.070312 6.472656 -4.816406 6.328125 -5.546875 C 6.191406 -6.285156 5.976562 -7.238281 5.6875 -8.40625 L 5.375 -9.6875 C 4.207031 -7.664062 3.175781 -6.179688 2.28125 -5.234375 C 2.6875 -4.546875 3.253906 -3.921875 3.984375 -3.359375 C 4.722656 -2.804688 5.554688 -2.421875 6.484375 -2.203125 Z M 3.921875 0.25 C 4.390625 0.25 4.832031 0.128906 5.25 -0.109375 C 5.664062 -0.347656 5.976562 -0.691406 6.1875 -1.140625 C 5.269531 -1.328125 4.414062 -1.6875 3.625 -2.21875 C 2.84375 -2.757812 2.21875 -3.335938 1.75 -3.953125 C 1.414062 -3.878906 1.25 -3.554688 1.25 -2.984375 C 1.25 -2.128906 1.484375 -1.375 1.953125 -0.71875 C 2.429688 -0.0703125 3.085938 0.25 3.921875 0.25 Z M 3.921875 0.25 "/></g></g></g></svg>